<?xml version="1.0" encoding="UTF-8" standalone="no"?><!DOCTYPE svg PUBLIC "-//W3C//DTD SVG 1.1//EN" "http://www.w3.org/Graphics/SVG/1.1/DTD/svg11.dtd"><svg width="100%" height="100%" viewBox="0 0 50 50" version="1.1" xmlns="http://www.w3.org/2000/svg" xmlns:xlink="http://www.w3.org/1999/xlink" xml:space="preserve" xmlns:serif="http://www.serif.com/" style="fill-rule:evenodd;clip-rule:evenodd;"><g><circle cx="25" cy="25" r="15" style="fill:none;"/><circle cx="25" cy="25" r="15.378" style="fill:#fff;"/><circle cx="25" cy="25" r="20" style="fill:none;stroke:#000;stroke-width:10px;"/></g><g><path d="M32.525,31.814l0,-4.962c0,-2.427 -0.523,-4.3 -3.36,-4.3c-1.084,-0.04 -2.106,0.521 -2.653,1.458l-0.039,0l0,-1.229l-2.688,0l0,9.032l2.8,0l0,-4.472c0,-1.178 0.223,-2.316 1.681,-2.316c1.437,0 1.458,1.344 1.458,2.392l0,4.4l2.801,-0.003Z" style="fill-rule:nonzero;"/><rect x="19.227" y="22.782" width="2.8" height="9.032"/><path d="M20.625,18.286l-0.008,0c-0.895,0 -1.632,0.737 -1.632,1.632c0,0.895 0.737,1.632 1.632,1.632c0.895,0 1.632,-0.737 1.632,-1.632l0,-0.007c0,-0.891 -0.733,-1.624 -1.624,-1.625Z" style="fill-rule:nonzero;"/></g></svg>