<svg height="50" viewBox="0 0 50 50" width="50" xmlns="http://www.w3.org/2000/svg"><g fill="none" stroke="#fff" stroke-width="10"><circle cx="25" cy="25" r="15" stroke="none"/><circle cx="25" cy="25" fill="none" r="20"/></g><path d="m15.182 11.059-2.1-2.1a1.4 1.4 0 0 0 -2.328.526 1.431 1.431 0 0 1 -1.652.9 6.485 6.485 0 0 1 -3.909-3.907 1.361 1.361 0 0 1 .9-1.652 1.4 1.4 0 0 0 .527-2.326l-2.1-2.1a1.5 1.5 0 0 0 -2.028 0l-1.429 1.421c-1.427 1.5.15 5.482 3.68 9.012s7.51 5.182 9.012 3.68l1.427-1.427a1.5 1.5 0 0 0 0-2.027z" fill="#fff" transform="translate(17.223 18.286)"/></svg>