<svg clip-rule="evenodd" fill-rule="evenodd" stroke-linejoin="round" stroke-miterlimit="2" viewBox="0 0 157 154" xmlns="http://www.w3.org/2000/svg"><g fill-rule="nonzero"><path d="m105.396 10.846c7.114 6.58 11.067 15.912 10.845 25.6.185 9.72-3.572 19.112-10.411 26.022-15.621 15.624-46.849 9.985-54.23 29.5-5.2-18.216-16.049-62.468 3.038-81.557 6.741-6.827 15.999-10.594 25.592-10.411 9.562-.217 18.758 3.746 25.166 10.846z"/><path d="m67.061 153.265c-4.319.083-8.487-1.614-11.521-4.688-8.593-8.591-3.711-28.512-1.368-36.714 3.322 8.788 17.379 6.251 24.411 13.283 3.079 3.112 4.77 7.342 4.686 11.719.099 4.361-1.68 8.561-4.883 11.522-2.884 3.194-7.023 4.977-11.325 4.878z"/><path d="m26.714 83.247c-9.15 0-13.246 6.335-13.246 12.613v12.287c0 2.985 2.216 5.071 5.388 5.071h2.541v-16.884c0-3.67 1.815-5.95 4.737-5.95 3.578 0 5.318 2.118 5.318 6.477v11.285c0 2.985 2.3 5.071 5.6 5.071h2.331v-16.988c-.002-8.967-6.364-12.982-12.669-12.982z"/><path d="m82.077 95.329c-5.086-.829-5.333-1.412-5.333-2.371 0-1.173.546-2.733 5.264-2.733 3.125 0 6.34 1.033 7.816 2.511l.126.126h.873v-3.12c0-3.129-2.973-6.5-9.5-6.5-7.13 0-12.506 4.426-12.506 10.292 0 4.485 3.037 7.092 9.284 7.968 5.149.72 5.535 1.531 5.535 2.685s-.492 2.68-4.737 2.68c-3.433 0-6.891-1.308-8.252-2.573l-.124-.116h-.863v3.647c0 3.321 4.287 6.022 9.555 6.022 7.814 0 12.3-3.656 12.3-10.03-.004-4.625-3.179-7.483-9.438-8.488z"/><path d="m96.238 90.323v23.116h2.435c3.544 0 5.5-2.026 5.5-5.705v-23.115h-2.435c-3.549 0-5.5 2.026-5.5 5.704z"/><path d="m0 90.323v23.116h2.435c3.542 0 5.494-2.026 5.494-5.705v-23.115h-2.435c-3.544 0-5.494 2.026-5.494 5.704z"/><path d="m117.866 77.446h-2.07c-1.455.163-2.778.924-3.65 2.1-1.552 1.561-2.342 3.728-2.159 5.922v17.086c0 7.079 3.936 10.979 11.085 10.979 4.229 0 6.655-1.887 6.655-5.177v-2.962h-.817l-.1.064c-1.521.732-3.207 1.055-4.891.937-2.8 0-4.052-1.444-4.052-4.684v-10.7h5.214c3.021 0 4.651-1.961 4.651-3.807v-3.325h-9.866z"/><path d="m150.666 83.879h-1.694v16.41c0 4.2-1.566 6.424-4.528 6.424-3.429 0-5.317-2.451-5.317-6.9v-10.44c0-3.646-2.116-5.494-6.288-5.494h-1.748v16.621c0 7.985 5.217 13.352 12.985 13.352 8.545 0 12.876-4.652 12.876-13.827v-10.652c0-3.696-2.056-5.494-6.286-5.494z"/><path d="m4.683 73.189c-2.508 0-4.571 2.063-4.571 4.571s2.063 4.571 4.571 4.571c2.511-.032 4.568-2.089 4.6-4.6-.019-2.506-2.094-4.555-4.6-4.542z"/><path d="m100.15 115.625c-2.497.016-4.542 2.074-4.542 4.571 0 2.507 2.064 4.571 4.571 4.571 2.497 0 4.555-2.045 4.571-4.542-.032-2.511-2.089-4.568-4.6-4.6z"/></g></svg>