<svg width="100%" height="100%" viewBox="0 0 185 135" version="1.1" xmlns="http://www.w3.org/2000/svg" xmlns:xlink="http://www.w3.org/1999/xlink" xml:space="preserve" xmlns:serif="http://www.serif.com/" style="fill-rule:evenodd;clip-rule:evenodd;stroke-linejoin:round;stroke-miterlimit:2;"><path d="M80.607,8.296c5.637,5.311 8.293,11.946 8.293,19.576c-0,7.96 -2.656,14.264 -7.962,19.904c-11.946,11.949 -35.831,7.636 -41.476,22.557c-3.98,-13.925 -12.273,-47.77 2.323,-62.369c5.311,-5.309 11.945,-7.964 19.574,-7.964c7.633,0 13.936,2.655 19.248,8.296Z" style="fill:#fff;fill-rule:nonzero;"/><path d="M51.287,117.211c-3.436,0 -6.422,-1.194 -8.812,-3.585c-6.57,-6.57 -2.838,-21.806 -1.045,-28.079c2.541,6.722 13.291,4.78 18.668,10.159c2.39,2.539 3.586,5.376 3.586,8.959c0,3.436 -1.196,6.423 -3.734,8.813c-2.392,2.539 -5.23,3.733 -8.663,3.733Z" style="fill:#fff;fill-rule:nonzero;"/><path d="M20.429,63.669c-6.996,-0 -10.129,4.836 -10.129,9.637l-0,9.398c-0,2.283 1.694,3.878 4.12,3.878l1.942,-0l0,-12.913c0,-2.807 1.389,-4.551 3.624,-4.551c2.735,-0 4.066,1.621 4.066,4.953l0,8.633c0,2.283 1.761,3.878 4.282,3.878l1.781,-0l0,-12.993c0.002,-6.851 -4.863,-9.92 -9.686,-9.92Z" style="fill:#fff;fill-rule:nonzero;"/><path d="M62.771,72.901c-3.889,-0.634 -4.078,-1.079 -4.078,-1.812c0,-0.897 0.417,-2.09 4.025,-2.09c2.391,0 4.85,0.788 5.979,1.919l0.096,0.097l0.668,0l0,-2.387c0,-2.385 -2.274,-4.959 -7.267,-4.959c-5.453,0 -9.566,3.384 -9.566,7.862c0,3.431 2.323,5.424 7.101,6.094c3.939,0.552 4.233,1.171 4.233,2.054c0,0.881 -0.376,2.051 -3.623,2.051c-2.625,0 -5.27,-1.001 -6.311,-1.969l-0.094,-0.089l-0.66,0l0,2.79c0,2.539 3.278,4.604 7.308,4.604c5.977,0 9.404,-2.796 9.404,-7.67c0,-3.54 -2.427,-5.727 -7.215,-6.495Z" style="fill:#fff;fill-rule:nonzero;"/><path d="M73.602,69.072l0,17.683l1.862,0c2.709,0 4.201,-1.55 4.201,-4.363l0,-17.674l-1.861,0c-2.71,0 -4.202,1.549 -4.202,4.354Z" style="fill:#fff;fill-rule:nonzero;"/><path d="M0,69.072l0,17.683l1.863,0c2.709,0 4.201,-1.55 4.201,-4.363l0,-17.674l-1.862,0c-2.709,0 -4.202,1.549 -4.202,4.354Z" style="fill:#fff;fill-rule:nonzero;"/><path d="M90.144,59.231l-1.582,-0c-0.885,-0 -1.928,0.601 -2.791,1.607c-1.219,1.43 -1.65,2.328 -1.65,4.531l-0,13.06c-0,5.413 3.01,8.396 8.467,8.396c3.23,0 5.085,-1.442 5.085,-3.96l-0,-2.264l-0.625,0l-0.077,0.048c-0.773,0.478 -2.031,0.717 -3.741,0.717c-2.132,0 -3.087,-1.104 -3.087,-3.581l-0,-8.183l3.974,0c2.312,0 3.557,-1.497 3.557,-2.902l-0,-2.548l-7.53,0l-0,-4.921Z" style="fill:#fff;fill-rule:nonzero;"/><path d="M115.215,64.152l-1.296,0l0,12.542c0,3.216 -1.197,4.914 -3.462,4.914c-2.623,0 -4.068,-1.875 -4.068,-5.277l0,-7.985c0,-2.779 -1.617,-4.194 -4.809,-4.194l-1.338,0l0,12.704c0,6.106 3.991,10.211 9.933,10.211c6.534,0 9.848,-3.558 9.848,-10.573l-0,-8.147c-0.001,-2.82 -1.572,-4.195 -4.808,-4.195Z" style="fill:#fff;fill-rule:nonzero;"/><path d="M3.586,55.975c-1.916,-0 -3.475,1.56 -3.475,3.476c0,1.938 1.559,3.516 3.475,3.516c1.906,0 3.516,-1.61 3.516,-3.516c-0.001,-1.916 -1.578,-3.476 -3.516,-3.476Z" style="fill:#fff;fill-rule:nonzero;"/><path d="M76.594,88.425c-1.916,0 -3.475,1.577 -3.475,3.516c-0,1.916 1.559,3.475 3.475,3.475c1.938,0 3.516,-1.559 3.516,-3.475c-0.001,-1.907 -1.61,-3.516 -3.516,-3.516Z" style="fill:#fff;fill-rule:nonzero;"/><path d="M76.301,117.597c-1.596,0 -2.457,-0.849 -2.457,-2.415l0,-8.006l0.545,0c0.964,0 1.381,0.561 1.381,1.293l0,6.525c0,0.776 0.402,1.021 1.308,1.021l0.518,0l0,0.416c-0.001,0.835 -0.448,1.166 -1.295,1.166Z" style="fill:#fff;fill-rule:nonzero;"/><path d="M78.599,111.272l-0.389,-0l0,-0.086c0.389,-0.359 0.662,-1.063 0.662,-1.48c0,-0.273 -0.072,-0.488 -0.23,-0.646c-0.215,-0.216 -0.389,-0.389 -0.389,-0.834c0,-0.59 0.475,-1.063 1.121,-1.063c0.748,0 1.236,0.575 1.236,1.639c0.001,1.263 -0.904,2.47 -2.011,2.47Z" style="fill:#fff;fill-rule:nonzero;"/><path d="M85.34,117.653l-0.389,-0c-1.84,-0 -3.104,-1.034 -3.104,-2.457c0,-1.38 1.006,-2.43 3.852,-2.43l0.676,-0l0,-0.101c0,-1.093 -0.518,-1.423 -1.668,-1.423c-1.394,-0 -2.17,0.532 -2.457,0.891l-0.072,-0l0,-0.617c0,-0.863 0.776,-1.897 2.817,-1.897c1.725,0 3.277,0.805 3.277,3.479l0,1.782c0,1.639 -1.208,2.773 -2.932,2.773Zm1.048,-3.506l-0.689,0c-1.466,0 -1.883,0.345 -1.883,0.978c0,0.604 0.488,0.963 1.337,0.963c0.833,0 1.235,-0.402 1.235,-1.193l-0,-0.748Z" style="fill:#fff;fill-rule:nonzero;"/><path d="M96.607,115.354c0.015,0.316 0.028,0.733 0.028,0.992c0,1.94 -1.293,3.68 -3.794,3.68c-1.596,0 -2.688,-0.776 -2.688,-1.696l0,-0.877l0.087,-0c0.459,0.489 1.351,0.834 2.457,0.834c1.323,-0 1.998,-0.604 1.998,-1.624l0,-1.136c-0.158,0.561 -0.891,1.15 -1.998,1.15c-1.883,-0 -3.219,-1.309 -3.219,-3.134c0,-2.185 1.438,-3.953 3.938,-3.953c1.927,0 3.162,1.409 3.162,3.393l0,1.322c0,0.259 0.015,0.704 0.029,1.049Zm-5.146,-2.055c-0,1.006 0.619,1.753 1.539,1.753c0.963,-0 1.652,-0.719 1.652,-1.954c-0,-1.208 -0.604,-1.797 -1.451,-1.797c-0.992,-0 -1.74,0.833 -1.74,1.998Z" style="fill:#fff;fill-rule:nonzero;"/><path d="M101.262,114.478l-1.265,0c0.144,0.978 1.034,1.595 2.17,1.595c0.805,0 1.754,-0.158 2.372,-0.732l0.071,0l0,0.604c0,0.992 -0.675,1.754 -2.803,1.754c-1.926,0 -3.809,-1.524 -3.809,-3.896c0,-2.588 1.581,-4.212 3.795,-4.212c1.609,0 3.104,1.15 3.104,3.004c0.002,1.423 -1.076,1.883 -3.635,1.883Zm0.36,-3.278c-0.935,0 -1.581,0.762 -1.624,1.652l-0.015,0.259l0.862,-0c1.825,-0 2.242,-0.201 2.242,-0.747c0.001,-0.776 -0.575,-1.164 -1.465,-1.164Z" style="fill:#fff;fill-rule:nonzero;"/><path d="M112.687,117.525c-0.862,0 -1.408,-0.546 -1.408,-1.265l0,-3.076c0,-1.308 -0.575,-1.883 -1.567,-1.883c-0.833,0 -1.408,0.632 -1.408,1.739l0,4.484l-0.575,0c-0.819,0 -1.351,-0.546 -1.351,-1.265l0,-3.35c0,-1.639 1.078,-3.32 3.492,-3.32c1.826,0 3.335,1.222 3.335,3.421l0,4.514l-0.518,0l0,0.001Z" style="fill:#fff;fill-rule:nonzero;"/><path d="M120.936,112.264c-0.259,-0.445 -0.992,-0.805 -2.099,-0.805c-1.121,0 -2.113,0.905 -2.113,2.055c-0,1.409 0.834,2.372 2.142,2.372c1.107,0 1.769,-0.359 2.042,-0.719l0.071,0l-0,0.892c-0,0.934 -0.905,1.609 -2.3,1.609c-2.127,0 -3.967,-1.652 -3.967,-3.866c-0,-2.214 1.538,-4.111 4.183,-4.111c1.236,0 2.113,0.748 2.113,1.668l-0,0.905l-0.072,0Z" style="fill:#fff;fill-rule:nonzero;"/><path d="M125.303,114.478l-1.265,0c0.144,0.978 1.034,1.595 2.17,1.595c0.805,0 1.754,-0.158 2.372,-0.732l0.071,0l0,0.604c0,0.992 -0.675,1.754 -2.803,1.754c-1.926,0 -3.809,-1.524 -3.809,-3.896c0,-2.588 1.581,-4.212 3.795,-4.212c1.609,0 3.104,1.15 3.104,3.004c0.002,1.423 -1.076,1.883 -3.635,1.883Zm0.36,-3.278c-0.935,0 -1.581,0.762 -1.624,1.652l-0.015,0.259l0.862,-0c1.825,-0 2.242,-0.201 2.242,-0.747c0.001,-0.776 -0.575,-1.164 -1.465,-1.164Z" style="fill:#fff;fill-rule:nonzero;"/><path d="M136.857,117.697c-2.041,0 -3.607,-1.783 -3.607,-3.91c0,-2.544 1.236,-4.197 3.492,-4.197c0.776,0 1.625,0.547 1.927,1.222l0,-3.636l0.589,0c0.92,0 1.322,0.531 1.322,1.308l0,5.462c0,2.256 -1.064,3.751 -3.723,3.751Zm-0.1,-6.483c-0.978,-0 -1.609,0.949 -1.609,2.199c0,1.61 0.833,2.659 1.94,2.659c1.078,-0 1.552,-0.805 1.552,-2.213c-0.001,-1.94 -0.848,-2.645 -1.883,-2.645Z" style="fill:#fff;fill-rule:nonzero;"/><path d="M145.35,114.478l-1.265,0c0.144,0.978 1.034,1.595 2.17,1.595c0.805,0 1.754,-0.158 2.372,-0.732l0.071,0l0,0.604c0,0.992 -0.675,1.754 -2.803,1.754c-1.926,0 -3.809,-1.524 -3.809,-3.896c0,-2.588 1.581,-4.212 3.795,-4.212c1.609,0 3.104,1.15 3.104,3.004c0.002,1.423 -1.076,1.883 -3.635,1.883Zm0.36,-3.278c-0.935,0 -1.581,0.762 -1.624,1.652l-0.015,0.259l0.862,-0c1.825,-0 2.242,-0.201 2.242,-0.747c0.001,-0.776 -0.575,-1.164 -1.465,-1.164Z" style="fill:#fff;fill-rule:nonzero;"/><path d="M159.52,112.264c-0.259,-0.445 -0.992,-0.805 -2.099,-0.805c-1.121,0 -2.113,0.905 -2.113,2.055c0,1.409 0.834,2.372 2.142,2.372c1.107,0 1.769,-0.359 2.042,-0.719l0.071,0l0,0.892c0,0.934 -0.905,1.609 -2.3,1.609c-2.127,0 -3.967,-1.652 -3.967,-3.866c0,-2.214 1.538,-4.111 4.183,-4.111c1.236,0 2.113,0.748 2.113,1.668l0,0.905l-0.072,0Z" style="fill:#fff;fill-rule:nonzero;"/><path d="M164.464,109.59c2.328,0 3.665,1.869 3.665,3.924c0,2.329 -1.337,4.184 -3.838,4.184c-2.328,0 -3.665,-1.854 -3.665,-3.91c0,-2.329 1.337,-4.198 3.838,-4.198Zm-0.173,1.725c-1.106,0 -1.667,0.92 -1.667,2.199c0,1.538 0.561,2.458 1.84,2.458c1.121,0 1.667,-0.92 1.667,-2.185c0,-1.552 -0.576,-2.472 -1.84,-2.472Z" style="fill:#fff;fill-rule:nonzero;"/><path d="M180.429,117.525c-1.049,0 -1.466,-0.488 -1.466,-1.408l0,-2.99c0,-1.279 -0.575,-1.825 -1.423,-1.825c-0.776,0 -1.308,0.546 -1.308,1.609l0,4.614l-0.518,0c-0.849,0 -1.409,-0.488 -1.409,-1.408l0,-2.99c0,-1.279 -0.589,-1.825 -1.438,-1.825c-0.747,0 -1.308,0.589 -1.308,1.652l0,4.571l-0.518,0c-0.79,0 -1.395,-0.518 -1.395,-1.408l0,-3.005c0,-2.112 1.107,-3.521 3.45,-3.521c1.006,0 1.797,0.46 2.357,1.208c0.445,-0.719 1.293,-1.208 2.228,-1.208c1.782,0 3.22,1.078 3.22,3.277l0,4.657l-0.472,0Z" style="fill:#fff;fill-rule:nonzero;"/><path d="M182.914,111.272l-0.389,-0l0,-0.086c0.389,-0.359 0.662,-1.063 0.662,-1.48c0,-0.273 -0.072,-0.488 -0.23,-0.646c-0.216,-0.216 -0.388,-0.389 -0.388,-0.834c0,-0.59 0.474,-1.063 1.121,-1.063c0.747,0 1.236,0.575 1.236,1.639c0.001,1.263 -0.906,2.47 -2.012,2.47Z" style="fill:#fff;fill-rule:nonzero;"/><path d="M77.019,134.943c-2.041,0 -3.607,-1.782 -3.607,-3.91c-0,-2.544 1.236,-4.197 3.492,-4.197c0.776,0 1.625,0.547 1.926,1.222l-0,-3.637l0.59,0c0.92,0 1.322,0.532 1.322,1.309l-0,5.462c-0,2.255 -1.064,3.751 -3.723,3.751Zm-0.1,-6.484c-0.978,0 -1.61,0.949 -1.61,2.199c-0,1.61 0.834,2.659 1.941,2.659c1.078,0 1.553,-0.805 1.553,-2.213c-0,-1.94 -0.849,-2.645 -1.884,-2.645Z" style="fill:#fff;fill-rule:nonzero;"/><path d="M85.512,131.723l-1.265,0c0.144,0.977 1.035,1.595 2.17,1.595c0.805,0 1.754,-0.157 2.372,-0.732l0.071,0l0,0.604c0,0.992 -0.676,1.754 -2.803,1.754c-1.926,0 -3.809,-1.524 -3.809,-3.896c0,-2.588 1.581,-4.212 3.795,-4.212c1.609,0 3.104,1.15 3.104,3.004c0.002,1.423 -1.076,1.883 -3.635,1.883Zm0.36,-3.278c-0.935,-0 -1.581,0.762 -1.624,1.652l-0.015,0.259l0.862,-0c1.826,-0 2.242,-0.201 2.242,-0.747c0.001,-0.776 -0.574,-1.164 -1.465,-1.164Z" style="fill:#fff;fill-rule:nonzero;"/><path d="M92.97,134.943c-1.424,0 -2.486,-0.733 -2.486,-1.524l0,-0.876l0.071,0c0.417,0.388 1.409,0.732 2.329,0.732c0.948,0 1.408,-0.272 1.408,-0.848c0,-0.445 -0.273,-0.661 -1.609,-0.849c-1.639,-0.229 -2.43,-0.876 -2.43,-2.055c0,-1.452 1.309,-2.688 3.292,-2.688c1.753,0 2.472,0.906 2.472,1.653l0,0.733l-0.071,0c-0.402,-0.403 -1.294,-0.719 -2.214,-0.719c-1.179,0 -1.553,0.359 -1.553,0.862c0,0.388 0.23,0.546 1.553,0.762c1.609,0.259 2.473,0.963 2.473,2.199c0,1.64 -1.151,2.618 -3.235,2.618Z" style="fill:#fff;fill-rule:nonzero;"/><path d="M105.286,128.891c-0.288,-0.115 -0.618,-0.229 -1.121,-0.229c-0.863,0 -1.337,0.474 -1.337,1.652l0,4.456l-0.532,0c-0.862,0 -1.408,-0.432 -1.408,-1.236l0,-3.564c0,-1.553 0.819,-3.033 2.86,-3.033c1.192,0 1.609,0.676 1.609,1.266l0,0.689l-0.071,0l0,-0.001Z" style="fill:#fff;fill-rule:nonzero;"/><path d="M109.338,131.723l-1.265,0c0.144,0.977 1.034,1.595 2.17,1.595c0.805,0 1.754,-0.157 2.372,-0.732l0.071,0l-0,0.604c-0,0.992 -0.675,1.754 -2.803,1.754c-1.926,0 -3.809,-1.524 -3.809,-3.896c-0,-2.588 1.581,-4.212 3.794,-4.212c1.61,0 3.105,1.15 3.105,3.004c0.001,1.423 -1.077,1.883 -3.635,1.883Zm0.359,-3.278c-0.935,-0 -1.581,0.762 -1.624,1.652l-0.015,0.259l0.862,-0c1.825,-0 2.242,-0.201 2.242,-0.747c0.001,-0.776 -0.574,-1.164 -1.465,-1.164Zm1.149,-2.918c-0.474,0.201 -1.135,0.345 -1.652,0.345l-0.647,0l-0,-0.071c0.316,-0.489 0.661,-0.964 1.078,-1.337c0.46,-0.417 0.806,-0.69 1.366,-0.69c0.474,0 0.805,0.216 0.805,0.733c-0,0.417 -0.36,0.776 -0.95,1.02Z" style="fill:#fff;fill-rule:nonzero;"/><path d="M116.797,134.943c-1.423,0 -2.486,-0.733 -2.486,-1.524l0,-0.876l0.071,0c0.417,0.388 1.409,0.732 2.329,0.732c0.948,0 1.408,-0.272 1.408,-0.848c0,-0.445 -0.273,-0.661 -1.609,-0.849c-1.639,-0.229 -2.43,-0.876 -2.43,-2.055c0,-1.452 1.308,-2.688 3.292,-2.688c1.753,0 2.472,0.906 2.472,1.653l0,0.733l-0.071,0c-0.402,-0.403 -1.294,-0.719 -2.214,-0.719c-1.179,0 -1.553,0.359 -1.553,0.862c0,0.388 0.23,0.546 1.553,0.762c1.609,0.259 2.473,0.963 2.473,2.199c-0.001,1.64 -1.151,2.618 -3.235,2.618Z" style="fill:#fff;fill-rule:nonzero;"/><path d="M124.427,131.723l-1.265,0c0.144,0.977 1.034,1.595 2.17,1.595c0.805,0 1.754,-0.157 2.372,-0.732l0.071,0l-0,0.604c-0,0.992 -0.675,1.754 -2.803,1.754c-1.926,0 -3.809,-1.524 -3.809,-3.896c-0,-2.588 1.581,-4.212 3.795,-4.212c1.609,0 3.104,1.15 3.104,3.004c0.001,1.423 -1.077,1.883 -3.635,1.883Zm0.359,-3.278c-0.935,-0 -1.581,0.762 -1.624,1.652l-0.015,0.259l0.862,-0c1.825,-0 2.242,-0.201 2.242,-0.747c0.001,-0.776 -0.574,-1.164 -1.465,-1.164Z" style="fill:#fff;fill-rule:nonzero;"/><path d="M132.69,134.899l-0.388,0c-1.84,0 -3.105,-1.034 -3.105,-2.457c0,-1.38 1.007,-2.43 3.853,-2.43l0.676,0l0,-0.101c0,-1.093 -0.518,-1.423 -1.667,-1.423c-1.395,0 -2.171,0.531 -2.458,0.891l-0.072,0l0,-0.617c0,-0.863 0.776,-1.897 2.817,-1.897c1.725,0 3.277,0.805 3.277,3.479l0,1.782c0,1.638 -1.208,2.773 -2.933,2.773Zm1.05,-3.507l-0.69,0c-1.466,0 -1.883,0.345 -1.883,0.978c0,0.604 0.488,0.963 1.337,0.963c0.833,0 1.236,-0.402 1.236,-1.193l0,-0.748Z" style="fill:#fff;fill-rule:nonzero;"/><path d="M140.565,134.943c-1.912,0 -3.421,-1.266 -3.421,-3.521l0,-4.413l0.359,-0c1.106,-0 1.595,0.475 1.595,1.38l0,2.846c0,1.423 0.69,1.998 1.567,1.998c0.79,-0 1.351,-0.546 1.351,-1.868l0,-4.355l0.346,-0c1.121,-0 1.595,0.475 1.595,1.38l0,2.903c0,2.413 -1.135,3.65 -3.392,3.65Z" style="fill:#fff;fill-rule:nonzero;"/><path d="M151.415,134.885c-0.819,0 -1.38,-0.46 -2.055,-1.48l-0.849,-1.279c-0.488,0.561 -0.805,0.991 -1.021,1.365c-0.259,0.445 -0.359,0.834 -0.431,1.308l-0.877,0c-0.446,0 -0.791,-0.302 -0.791,-0.689c0,-0.92 0.532,-1.682 1.495,-2.717l0.633,-0.676l-0.819,-1.179c-1.021,-1.466 -1.352,-1.983 -1.38,-2.529l1.149,0c0.374,0 0.848,0.244 1.711,1.466l0.79,1.121c1.236,-1.394 1.438,-1.797 1.566,-2.572l0.733,0c0.561,0 0.791,0.388 0.791,0.819c0,0.345 -0.288,0.948 -0.906,1.753c-0.315,0.417 -0.719,0.892 -1.179,1.409l0.849,1.236c0.834,1.222 1.179,1.537 1.854,1.682c0.002,0.545 -0.415,0.962 -1.263,0.962Z" style="fill:#fff;fill-rule:nonzero;"/></svg>