<?xml version="1.0" encoding="UTF-8" standalone="no"?><!DOCTYPE svg PUBLIC "-//W3C//DTD SVG 1.1//EN" "http://www.w3.org/Graphics/SVG/1.1/DTD/svg11.dtd"><svg width="100%" height="100%" viewBox="0 0 137 134" version="1.1" xmlns="http://www.w3.org/2000/svg" xmlns:xlink="http://www.w3.org/1999/xlink" xml:space="preserve" xmlns:serif="http://www.serif.com/" style="fill-rule:evenodd;clip-rule:evenodd;stroke-linejoin:round;stroke-miterlimit:2;"><path d="M91.759,9.442c6.418,6.046 9.441,13.599 9.441,22.285c0,9.062 -3.023,16.238 -9.064,22.658c-13.6,13.601 -40.787,8.692 -47.213,25.684c-4.531,-15.859 -13.972,-54.385 2.645,-71.004c6.044,-6.043 13.598,-9.065 22.282,-9.065c8.686,-0.001 15.863,3.022 21.909,9.442Z" style="fill:#e2001a;fill-rule:nonzero;"/><path d="M58.383,133.433c-3.911,0 -7.311,-1.36 -10.031,-4.081c-7.48,-7.479 -3.231,-24.823 -1.19,-31.963c2.892,7.65 15.13,5.441 21.251,11.563c2.719,2.891 4.081,6.12 4.081,10.2c-0,3.91 -1.362,7.31 -4.251,10.031c-2.72,2.889 -5.951,4.25 -9.86,4.25Z" style="fill:#e2007a;fill-rule:nonzero;"/><path d="M23.257,72.475c-7.966,0 -11.532,5.515 -11.532,10.98l0,10.697c0,2.6 1.929,4.416 4.691,4.416l2.211,0l0,-14.7c0,-3.195 1.581,-5.18 4.125,-5.18c3.115,0 4.63,1.844 4.63,5.639l0,9.825c0,2.6 2.004,4.416 4.875,4.416l2.028,0l0,-14.792c0,-7.807 -5.539,-11.301 -11.028,-11.301Z" style="fill:#fff;fill-rule:nonzero;"/><path d="M71.457,82.993c-4.428,-0.722 -4.644,-1.229 -4.644,-2.063c-0,-1.021 0.475,-2.379 4.583,-2.379c2.722,0 5.52,0.899 6.806,2.186l0.11,0.11l0.76,0l-0,-2.716c-0,-2.724 -2.589,-5.655 -8.273,-5.655c-6.208,0 -10.888,3.852 -10.888,8.96c-0,3.904 2.644,6.173 8.083,6.937c4.483,0.627 4.819,1.333 4.819,2.338c-0,1.002 -0.428,2.333 -4.124,2.333c-2.988,0 -5.999,-1.139 -7.184,-2.241l-0.108,-0.101l-0.751,0l-0,3.175c-0,2.891 3.732,5.242 8.319,5.242c6.803,0 10.705,-3.183 10.705,-8.731c-0,-4.032 -2.764,-6.52 -8.213,-7.395Z" style="fill:#fff;fill-rule:nonzero;"/><path d="M83.785,78.635l0,20.128l2.12,0c3.084,0 4.784,-1.764 4.784,-4.967l0,-20.127l-2.12,0c-3.085,0 -4.784,1.764 -4.784,4.966Z" style="fill:#fff;fill-rule:nonzero;"/><path d="M0,78.635l0,20.128l2.12,0c3.084,0 4.783,-1.764 4.783,-4.967l0,-20.127l-2.12,0c-3.085,0 -4.783,1.764 -4.783,4.966Z" style="fill:#fff;fill-rule:nonzero;"/><path d="M102.615,67.424l-1.799,0c-1.008,0 -2.196,0.684 -3.178,1.831c-1.388,1.626 -1.88,2.649 -1.88,5.156l-0,14.875c-0,6.163 3.427,9.558 9.65,9.558c3.683,0 5.794,-1.643 5.794,-4.507l-0,-2.579l-0.711,0l-0.091,0.056c-0.878,0.542 -2.311,0.816 -4.258,0.816c-2.44,0 -3.528,-1.258 -3.528,-4.079l-0,-9.312l4.539,0c2.63,0 4.049,-1.707 4.049,-3.313l-0,-2.9l-8.588,0l-0,-5.602l0.001,0Z" style="fill:#fff;fill-rule:nonzero;"/><path d="M131.172,73.025l-1.476,0l0,14.286c0,3.659 -1.363,5.593 -3.941,5.593c-2.985,0 -4.63,-2.133 -4.63,-6.007l0,-9.09c0,-3.173 -1.842,-4.782 -5.474,-4.782l-1.522,0l0,14.469c0,6.953 4.543,11.624 11.306,11.624c7.438,0 11.21,-4.05 11.21,-12.037l0,-9.274c-0.001,-3.217 -1.791,-4.782 -5.473,-4.782Z" style="fill:#fff;fill-rule:nonzero;"/><path d="M4.081,63.718c-2.181,0 -3.955,1.775 -3.955,3.957c0,2.207 1.774,4.002 3.955,4.002c2.169,0 4.002,-1.833 4.002,-4.002c0.001,-2.182 -1.795,-3.957 -4.002,-3.957Z" style="fill:#e2001a;fill-rule:nonzero;"/><path d="M87.191,100.664c-2.181,0 -3.956,1.795 -3.956,4.002c0,2.182 1.774,3.957 3.956,3.957c2.207,0 4.002,-1.775 4.002,-3.957c0,-2.17 -1.833,-4.002 -4.002,-4.002Z" style="fill:#e2007a;fill-rule:nonzero;"/></svg>