<svg width="100%" height="100%" viewBox="0 0 187 182" version="1.1" xmlns="http://www.w3.org/2000/svg" xmlns:xlink="http://www.w3.org/1999/xlink" xml:space="preserve" xmlns:serif="http://www.serif.com/" style="fill-rule:evenodd;clip-rule:evenodd;stroke-linejoin:round;stroke-miterlimit:2;"><path d="M125.063,12.87c8.745,8.24 12.866,18.534 12.866,30.373c0,12.351 -4.121,22.13 -12.353,30.882c-18.535,18.544 -55.593,11.848 -64.351,35.057c-6.176,-21.665 -19.042,-74.175 3.605,-96.826c8.239,-8.237 18.533,-12.356 30.369,-12.356c11.843,-0.001 21.621,4.119 29.864,12.87Z" style="fill:#e1001a;fill-rule:nonzero;"/><path d="M79.572,181.913c-5.33,0 -9.964,-1.853 -13.673,-5.562c-10.193,-10.194 -4.402,-33.832 -1.621,-43.565c3.942,10.429 20.621,7.417 28.964,15.762c3.707,3.939 5.563,8.341 5.563,13.9c0,5.33 -1.856,9.965 -5.794,13.674c-3.708,3.938 -8.112,5.791 -13.439,5.791Z" style="fill:#e1007a;fill-rule:nonzero;"/><path d="M31.697,98.83c-10.854,0 -15.716,7.516 -15.716,14.964l0,14.582c0,3.542 2.629,6.017 6.393,6.017l3.014,0l0,-20.035c0,-4.354 2.154,-7.061 5.623,-7.061c4.243,0 6.309,2.515 6.309,7.685l-0,13.395c-0,3.542 2.732,6.017 6.645,6.017l2.763,0l-0,-20.159c-0.002,-10.631 -7.55,-15.405 -15.031,-15.405Z" style="fill:#1a171b;fill-rule:nonzero;"/><path d="M97.39,113.165c-6.033,-0.983 -6.327,-1.674 -6.327,-2.811c0,-1.393 0.646,-3.242 6.245,-3.242c3.709,0 7.524,1.223 9.277,2.977l0.148,0.15l1.036,0l0,-3.703c0,-3.7 -3.528,-7.706 -11.274,-7.706c-8.46,0 -14.842,5.263 -14.842,12.211c0,5.322 3.604,8.415 11.017,9.454c6.112,0.856 6.568,1.816 6.568,3.187c0,1.366 -0.584,3.182 -5.621,3.182c-4.073,0 -8.176,-1.553 -9.791,-3.055l-0.146,-0.138l-1.026,0l0,4.329c0,3.939 5.087,7.144 11.338,7.144c9.273,0 14.591,-4.338 14.591,-11.899c0.001,-5.495 -3.764,-8.888 -11.193,-10.08Z" style="fill:#1a171b;fill-rule:nonzero;"/><path d="M114.195,107.225l-0,27.435l2.889,0c4.203,0 6.519,-2.404 6.519,-6.77l-0,-27.421l-2.888,0c-4.206,0 -6.52,2.404 -6.52,6.756Z" style="fill:#1a171b;fill-rule:nonzero;"/><path d="M0,107.225l0,27.435l2.891,0c4.203,0 6.519,-2.404 6.519,-6.77l0,-27.421l-2.89,0c-4.204,0 -6.52,2.404 -6.52,6.756Z" style="fill:#1a171b;fill-rule:nonzero;"/><path d="M139.857,91.896l-2.452,0c-1.372,0 -2.991,0.938 -4.33,2.511c-1.891,2.234 -2.561,3.637 -2.561,7.072l0,20.263c0,8.398 4.67,13.025 13.136,13.025c5.013,0 7.89,-2.237 7.89,-6.144l0,-3.512l-0.97,0l-0.119,0.074c-1.2,0.74 -3.152,1.111 -5.805,1.111c-3.308,0 -4.789,-1.713 -4.789,-5.556l0,-12.695l6.165,0c3.586,0 5.518,-2.322 5.518,-4.502l0,-3.96l-11.683,0l0,-7.687Z" style="fill:#1a171b;fill-rule:nonzero;"/><path d="M178.757,99.585l-2.011,0l0,19.467c0,4.989 -1.857,7.624 -5.371,7.624c-4.069,0 -6.312,-2.909 -6.312,-8.188l0,-12.39c0,-4.312 -2.509,-6.514 -7.46,-6.514l-2.076,0l0,19.717c0,9.474 6.192,15.842 15.411,15.842c10.138,0 15.278,-5.52 15.278,-16.404l0,-12.641c0,-4.374 -2.438,-6.513 -7.459,-6.513Z" style="fill:#1a171b;fill-rule:nonzero;"/><path d="M5.563,86.845c-2.973,0 -5.391,2.42 -5.391,5.396c0,3.028 2.418,5.492 5.391,5.492c2.958,0 5.455,-2.517 5.455,-5.492c0,-2.976 -2.447,-5.396 -5.455,-5.396Z" style="fill:#e1001a;fill-rule:nonzero;"/><path d="M118.836,137.251c-2.973,0 -5.391,2.447 -5.391,5.455c0,2.973 2.418,5.391 5.391,5.391c3.008,0 5.454,-2.418 5.454,-5.391c0,-2.958 -2.497,-5.455 -5.454,-5.455Z" style="fill:#e1007a;fill-rule:nonzero;"/></svg>