<svg height="153.266" viewBox="0 0 156.953 153.266" width="156.953" xmlns="http://www.w3.org/2000/svg"><g fill="#fff"><path d="m114.266 20.056a33.814 33.814 0 0 1 10.845 25.6 36.016 36.016 0 0 1 -10.411 26.022c-15.621 15.624-46.849 9.985-54.23 29.5-5.2-18.216-16.049-62.468 3.038-81.557a35.028 35.028 0 0 1 25.592-10.411 32.894 32.894 0 0 1 25.166 10.846z" transform="translate(-8.87 -9.21)"/><path d="m75.042 148a15.763 15.763 0 0 1 -11.521-4.688c-8.593-8.591-3.711-28.512-1.368-36.714 3.322 8.788 17.379 6.251 24.411 13.283a16.219 16.219 0 0 1 4.686 11.719 15.22 15.22 0 0 1 -4.883 11.522 14.8 14.8 0 0 1 -11.325 4.878z" transform="translate(-7.981 5.265)"/><path d="m39.507 81.685c-9.15 0-13.246 6.335-13.246 12.613v12.287c0 2.985 2.216 5.071 5.388 5.071h2.541v-16.884c0-3.67 1.815-5.95 4.737-5.95 3.578 0 5.318 2.118 5.318 6.477v11.285c0 2.985 2.3 5.071 5.6 5.071h2.331v-16.988c-.002-8.967-6.364-12.982-12.669-12.982z" transform="translate(-12.793 1.562)"/><path d="m87.709 93.767c-5.086-.829-5.333-1.412-5.333-2.371 0-1.173.546-2.733 5.264-2.733 3.125 0 6.34 1.033 7.816 2.511l.126.126h.873v-3.12c0-3.129-2.973-6.5-9.5-6.5-7.13 0-12.506 4.426-12.506 10.292 0 4.485 3.037 7.092 9.284 7.968 5.149.72 5.535 1.531 5.535 2.685s-.492 2.68-4.737 2.68c-3.433 0-6.891-1.308-8.252-2.573l-.124-.116h-.863v3.647c0 3.321 4.287 6.022 9.555 6.022 7.814 0 12.3-3.656 12.3-10.03-.004-4.625-3.179-7.483-9.438-8.488z" transform="translate(-5.632 1.562)"/><path d="m98.321 88.584v23.116h2.435c3.544 0 5.5-2.026 5.5-5.705v-23.115h-2.435c-3.549 0-5.5 2.026-5.5 5.704z" transform="translate(-2.083 1.739)"/><path d="m14.536 88.584v23.116h2.435c3.542 0 5.494-2.026 5.494-5.705v-23.115h-2.435c-3.544 0-5.494 2.026-5.494 5.704z" transform="translate(-14.536 1.739)"/><path d="m118.17 76.635h-2.07a5.275 5.275 0 0 0 -3.65 2.1 7.517 7.517 0 0 0 -2.159 5.922v17.086c0 7.079 3.936 10.979 11.085 10.979 4.229 0 6.655-1.887 6.655-5.177v-2.962h-.817l-.1.064a9.714 9.714 0 0 1 -4.891.937c-2.8 0-4.052-1.444-4.052-4.684v-10.7h5.214c3.021 0 4.651-1.961 4.651-3.807v-3.325h-9.866z" transform="translate(-.304 .811)"/><path d="m148.24 82.236h-1.694v16.41c0 4.2-1.566 6.424-4.528 6.424-3.429 0-5.317-2.451-5.317-6.9v-10.44c0-3.646-2.116-5.494-6.288-5.494h-1.748v16.621c0 7.985 5.217 13.352 12.985 13.352 8.545 0 12.876-4.652 12.876-13.827v-10.652c0-3.696-2.056-5.494-6.286-5.494z" transform="translate(2.426 1.643)"/><path d="m19.2 72.929a4.571 4.571 0 0 0 0 9.142 4.659 4.659 0 0 0 4.6-4.6 4.577 4.577 0 0 0 -4.6-4.542z" transform="translate(-14.517 .26)"/><path d="m102.315 109.874a4.571 4.571 0 1 0 4.6 4.6 4.659 4.659 0 0 0 -4.6-4.6z" transform="translate(-2.165 5.751)"/></g></svg>