<?xml version="1.0" standalone="no"?>
<!DOCTYPE svg PUBLIC "-//W3C//DTD SVG 1.1//EN" "http://www.w3.org/Graphics/SVG/1.1/DTD/svg11.dtd" >
<svg xmlns="http://www.w3.org/2000/svg">
<metadata>
Created by FontPrep 20130207 at Mon Sep  7 10:16:25 2020
 By stephanie vachon
2005 Evert Bloemsma published by FSI FontShop International GmbH
</metadata>
<defs>
<font id="02b33dc7c8833b96f84a5b83a0fddbfb" horiz-adv-x='1024' >
  <font-face 
    font-family="CoconOT-Bold"
    font-weight="700"
    font-stretch="normal"
    units-per-em="2048"
    panose-1="2 1 8 4 4 1 1 2 1 4"
    ascent="1675"
    descent="-373"
    x-height="1126"
    cap-height="1413"
    bbox="-225.014 -596 3011.01 1946"
    underline-thickness="186"
    underline-position="-317"
    unicode-range="U+000D-FB02"
  />
<missing-glyph horiz-adv-x="1347" 
d="M293 186h762v1061h-762v-1061zM106 0v1434h1135v-1434h-1135z" />
    <glyph glyph-name="fi" unicode="fi" horiz-adv-x="1497" 
d="M1479 164q0 -180 -224 -180q-166 0 -267 90t-101 278v740h96q166 0 229 -58t64 -211v-413q0 -74 36 -103t120 -28h47v-115zM795 1233h-11q-60 31 -136 31t-114 -35t-38 -86v-133h258v-142q0 -57 -47 -91t-121 -34h-90v-743h-119q-137 0 -199 57q-61 57 -61 185v776
q0 260 128 389t308 129q242 0 242 -213v-90zM1274 1382q0 -80 -60 -136t-143 -56q-84 0 -144 56t-61 136q0 80 60 136t145 57q83 -1 143 -57t60 -136z" />
    <glyph glyph-name="fl" unicode="fl" horiz-adv-x="1531" 
d="M1526 164q0 -94 -74 -137t-180 -43q-166 0 -276 99t-109 290v1143h137q129 0 190 -64t62 -205v-817q0 -74 40 -102t124 -29h86v-135zM815 1233h-10q-59 31 -145 31t-126 -34q-38 -34 -38 -87v-133h258v-142q0 -57 -47 -91t-121 -34h-90v-743h-119q-137 0 -199 57
q-61 57 -61 185v776q0 144 40 250t107 162q131 106 299 106q252 0 252 -213v-90z" />
    <glyph glyph-name=".notdef" horiz-adv-x="1347" 
d="M293 186h762v1061h-762v-1061zM106 0v1434h1135v-1434h-1135z" />
    <glyph glyph-name=".null" horiz-adv-x="0" 
 />
    <glyph glyph-name=".null" horiz-adv-x="0" 
 />
    <glyph glyph-name="nonmarkingreturn" horiz-adv-x="681" 
 />
    <glyph glyph-name="CR" unicode="&#xd;" horiz-adv-x="471" 
 />
    <glyph glyph-name="space" unicode=" " horiz-adv-x="471" 
 />
    <glyph glyph-name="exclam" unicode="!" horiz-adv-x="643" 
d="M115 219q0 90 64 155q65 64 155 64t154 -64t65 -155q0 -91 -65 -155q-64 -64 -154 -64t-154 64t-65 155zM348 553q-92 0 -145 57t-58 150l-24 651h182q93 -1 145 -55t52 -150l-25 -653h-127z" />
    <glyph glyph-name="quotedbl" unicode="&#x22;" horiz-adv-x="866" 
d="M254 827q-160 0 -182 203l-39 383h176q80 0 132 -49t52 -133q0 -11 -2 -29l-41 -375h-96zM686 827q-84 1 -129 57t-55 146l-39 383h176q80 0 132 -49t52 -133q0 -13 -2 -29l-41 -375h-94z" />
    <glyph glyph-name="numbersign" unicode="#" 
d="M733 821h-155l-35 -211h157zM1223 981q0 -76 -45 -118t-129 -42h-27l-35 -211h176v-92q0 -76 -45 -117t-129 -41h-45l-61 -360h-115q-78 0 -117 40t-39 90t4 71l29 159h-158l-63 -360h-115q-77 0 -115 40t-38 91t4 72l28 157h-155v91q0 160 155 159h41l35 211h-172v92
q0 74 45 116t131 42h37l60 340h92q84 0 130 -42t46 -116q0 -12 -4 -36l-25 -146h158l61 340h92q82 0 129 -45t48 -117q0 -12 -5 -41l-24 -137h160v-90z" />
    <glyph glyph-name="dollar" unicode="$" 
d="M1106 971q-118 135 -420 135q-136 0 -186 -34t-49 -89q0 -55 47 -77t239 -58q416 -75 416 -399q0 -183 -104 -305t-297 -158v-254h-86q-166 0 -166 137v115q-186 16 -286 100q-99 84 -99 219v135h10q61 -66 182 -102t253 -37q132 0 178 31t46 92t-56 91t-236 60
q-410 72 -410 381q0 164 108 288q109 124 310 159v235h123q61 0 95 -36t34 -99v-98q186 -20 275 -95t89 -178v-159h-10z" />
    <glyph glyph-name="percent" unicode="%" horiz-adv-x="2191" 
d="M1825 418q0 244 -115 244q-45 0 -74 -54t-28 -159q0 -248 116 -248q45 -1 73 55t28 162zM561 956q0 246 -115 246q-46 0 -74 -55t-28 -160q0 -246 117 -246q45 1 73 55t27 160zM1716 897q186 1 292 -133t106 -330t-106 -331q-106 -136 -290 -136q-186 0 -292 133
q-105 133 -105 329t105 332q104 136 290 136zM1509 1278q0 -57 -30 -119l-598 -1159h-97q-63 0 -105 33t-42 93t31 122l604 1171h96q59 0 100 -42t41 -99zM850 974q0 -194 -106 -330t-290 -136q-186 0 -291 132t-105 328t104 332q106 138 292 138t290 -134
q106 -136 106 -330z" />
    <glyph glyph-name="ampersand" unicode="&#x26;" horiz-adv-x="1449" 
d="M416 434q0 -184 182 -184q92 0 139 51q-41 41 -128 142t-117 149q-76 -66 -76 -158zM721 1090q-1 56 -21 78t-67 22q-92 0 -92 -111q0 -74 61 -159q119 59 119 170zM1419 158q0 -190 -196 -191q-115 0 -211 68q-41 31 -74 63q-126 -131 -356 -131t-376 110t-147 320
q0 125 70 233t195 183q-115 158 -115 254q0 161 117 271t305 110q189 0 289 -92t100 -248q0 -229 -279 -381q96 -127 201 -231q117 139 117 323h78q65 0 111 -44t46 -116q0 -166 -159 -354q113 -113 274 -112h10v-35z" />
    <glyph glyph-name="quotesingle" unicode="'" horiz-adv-x="643" 
d="M365 827q-160 0 -183 203l-39 383h174q81 0 133 -49t52 -133q0 -15 -2 -29l-39 -375h-96z" />
    <glyph glyph-name="parenleft" unicode="(" horiz-adv-x="815" 
d="M846 -348h-123q-229 0 -365 153q-102 115 -179 309t-77 447q0 520 279 825q119 129 342 130h121v-11q-135 -115 -243 -357q-107 -242 -107 -562q0 -318 108 -571t244 -353v-10z" />
    <glyph glyph-name="parenright" unicode=")" horiz-adv-x="815" 
d="M-33 1516h123q227 0 365 -154q102 -114 179 -308t77 -448q0 -520 -279 -825q-115 -129 -342 -129h-121v10q135 116 243 358t108 560t-108 572q-108 253 -245 353v11z" />
    <glyph glyph-name="asterisk" unicode="*" horiz-adv-x="1134" 
d="M991 778h10q-82 -148 -146 -179q-32 -15 -70 -15q-37 0 -79 20t-62 51t-42 116t-29 97q-59 -76 -76 -138t-18 -163q-113 0 -187 49t-75 142q0 43 22 80t42 53t69 45t64 39q-92 33 -169 33t-157 -35q0 117 44 214t140 97q51 0 88 -22t77 -64q40 -41 65 -59l2 32
q0 182 -121 304q117 39 185 39t128 -43q60 -42 60 -110t-30 -137t-38 -87q70 16 147 76t113 135q104 -140 104 -224t-44 -130q-45 -46 -123 -46l-137 8h-19q74 -96 128 -137t134 -41z" />
    <glyph glyph-name="plus" unicode="+" horiz-adv-x="1212" 
d="M1155 602q0 -72 -58 -121t-151 -49h-174v-407h-141q-74 0 -126 55t-52 141v211h-392v152q1 61 51 108t126 47h215v373h157q66 0 114 -49t48 -121v-203h383v-137z" />
    <glyph glyph-name="comma" unicode="," horiz-adv-x="704" 
d="M565 162q-1 -176 -109 -302t-261 -126h-64v18q49 28 90 96t41 132t-51 106q-74 66 -74 150q1 84 57 138t154 54t158 -72t59 -194z" />
    <glyph glyph-name="hyphen" unicode="-" horiz-adv-x="784" 
d="M707 756v-111q0 -59 -41 -103t-103 -44h-491v104q0 154 164 154h471z" />
    <glyph glyph-name="period" unicode="." horiz-adv-x="491" 
d="M115 219q0 90 64 155q65 64 155 64t154 -64t65 -155q0 -91 -65 -155q-64 -64 -154 -64t-154 64t-65 155z" />
    <glyph glyph-name="slash" unicode="/" horiz-adv-x="989" 
d="M815 1516q59 0 96 -46t37 -110t-30 -127l-633 -1233h-97q-59 0 -96 46t-37 110t31 127l633 1233h96z" />
    <glyph glyph-name="zero" unicode="0" 
d="M444 715q0 -233 50 -329t144 -95q95 0 136 86q41 87 41 327t-44 328t-138 88q-93 0 -141 -86t-48 -319zM1204 731q0 -373 -136 -569t-447 -195q-223 0 -391 176q-81 85 -128 225t-47 314q0 389 154 576q154 188 423 188q268 0 420 -171t152 -544z" />
    <glyph glyph-name="one" unicode="1" 
d="M920 0h-183q-90 0 -148 58t-59 157v811l-129 -41q-43 -12 -95 -12q-52 1 -95 29t-51 77l-25 135l371 156q98 43 227 43q74 0 130 -48t57 -128v-1237z" />
    <glyph glyph-name="two" unicode="2" 
d="M1157 180q0 -180 -215 -180h-688q-78 0 -133 46t-55 120q0 170 249 366l326 254q92 72 92 172q0 168 -203 168q-297 0 -428 -170h-10v125q0 158 126 261q126 104 376 104t392 -132t142 -298t-63 -254t-254 -221l-217 -152q-57 -41 -88 -76h651v-133z" />
    <glyph glyph-name="three" unicode="3" 
d="M1135 430q0 -223 -155 -343t-435 -120q-188 0 -315 74q-126 74 -126 229v150h11q63 -66 178 -103t246 -36q227 0 227 129q0 86 -51 122t-213 46t-162 147v86l195 16q145 13 184 49t39 103q0 154 -262 154q-231 0 -375 -144h-10v158q0 121 127 210t356 89t381 -114
t151 -304q0 -215 -208 -315q84 -25 150 -106t67 -177z" />
    <glyph glyph-name="four" unicode="4" 
d="M614 627v374q-70 -87 -138 -195t-97 -179h235zM1214 479q0 -72 -44 -118t-117 -46h-54v-315h-186q-100 0 -149 44t-50 144v127h-383q-83 0 -149 47t-66 117q0 109 54 209q111 207 294 438t293 304h123q96 0 158 -62t61 -168v-569h215v-152z" />
    <glyph glyph-name="five" unicode="5" 
d="M1165 465q0 -233 -158 -366q-159 -132 -421 -132q-465 0 -465 297v137h10q127 -121 393 -121t267 171q-1 71 -63 109t-239 38t-346 -31v543q-1 156 61 230t208 73h708v-117q0 -92 -61 -144t-174 -52h-377v-217q61 4 131 4q223 1 375 -111t151 -311z" />
    <glyph glyph-name="six" unicode="6" 
d="M457 506q0 -233 194 -234q78 0 123 47t45 141t-46 134q-46 41 -134 41t-135 -45t-47 -84zM621 -33q-250 0 -396 177q-145 177 -145 532q0 354 176 562t492 208q170 0 273 -76t103 -203v-127h-10q-123 100 -346 101q-135 0 -217 -82t-88 -234q33 47 111 79t139 32
q225 0 350 -122t125 -326t-128 -355q-64 -76 -178 -121t-261 -45z" />
    <glyph glyph-name="seven" unicode="7" 
d="M1174 1222q0 -93 -132 -315l-249 -415q-43 -72 -72 -165t-29 -161v-166h-182q-213 0 -213 197q0 182 123 381l203 331q59 94 92 178h-649v117q0 98 55 154t160 55h677q102 0 159 -49t57 -142z" />
    <glyph glyph-name="eight" unicode="8" 
d="M799 438q0 56 -44 98t-125 42t-128 -42t-47 -98q0 -170 172 -170t172 170zM627 1145q-96 0 -130 -40q-34 -41 -34 -105t39 -103t125 -39t125 39t39 103t-34 105q-34 40 -130 40zM1167 416q0 -201 -140 -325q-139 -124 -399 -124t-400 118t-140 318q0 93 67 185t150 123
q-86 33 -147 113t-62 188q0 202 156 318t378 116t376 -111t153 -311q1 -106 -65 -190t-144 -111q74 -27 146 -120t71 -187z" />
    <glyph glyph-name="nine" unicode="9" 
d="M803 881q0 135 -44 192q-45 57 -133 57t-137 -50t-49 -139t49 -142t131 -53t132 44t51 91zM1178 772q0 -805 -596 -805q-201 0 -319 80t-118 211v148h11q133 -133 399 -134q244 0 250 281q-29 -43 -88 -69t-137 -26q-181 1 -329 87q-83 47 -132 142t-49 231
q0 224 152 376t425 152q212 0 365 -147q78 -75 122 -210t44 -317z" />
    <glyph glyph-name="colon" unicode=":" horiz-adv-x="702" 
d="M131 219q0 90 65 155q64 64 154 64t155 -64t65 -155t-66 -155q-64 -64 -154 -64t-154 64t-65 155zM131 907q0 90 65 155q64 64 154 64t155 -64t65 -155t-66 -155q-64 -64 -154 -64t-154 64t-65 155z" />
    <glyph glyph-name="semicolon" unicode=";" horiz-adv-x="702" 
d="M582 162q0 -176 -109 -302t-262 -126h-64v18q49 28 91 96t41 132q0 64 -52 106q-73 66 -73 150t56 138t154 54t158 -72t60 -194zM131 907q0 90 65 155q64 64 154 64t155 -64t65 -155t-66 -155q-64 -64 -154 -64t-154 64t-65 155z" />
    <glyph glyph-name="less" unicode="&#x3c;" horiz-adv-x="1212" 
d="M1122 1018q0 -80 -45 -146t-135 -94q-305 -100 -446 -157q90 -47 306 -133t310 -113v-94q0 -145 -147 -146q-82 0 -200 42t-342 154t-360 206v61q0 119 138 184q203 98 468 202t453 144v-110z" />
    <glyph glyph-name="equal" unicode="=" 
d="M952 303h-831v119q0 70 53 113t133 43h830v-127q-1 -72 -57 -110t-128 -38zM952 723h-831v123q0 70 53 112t133 43h830v-127q-1 -66 -57 -108t-128 -43z" />
    <glyph glyph-name="greater" unicode="&#x3e;" horiz-adv-x="1212" 
d="M84 242q0 80 45 146t135 93q305 100 447 158q-91 47 -307 133t-310 113v94q0 145 148 145q86 0 202 -42t340 -153q224 -112 359 -206v-61q0 -72 -37 -113t-100 -72q-203 -97 -468 -201t-454 -145v111z" />
    <glyph glyph-name="question" unicode="?" horiz-adv-x="1024" 
d="M227 219q0 90 65 155q64 64 154 64t155 -64t65 -155t-65 -155t-155 -64t-154 64t-65 155zM543 582v-62h-135q-86 0 -130 41t-45 105q0 111 76 178l191 168q41 35 41 114q0 51 -44 84t-126 33q-207 0 -297 -123h-11v123q0 123 111 214q110 91 306 91t322 -112t126 -275
q0 -201 -127 -299l-187 -141q-41 -29 -56 -59t-15 -80z" />
    <glyph glyph-name="at" unicode="@" horiz-adv-x="1705" 
d="M890 948q-54 0 -110 -67q-55 -67 -55 -185t70 -118q77 0 115 78t69 270q-35 22 -89 22zM1241 553q55 0 110 82q54 82 54 244q0 203 -128 329t-370 127q-242 0 -419 -175t-177 -462q-1 -246 145 -383t390 -137t434 74v-70q0 -143 -135 -183t-348 -40q-307 0 -526 199
q-218 200 -218 540t248 597t637 257q313 0 516 -188t203 -477q0 -248 -137 -407t-342 -158q-141 0 -193 155q-96 -162 -256 -162q-117 0 -209 108t-92 261q0 217 143 368t363 150q106 0 210 -61t103 -127q1 -66 -27 -210q-28 -145 -28 -180t14 -53t35 -18z" />
    <glyph glyph-name="A" unicode="A" horiz-adv-x="1372" 
d="M827 639q-76 256 -159 422q-90 -172 -164 -422h323zM1186 0q-109 0 -165 38q-57 38 -75 129t-39 167h-487q-25 -84 -72 -334h-158q-180 0 -180 175t172 617t342 621h152q184 0 274 -147q115 -190 241 -560t171 -706h-176z" />
    <glyph glyph-name="B" unicode="B" horiz-adv-x="1357" 
d="M887 446q0 84 -43 117t-152 33h-180v-219q0 -61 70 -62h125q180 0 180 131zM866 999q0 121 -174 121h-86q-43 0 -96 -8v-252h172q184 0 184 139zM1276 436q0 -217 -160 -335t-383 -117h-153q-217 0 -337 92t-120 270v1016q82 28 214 50t222 22h172q223 0 371 -108
t149 -294q-1 -96 -71 -181t-160 -110q102 -31 179 -122t77 -183z" />
    <glyph glyph-name="C" unicode="C" horiz-adv-x="1333" 
d="M1282 965h-10q-51 69 -166 107t-238 38q-174 0 -286 -105t-111 -295q0 -190 113 -298t293 -109q113 0 225 38t164 93h10v-145q0 -139 -127 -231t-332 -91q-303 0 -519 201t-216 522q0 320 208 538t552 218q204 0 322 -92t118 -244v-145z" />
    <glyph glyph-name="D" unicode="D" horiz-adv-x="1474" 
d="M657 295q167 -1 257 109t90 304t-98 303q-98 110 -251 109h-82q-20 0 -61 -8v-725q0 -39 23 -65t59 -27h63zM1393 729q1 -327 -191 -537t-493 -210h-140q-203 0 -325 83t-121 259v1042q77 29 197 48t206 20h148q276 0 488 -171q103 -83 167 -221t64 -313z" />
    <glyph glyph-name="E" unicode="E" horiz-adv-x="1241" 
d="M1178 188q0 -102 -75 -154t-255 -52h-160q-281 0 -428 144t-147 435v238q0 217 24 381q35 233 273 233h770v-92q0 -105 -58 -165t-178 -60h-430q-14 -121 -14 -240h547v-141q1 -78 -55 -119t-158 -41h-334v-51q0 -117 50 -161t195 -44h103q174 0 330 39v-150z" />
    <glyph glyph-name="F" unicode="F" horiz-adv-x="1103" 
d="M1094 1276q0 -70 -54 -126t-151 -56h-377v-265h498v-120q0 -78 -48 -127t-120 -50h-322v-532h-188q-96 0 -152 48q-55 48 -55 145v964q0 256 285 256h684v-137z" />
    <glyph glyph-name="G" unicode="G" horiz-adv-x="1435" 
d="M1333 348q0 -381 -516 -381q-307 0 -521 201q-214 202 -214 524t218 538t583 216q199 0 309 -87t111 -214v-141h-11q-137 125 -420 124q-168 0 -284 -108t-117 -312t105 -314t274 -109q78 -1 100 21t21 67v157q0 115 -27 195h199q90 0 140 -52t50 -136v-189z" />
    <glyph glyph-name="H" unicode="H" horiz-adv-x="1484" 
d="M1362 0h-168q-86 0 -154 59t-67 160v359h-459v-578h-172q-86 0 -153 58t-66 161v1194h201q78 0 133 -52t55 -130v-342h461v524h190q76 0 137 -50t62 -132v-1231z" />
    <glyph glyph-name="I" unicode="I" horiz-adv-x="675" 
d="M532 0h-208q-72 0 -126 58t-55 161v1194h217q64 0 118 -51t54 -131v-1231z" />
    <glyph glyph-name="J" unicode="J" horiz-adv-x="919" 
d="M776 444q0 -221 -114 -343t-345 -121q-141 0 -224 59t-83 156v163h13q78 -63 215 -63q150 0 149 154v964h137q111 0 182 -59t70 -164v-746z" />
    <glyph glyph-name="K" unicode="K" horiz-adv-x="1468" 
d="M281 1413q119 1 185 -65t66 -156v-375q154 217 225 307t151 172t128 100q49 18 142 17h284v-10q-266 -254 -559 -643q16 -23 56 -79t62 -87t69 -94t123 -144q75 -82 119 -112t118 -45q-33 -119 -85 -166t-132 -47t-151 28t-113 76q-184 203 -437 582v-672h-155
q-117 0 -175 66t-59 157v1190h138z" />
    <glyph glyph-name="L" unicode="L" horiz-adv-x="1138" 
d="M1128 217q0 -233 -309 -233h-164q-266 0 -389 133t-123 403v893h164q225 0 225 -239v-627q0 -139 48 -189t178 -51h61q199 0 299 43h10v-133z" />
    <glyph glyph-name="M" unicode="M" horiz-adv-x="2017" 
d="M1905 0h-166q-104 0 -169 57t-65 164q0 375 -35 699l-194 -594q-68 -205 -141 -326h-109q-104 0 -183 89t-143 298l-71 236q-51 170 -101 301q-43 -424 -43 -924h-145q-94 0 -161 60t-66 161q0 297 34 630q35 333 89 562h135q297 0 391 -231l110 -275q98 -246 138 -399
q53 180 116 332l136 323q70 166 170 250h71q289 0 330 -315q72 -537 72 -1098z" />
    <glyph glyph-name="N" unicode="N" horiz-adv-x="1484" 
d="M1382 0h-153q-127 0 -227 68q-99 68 -191 231l-240 434q-59 82 -69 117v-850h-160q-86 0 -153 58t-66 159v1196h188q293 0 441 -291l262 -512v803h172q76 0 136 -50t60 -132v-1231z" />
    <glyph glyph-name="O" unicode="O" horiz-adv-x="1564" 
d="M1094 710q0 420 -328 420q-141 0 -218 -110t-77 -293q0 -442 328 -442q135 0 215 107t80 318zM805 1446q276 0 477 -194t201 -537q1 -342 -189 -545t-532 -203q-295 0 -488 198q-192 197 -192 533t192 542q193 206 531 206z" />
    <glyph glyph-name="P" unicode="P" horiz-adv-x="1243" 
d="M834 942q0 104 -42 144t-124 40h-78q-33 0 -78 -10v-315q55 -18 147 -19q175 0 175 160zM1223 970q0 -220 -151 -360t-376 -141q-121 0 -184 20v-489h-174q-86 0 -151 61t-64 181v1132q258 59 422 60h157q227 0 374 -122t147 -342z" />
    <glyph glyph-name="Q" unicode="Q" horiz-adv-x="1595" 
d="M811 264q117 0 200 114t83 334t-82 317t-236 97t-230 -110q-75 -110 -75 -283q0 -237 89 -353t251 -116zM1430 -209q-377 0 -789 180q-251 68 -405 252t-154 487t172 513q86 104 230 163t333 60q260 0 463 -193t203 -520q-1 -256 -105 -400t-264 -200q62 -23 200 -42
t251 -19v-125q0 -70 -39 -113t-96 -43z" />
    <glyph glyph-name="R" unicode="R" horiz-adv-x="1347" 
d="M670 1126h-80q-20 0 -78 -8v-311q46 -6 140 -6t138 49t44 115q0 161 -164 161zM1118 -10q-188 0 -254 149l-104 230q-41 87 -78 117t-109 38l-61 6v-530h-150q-113 0 -176 61t-63 162v1149q70 25 203 43t221 19h158q229 0 373 -116t145 -306q0 -137 -77 -246t-181 -133
q49 -23 82 -65t73 -130l109 -229q63 -131 98 -172v-10q-70 -37 -209 -37z" />
    <glyph glyph-name="S" unicode="S" horiz-adv-x="1261" 
d="M1184 449q0 -221 -156 -351t-436 -131q-231 0 -355 84t-124 238v139h10q63 -66 186 -104t251 -39q128 1 181 33t53 98t-60 98q-62 31 -232 66q-229 45 -328 136q-98 91 -98 253q0 197 164 337t415 140t371 -90t119 -213v-150h-10q-68 68 -181 102t-231 33
q-258 0 -258 -131q0 -53 52 -84t255 -71q204 -40 308 -136q104 -95 104 -257z" />
    <glyph glyph-name="T" unicode="T" horiz-adv-x="1251" 
d="M1231 1276q0 -70 -66 -129t-151 -60h-201v-1087h-170q-96 0 -158 49q-61 49 -61 154v884h-404v136q0 72 60 130t160 58h991v-135z" />
    <glyph glyph-name="U" unicode="U" horiz-adv-x="1519" 
d="M1397 604q0 -281 -170 -459t-486 -178q-274 0 -446 171t-172 454v821h166q100 0 162 -65q61 -66 61 -203v-541q0 -176 62 -247t204 -70q229 0 230 307v819h166q114 0 168 -61t55 -199v-549z" />
    <glyph glyph-name="V" unicode="V" horiz-adv-x="1380" 
d="M711 -16q-70 0 -115 28t-90 97q-172 264 -302 610t-184 694h218q92 0 152 -54t75 -126q29 -145 95 -349t142 -370q86 174 164 430t113 469h197q74 0 124 -44q50 -45 50 -107t-80 -304t-223 -542q-143 -301 -244 -432h-92z" />
    <glyph glyph-name="W" unicode="W" horiz-adv-x="2097" 
d="M1468 -16q-111 0 -174 106q-145 238 -239 604q-41 -168 -129 -376t-174 -334h-107q-115 0 -178 106q-344 573 -447 1323h226q88 0 147 -48t76 -140q53 -317 182 -637q162 391 232 776h135q227 0 274 -219q57 -262 183 -557q162 406 221 825h196q76 0 125 -48t49 -126
q0 -30 -6 -63q-59 -266 -198 -614t-287 -578h-107z" />
    <glyph glyph-name="X" unicode="X" horiz-adv-x="1499" 
d="M252 0q-154 0 -154 172q0 89 64 207q18 35 45 71l45 60q18 26 54 66t50 56t58 62q43 45 53 56l-158 215q-199 270 -243 448h243q74 0 145 -47t169 -190l131 -193q141 162 192 245t78 185h139q84 0 125 -47t41 -121q0 -137 -371 -553q115 -166 183 -256q135 -180 313 -315
q-62 -74 -116 -105q-54 -30 -152 -30t-187 63q-88 63 -192 213l-137 197q-111 -133 -164 -237t-86 -222h-168z" />
    <glyph glyph-name="Y" unicode="Y" horiz-adv-x="1288" 
d="M1268 1288q0 -82 -154 -322t-270 -374v-592h-170q-86 0 -153 58t-66 159v377q-131 164 -252 381t-193 438h197q88 0 149 -36t84 -85q92 -203 228 -397q188 266 268 518h184q66 0 107 -38t41 -87z" />
    <glyph glyph-name="Z" unicode="Z" horiz-adv-x="1312" 
d="M1239 186q0 -78 -58 -132t-147 -54h-778q-59 0 -121 53q-61 53 -61 137t43 165t172 223l329 362q57 61 103 141h-643v117q0 102 64 159q65 56 190 56h645q106 0 172 -53q65 -53 65 -141t-28 -161t-115 -169l-328 -375q-133 -150 -159 -188h655v-140z" />
    <glyph glyph-name="bracketleft" unicode="[" horiz-adv-x="655" 
d="M651 -348h-508v1864h377q49 0 90 -36t41 -108v-76h-262v-1425h131q59 0 95 -38t36 -107v-74z" />
    <glyph glyph-name="backslash" unicode="\" horiz-adv-x="989" 
d="M799 0q-199 0 -277 203l-463 1210h160q178 0 238 -156l481 -1257h-139z" />
    <glyph glyph-name="bracketright" unicode="]" horiz-adv-x="655" 
d="M27 1516h508v-1864h-377q-49 0 -90 36t-41 107v76h262v1425h-131q-59 0 -96 38q-36 38 -35 108v74z" />
    <glyph glyph-name="asciicircum" unicode="^" horiz-adv-x="1005" 
d="M809 907q-117 0 -150 86q-16 45 -73 143t-82 126q-37 -45 -117 -169t-113 -196h-47q-123 0 -123 96q0 10 35 85t131 214t185 226h49q58 0 120 -76t166 -260t136 -275h-117z" />
    <glyph glyph-name="underscore" unicode="_" horiz-adv-x="1157" 
d="M1157 -596h-1157v186h1157v-186z" />
    <glyph glyph-name="grave" unicode="`" horiz-adv-x="1083" 
d="M717 1290h-94q-199 0 -308 45q-51 19 -88 71t-37 108t35 91q35 34 97 33q134 0 240 -110t155 -228v-10z" />
    <glyph glyph-name="a" unicode="a" horiz-adv-x="1196" 
d="M735 379v84h-78q-207 0 -206 -113q0 -109 153 -108q131 0 131 137zM1104 496q0 -305 -116 -416t-425 -111q-263 0 -404 154q-77 84 -77 205q0 190 143 283t447 94h55v47q0 66 -52 90t-185 24t-210 -30t-147 -93h-10v138q0 115 120 197q119 82 353 81q234 0 371 -124
t137 -365v-174z" />
    <glyph glyph-name="b" unicode="b" horiz-adv-x="1386" 
d="M915 539q0 315 -210 315q-93 0 -153 -79t-60 -216q0 -295 219 -295q94 0 149 73t55 202zM776 1159q236 -1 382 -155t147 -428q0 -274 -172 -441q-172 -166 -451 -166q-279 1 -424 145t-145 398v1004h94q160 0 221 -54t61 -192v-264q57 76 119 114t168 39z" />
    <glyph glyph-name="c" unicode="c" horiz-adv-x="1079" 
d="M1028 758h-10q-28 30 -100 54t-150 24q-141 0 -219 -68t-78 -198t73 -200q72 -71 220 -71t258 63h4v-116q0 -113 -103 -192t-255 -79q-258 0 -422 161t-164 418t167 430t453 173q134 0 230 -77t96 -185v-137z" />
    <glyph glyph-name="d" unicode="d" horiz-adv-x="1390" 
d="M897 537q0 177 -60 249t-175 72q-80 0 -136 -78t-57 -220q0 -142 66 -218t178 -76q184 1 184 271zM1284 590q0 -315 -143 -469t-471 -154q-246 0 -417 172t-171 406q0 279 152 447t380 167q104 0 182 -42t109 -109v508h139q240 0 240 -273v-653z" />
    <glyph glyph-name="e" unicode="e" 
d="M608 674q129 0 173 18t44 63q0 44 -42 80t-121 35q-186 0 -205 -196h151zM1186 709q0 -165 -127 -225t-424 -60h-168q33 -166 279 -166t354 72h14v-90q0 -119 -106 -196t-332 -77q-282 0 -438 164t-156 418t162 433t404 179q242 1 390 -121t148 -331z" />
    <glyph glyph-name="f" unicode="f" horiz-adv-x="774" 
d="M836 1233h-11q-59 31 -151 31t-134 -35q-44 -35 -44 -86v-133h258v-142q0 -57 -47 -91t-121 -34h-90v-743h-119q-137 0 -199 57q-61 57 -61 185v776q0 144 40 250t109 162q135 106 288 106q154 0 218 -59t64 -154v-90z" />
    <glyph glyph-name="g" unicode="g" horiz-adv-x="1323" 
d="M831 633q0 213 -177 213q-89 0 -137 -54t-48 -153q0 -229 195 -229q80 0 124 57t43 166zM596 109q-229 0 -372 121q-142 122 -142 366t173 404t439 159q266 0 390 -134q126 -134 126 -372v-297l7 -235q0 -211 -164 -352q-163 -141 -407 -141t-355 82q-111 83 -111 204
v121h13q111 -100 382 -101q119 0 186 58t66 153l-4 66v39q-19 -57 -83 -99t-144 -42z" />
    <glyph glyph-name="h" unicode="h" horiz-adv-x="1363" 
d="M1257 0h-149q-143 0 -192 58q-48 58 -48 178v376q0 231 -168 232q-108 0 -148 -56t-40 -184v-604h-131q-137 0 -198 57q-60 57 -60 179v1280h125q122 0 188 -58t66 -166v-291q100 158 329 158q179 0 303 -130t123 -351v-678z" />
    <glyph glyph-name="i" unicode="i" horiz-adv-x="749" 
d="M729 164q0 -180 -223 -180q-166 0 -267 90t-102 278v740h96q165 0 229 -58t64 -211v-413q0 -74 36 -103t120 -28h47v-115zM524 1382q0 -80 -59 -136t-143 -56t-145 56q-60 56 -60 136t60 136q61 56 145 57q84 -1 143 -57t59 -136z" />
    <glyph glyph-name="j" unicode="j" horiz-adv-x="665" 
d="M543 109q0 -227 -119 -361t-348 -133q-84 0 -142 42q-57 42 -57 112v114l43 2q129 5 184 55t56 185v967h114q139 0 204 -71t65 -190v-722zM549 1382q-1 -80 -61 -136t-144 -56t-144 56t-61 136q1 80 61 136t144 57q84 -1 144 -57t61 -136z" />
    <glyph glyph-name="k" unicode="k" horiz-adv-x="1290" 
d="M272 1516q124 0 182 -66t58 -162v-641q203 303 297 404q39 43 81 59t126 16h272v-10q-62 -66 -206 -236t-214 -272q154 -231 212 -298q58 -66 94 -88t108 -38q-10 -94 -72 -144t-166 -50q-51 0 -109 19t-93 61t-69 84q-65 82 -134 188q-68 106 -127 195v-537h-154
q-106 0 -171 63t-64 166v1287h149z" />
    <glyph glyph-name="l" unicode="l" horiz-adv-x="761" 
d="M756 164q0 -94 -74 -137t-180 -43q-166 0 -276 99t-109 290v1143h137q129 0 190 -64t62 -205v-817q0 -74 40 -102t124 -29h86v-135z" />
    <glyph glyph-name="m" unicode="m" horiz-adv-x="1980" 
d="M1874 0h-135q-145 0 -200 56q-54 56 -54 171v416q0 109 -38 154t-124 45q-145 0 -145 -193v-649h-136q-125 0 -183 50t-58 177v426q0 188 -154 189q-82 0 -117 -45t-34 -150v-647h-136q-254 0 -254 227v396q0 250 142 393t405 143q123 0 219 -62t127 -139q47 76 145 138
t208 63q248 0 385 -142t137 -405v-612z" />
    <glyph glyph-name="n" unicode="n" horiz-adv-x="1347" 
d="M1241 0h-164q-129 0 -177 50t-48 179v396q0 115 -42 167t-133 52q-181 0 -181 -213v-631h-131q-258 0 -259 229v396q0 244 154 389t420 145q561 0 561 -545v-614z" />
    <glyph glyph-name="o" unicode="o" horiz-adv-x="1359" 
d="M893 556q0 134 -59 214q-58 80 -152 80t-154 -77t-61 -189q0 -311 223 -312q92 0 148 75q55 75 55 209zM82 554q0 261 172 432t425 171t426 -164q173 -165 173 -431t-162 -430t-450 -163q-244 0 -414 162t-170 423z" />
    <glyph glyph-name="p" unicode="p" horiz-adv-x="1388" 
d="M727 270q91 0 141 75t50 227t-56 221q-56 70 -178 69q-82 0 -137 -74t-55 -194q0 -324 235 -324zM729 1159q252 -1 415 -157t163 -428q-1 -272 -149 -439q-148 -168 -384 -168q-199 0 -289 154v-469h-141q-238 0 -238 272v596q0 303 162 471t461 168z" />
    <glyph glyph-name="q" unicode="q" horiz-adv-x="1388" 
d="M670 862q-78 0 -140 -75t-61 -205q0 -303 231 -303q84 0 141 69q56 70 56 220t-56 222t-171 72zM704 1159q278 -1 424 -153q147 -152 148 -426v-928h-119q-139 0 -198 60q-58 60 -58 192v223q-86 -160 -266 -160q-246 0 -401 156q-154 156 -154 421t173 440t451 175z" />
    <glyph glyph-name="r" unicode="r" horiz-adv-x="811" 
d="M811 836h-12q-59 23 -137 22q-168 0 -168 -184v-674h-107q-270 0 -270 266v490q0 176 111 292q112 116 298 115q139 0 212 -51t73 -133v-143z" />
    <glyph glyph-name="s" unicode="s" horiz-adv-x="1105" 
d="M1024 362q0 -182 -133 -288t-365 -107q-418 0 -417 277v112h10q131 -98 331 -98t201 88q0 42 -46 62t-214 43q-309 43 -309 301q0 192 152 300t352 108q198 0 304 -73q106 -72 107 -196v-117h-10q-129 94 -334 94t-204 -86q0 -33 44 -50q43 -17 203 -44q328 -55 328 -326
z" />
    <glyph glyph-name="t" unicode="t" horiz-adv-x="849" 
d="M117 1083q0 139 135 242q100 76 203 76h41v-275h329v-137q0 -70 -60 -120t-130 -50h-139v-407q0 -57 32 -89t90 -32q115 0 177 24h10v-151q0 -78 -73 -129t-223 -51t-263 84q-59 43 -94 125t-35 192v698z" />
    <glyph glyph-name="u" unicode="u" horiz-adv-x="1351" 
d="M1245 496q0 -262 -153 -396q-154 -133 -426 -133t-416 135q-143 135 -144 404v620h152q131 0 187 -51t57 -178v-401q0 -217 184 -217q166 0 166 231v616h152q242 0 241 -229v-401z" />
    <glyph glyph-name="v" unicode="v" horiz-adv-x="1198" 
d="M625 -16q-90 0 -146 40q-55 40 -110 123q-117 180 -219 459t-140 520h203q88 0 148 -50t73 -111q25 -125 84 -294t103 -249q55 102 118 311t95 393h186q74 0 116 -41t42 -119t-58 -245q-57 -166 -177 -399t-214 -338h-104z" />
    <glyph glyph-name="w" unicode="w" horiz-adv-x="1812" 
d="M1792 982q0 -58 -59 -250t-155 -411q-96 -220 -185 -337h-109q-125 0 -174 77q-100 154 -201 463q-35 -131 -109 -293t-143 -247h-96q-71 0 -111 16t-69 61q-121 183 -226 483t-145 582h207q90 0 145 -49t66 -110q45 -242 141 -480q117 270 189 592h151q75 0 137 -50
t78 -118q41 -188 148 -424q111 256 168 639h182q84 0 127 -43t43 -101z" />
    <glyph glyph-name="x" unicode="x" horiz-adv-x="1200" 
d="M958 -10q-106 0 -179 55t-148 162l-90 131q-82 -88 -121 -162t-51 -176h-158q-61 0 -108 38q-46 38 -46 95q0 95 49 187t170 212l70 70q-198 266 -244 343t-51 181h209q86 0 166 -73q35 -33 104 -129l84 -119q102 113 146 185t49 136h133q74 0 115 -40t41 -101
q0 -102 -117 -248q-12 -14 -170 -188l100 -141q89 -127 139 -168t136 -64q0 -90 -60 -138q-62 -48 -168 -48z" />
    <glyph glyph-name="y" unicode="y" horiz-adv-x="1193" 
d="M1163 983q1 -90 -69 -300t-178 -416t-182 -332q-74 -127 -148 -199t-131 -89t-155 -17t-163 50q-66 52 -65 144v94l168 12q76 6 118 38t72 104q-123 184 -252 509t-162 545h203q76 0 139 -44t80 -115q55 -254 176 -533q63 129 121 330q57 201 76 362h186q166 0 166 -143z
" />
    <glyph glyph-name="z" unicode="z" horiz-adv-x="1142" 
d="M1081 158q0 -62 -55 -110t-133 -48h-602q-98 0 -163 46t-65 150t138 240l336 328q41 41 55 74h-531v108q-1 84 63 132t144 48h570q100 0 162 -56t62 -160t-167 -267l-279 -270q-35 -35 -53 -76h518v-139z" />
    <glyph glyph-name="braceleft" unicode="{" horiz-adv-x="940" 
d="M276 1141q0 174 96 274t251 101h114q63 0 113 -44t49 -112v-105h-172q-104 0 -104 -165q0 -70 8 -132t8 -114q0 -197 -186 -248v-6q186 -53 186 -256q0 -14 -8 -110t-8 -150q0 -164 104 -164h33q51 0 95 -44t44 -91v-123h-274q-156 0 -252 102t-97 269q0 104 10 190
t11 130q0 44 -26 80t-68 44q-121 23 -121 125v96l121 21q88 16 88 129q1 74 -7 140t-8 163z" />
    <glyph glyph-name="bar" unicode="|" horiz-adv-x="526" 
d="M385 -319h-86q-63 0 -118 51q-54 51 -54 131v1630h86q63 0 117 -51t55 -131v-1630z" />
    <glyph glyph-name="braceright" unicode="}" horiz-adv-x="940" 
d="M664 25q0 -175 -96 -275t-251 -100h-114q-63 0 -113 44q-49 44 -49 111v105h172q104 0 104 166q0 70 -8 133t-8 113q0 197 186 247v6q-186 53 -186 256q0 14 8 110t8 151q0 164 -104 163h-33q-51 0 -95 44t-44 92v122h274q156 0 252 -102t97 -268q0 -105 -10 -191
t-11 -130q0 -44 26 -80t68 -44q121 -23 121 -125v-96l-121 -20q-88 -16 -88 -129q-1 -74 7 -140t8 -163z" />
    <glyph glyph-name="asciitilde" unicode="~" horiz-adv-x="1210" 
d="M1069 670q0 -109 -79 -181t-212 -71q-58 0 -93 13q-36 13 -45 16t-42 20l-35 18q-66 33 -127 33q-66 0 -65 -115h-99q-55 1 -95 47t-40 126t50 140q89 108 239 105q88 0 192 -50t148 -50q43 1 57 25t15 85h112q51 -1 85 -45t34 -116z" />
    <glyph glyph-name="uni00A0" unicode="&#xa0;" horiz-adv-x="471" 
 />
    <glyph glyph-name="exclamdown" unicode="&#xa1;" horiz-adv-x="643" 
d="M334 1124q90 0 154 -63t65 -155q0 -92 -65 -156q-64 -64 -154 -64t-154 64t-65 156q0 91 64 155q65 63 155 63zM305 573q91 0 145 -57t58 -149l22 -736h-182q-92 1 -144 55t-52 144v10l26 733h127z" />
    <glyph glyph-name="cent" unicode="&#xa2;" 
d="M1087 758h-10q-29 30 -101 54t-149 24q-141 0 -219 -68t-78 -198t73 -200q73 -71 221 -71t257 63h4v-116q1 -88 -67 -153t-178 -87v-289h-84q-188 0 -189 156v139q-197 42 -311 186t-115 354q0 210 112 360t314 202v285h103q170 0 170 -174v-95q108 -18 178 -81t69 -154
v-137z" />
    <glyph glyph-name="sterling" unicode="&#xa3;" 
d="M1149 307v-131q0 -80 -60 -128t-180 -48h-749v106q0 86 93 192t93 206q0 29 -6 61h-252v92q0 170 184 170h13q-25 86 -25 146q0 203 135 331t375 128q119 0 213 -71t94 -179v-154h-10q-115 100 -270 100q-76 0 -127 -44q-83 -71 -35 -257h360v-98q0 -76 -51 -120
t-137 -44h-143q4 -25 4 -43q0 -113 -76 -215h557z" />
    <glyph glyph-name="currency" unicode="&#xa4;" horiz-adv-x="1486" 
d="M750 293q100 1 160 71t61 198q0 128 -66 205t-169 77t-169 -73t-65 -179q0 -299 248 -299zM730 18q-196 0 -341 123l-182 -172l-82 86q-41 43 -41 97q0 84 102 186l45 43q-25 78 -24 166q0 158 65 289l-237 213l98 92q45 41 104 41t123 -54l101 -86q131 80 271 80
t247 -51l197 184l98 -90q45 -43 45 -100t-55 -111l-72 -69q86 -135 86 -289t-45 -270l205 -197l-31 -29q-113 -108 -176 -108t-127 65l-45 49q-133 -88 -329 -88z" />
    <glyph glyph-name="yen" unicode="&#xa5;" 
d="M1194 1292q0 -51 -126 -227t-208 -260h301v-98q0 -59 -42 -95t-107 -34h-221v-144h370v-102q0 -55 -43 -91t-106 -36h-221v-205h-175q-63 0 -104 40t-41 114v51h-373v86q0 67 38 105t112 38h223v144h-373v92q0 135 150 135h137q-76 92 -181 272t-173 336h164
q83 0 149 -32t88 -72q139 -268 211 -344q51 53 139 194t131 254h152q57 0 93 -35t36 -86z" />
    <glyph glyph-name="brokenbar" unicode="&#xa6;" horiz-adv-x="526" 
d="M385 702h-86q-63 0 -117 52t-55 131v608h86q63 0 117 -51t55 -131v-609zM385 -319h-86q-63 0 -118 51q-54 51 -54 131v608h86q63 0 117 -51t55 -131v-608z" />
    <glyph glyph-name="section" unicode="&#xa7;" 
d="M430 590q0 -98 156 -150t211 -73q41 31 41 114q0 43 -30 73t-126 62q-96 33 -199 76q-53 -35 -53 -102zM698 1157q-195 0 -194 -88q0 -51 40 -81t162 -71t184 -71q174 -81 231 -181q36 -63 36 -143t-51 -160t-102 -106q42 -31 78 -93t36 -128q0 -172 -134 -290t-402 -118
q-205 0 -316 72t-110 188v148h12q180 -143 424 -144q170 0 170 117q0 47 -60 85q-60 39 -236 93q-174 54 -266 146t-94 207q0 170 185 258q-135 61 -135 245q0 156 138 267t398 110q150 -1 260 -69t111 -162v-144h-8q-121 113 -357 113z" />
    <glyph glyph-name="dieresis" unicode="&#xa8;" horiz-adv-x="1136" 
d="M498 1462q0 -74 -54 -128t-127 -54q-74 0 -126 54t-52 128t52 123t126 49q73 0 127 -49t54 -123zM997 1462q0 -74 -54 -128t-128 -54t-125 54t-51 128t51 123t125 49t128 -49t54 -123z" />
    <glyph glyph-name="copyright" unicode="&#xa9;" horiz-adv-x="1650" 
d="M684 710q0 -96 59 -152t137 -56q161 0 226 69h22v-90q0 -82 -74 -134t-190 -52q-172 0 -296 112q-124 111 -124 293t115 301t318 119q117 0 187 -52t69 -140v-90h-23q-29 34 -91 56t-140 22q-79 0 -137 -55q-58 -54 -58 -151zM1391 707q0 239 -169 407t-407 168
q-239 0 -407 -169t-168 -407t169 -406q169 -169 407 -169t406 169q169 169 169 407zM1556 707q0 -307 -217 -525t-524 -217q-307 0 -524 217q-217 216 -217 524t217 525t524 217t524 -217t217 -524z" />
    <glyph glyph-name="ordfeminine" unicode="&#xaa;" horiz-adv-x="866" 
d="M504 958h-41q-123 0 -123 -65q0 -59 82 -59t82 79v45zM403 643q-121 0 -216 59t-95 177q0 246 381 245h27v25q0 37 -31 51t-113 14t-128 -18t-91 -59h-16v94q0 78 77 132q78 54 228 54t239 -81t89 -238v-111q0 -199 -76 -271t-275 -73z" />
    <glyph glyph-name="guillemotleft" unicode="&#xab;" horiz-adv-x="1316" 
d="M551 154q-174 0 -254 112l-221 314l221 315q76 109 254 109h133l-276 -424l276 -426h-133zM1100 154q-182 0 -254 112l-199 314l199 315q66 109 254 109h131l-256 -424l256 -426h-131z" />
    <glyph glyph-name="logicalnot" unicode="&#xac;" horiz-adv-x="1196" 
d="M862 442v187h-805v123q-1 70 53 112t134 43h897v-649h-127q-66 0 -109 56t-43 128z" />
    <glyph glyph-name="uni00AD" unicode="&#xad;" horiz-adv-x="784" 
d="M707 756v-111q0 -59 -41 -103t-103 -44h-491v104q0 154 164 154h471z" />
    <glyph glyph-name="registered" unicode="&#xae;" horiz-adv-x="1650" 
d="M797 911h-45q-18 0 -31 -2v-143q23 -2 68 -2t67 22t21 52q0 73 -80 73zM721 311h-96q-68 0 -108 37t-40 96v623q106 37 250 37h90q131 0 217 -67t86 -175q0 -68 -37 -124t-90 -81q45 -49 87 -131t64 -110t52 -45q-59 -60 -150 -60t-135 64t-75 141q-23 46 -43 60t-72 18
v-283zM815 1282q-239 0 -407 -169t-168 -407t169 -406q169 -169 407 -169t406 169q169 169 169 407q0 239 -169 407t-407 168zM815 -35q-307 0 -524 217q-217 216 -217 524t217 525t524 217t524 -217t217 -524t-217 -525t-524 -217z" />
    <glyph glyph-name="macron" unicode="&#xaf;" horiz-adv-x="622" 
d="M600 1528v-119q0 -51 -39 -85t-92 -34h-446v90q0 66 40 107q41 41 115 41h422z" />
    <glyph glyph-name="degree" unicode="&#xb0;" horiz-adv-x="849" 
d="M543 1146q0 50 -31 79t-84 28q-115 0 -115 -110q0 -43 31 -72t82 -29t84 27t33 77zM770 1156q0 -148 -94 -240t-249 -93q-155 0 -251 92q-96 91 -96 231t94 234t249 94t251 -84q96 -86 96 -234z" />
    <glyph glyph-name="plusminus" unicode="&#xb1;" 
d="M1137 143q0 -59 -43 -101t-101 -42h-884v98q0 62 41 106t102 44h885v-105zM1176 872q0 -72 -58 -122t-151 -50h-174v-360h-142q-74 0 -126 55t-52 144v161h-391v154q0 64 50 110t126 46h215v321h158q65 0 113 -48t49 -120v-153h383v-138z" />
    <glyph glyph-name="twosuperior" unicode="&#xb2;" horiz-adv-x="897" 
d="M639 561h-436q-63 0 -101 34q-37 34 -36 89q0 100 145 207l192 141q49 37 50 84q0 70 -113 70q-172 0 -252 -105h-6v121q0 86 93 165t258 79t255 -86t90 -212t-135 -220l-84 -58q-39 -27 -59 -43h295v-137q0 -61 -41 -95t-115 -34z" />
    <glyph glyph-name="threesuperior" unicode="&#xb3;" horiz-adv-x="901" 
d="M422 541q-318 0 -318 207v131h7q84 -84 260 -84q109 0 108 47q0 31 -24 44q-25 13 -101 15q-106 4 -106 105v61l121 12q104 9 104 61t-135 52t-223 -88h-6v139q0 86 82 145q83 58 231 58t248 -70t100 -194t-127 -185q51 -14 92 -64t41 -110q0 -137 -100 -210
q-102 -72 -254 -72z" />
    <glyph glyph-name="acute" unicode="&#xb4;" horiz-adv-x="905" 
d="M723 1515q0 -55 -37 -107t-88 -73q-109 -45 -307 -45h-94v10q49 117 155 228t240 110q61 0 96 -34t35 -89z" />
    <glyph glyph-name="mu" unicode="&#xb5;" 
d="M481 -369h-170q-80 -1 -141 59t-61 160v1276h145q127 0 183 -51t57 -178v-422q0 -113 32 -156t116 -43q83 0 119 54t36 180v616h147q238 0 238 -229v-401q0 -248 -129 -390t-375 -141q-109 0 -197 107v-441z" />
    <glyph glyph-name="paragraph" unicode="&#xb6;" horiz-adv-x="1087" 
d="M995 0h-77q-70 0 -106 33t-36 125v1007q0 27 -7 35t-36 8l-65 -2v-1206h-68q-55 0 -103 36t-48 122v393h-43q-141 0 -250 119q-109 118 -109 314t121 314t373 119h213q117 0 179 -57t62 -162v-1198z" />
    <glyph glyph-name="periodcentered" unicode="&#xb7;" horiz-adv-x="512" 
d="M45 616q0 88 61 148q62 60 150 61q88 0 148 -60q60 -61 60 -149t-60 -149t-148 -61t-150 61q-61 61 -61 149z" />
    <glyph glyph-name="cedilla" unicode="&#xb8;" horiz-adv-x="1189" 
d="M662 29q0 -70 -7 -105q90 -4 158 -43t68 -123q0 -123 -77 -169q-78 -46 -184 -46t-180 29t-73 96v72h12q57 -47 190 -47q100 0 101 57q0 59 -113 60q-35 0 -104 -9q37 140 49 228h160z" />
    <glyph glyph-name="onesuperior" unicode="&#xb9;" horiz-adv-x="755" 
d="M571 561h-151q-78 0 -123 44t-45 128v393l-66 -20q-31 -10 -75 -10q-88 0 -105 104l-16 96l231 93q97 37 181 37t126 -40q42 -39 43 -110v-715z" />
    <glyph glyph-name="ordmasculine" unicode="&#xba;" horiz-adv-x="866" 
d="M428 1198q-106 0 -106 -149q0 -176 122 -177q104 0 105 150q0 176 -121 176zM433 647q-167 0 -261 111q-94 110 -94 272t97 277t264 115t260 -110t93 -272t-96 -278q-96 -115 -263 -115z" />
    <glyph glyph-name="guillemotright" unicode="&#xbb;" horiz-adv-x="1316" 
d="M205 154h-131l256 426l-256 424h131q182 0 254 -109l198 -315l-198 -314q-72 -112 -254 -112zM754 154h-133l276 426l-276 424h133q178 0 254 -109l221 -315l-221 -314q-80 -112 -254 -112z" />
    <glyph glyph-name="onequarter" unicode="&#xbc;" horiz-adv-x="1843" 
d="M1364 399v146q-53 -57 -123 -146h123zM1706 150h-29v-156h-153q-92 0 -126 29t-34 106v21h-254q-66 0 -108 36t-42 98q0 63 52 138q82 117 201 252q120 135 196 190h96q80 0 126 -46t46 -134v-283h152v-135q0 -52 -34 -84t-89 -32zM592 561h-152q-78 0 -123 44t-45 128
v393l-65 -20q-31 -10 -76 -10q-88 0 -104 104l-17 96l232 93q96 37 180 37t127 -40q43 -39 43 -110v-715zM1182 1413q48 1 80 -27t32 -83t-16 -89l-594 -1214h-63q-53 0 -90 34q-70 66 -7 206l574 1173h84z" />
    <glyph glyph-name="onehalf" unicode="&#xbd;" horiz-adv-x="1843" 
d="M1686 0h-437q-63 0 -100 34t-37 89q0 100 145 207l193 141q49 37 49 84q0 70 -113 70q-172 0 -251 -105h-7v121q0 86 94 165t258 79q165 0 255 -86t90 -212t-135 -220l-84 -58q-39 -27 -60 -43h295v-137q-1 -61 -41 -95t-114 -34zM592 561h-152q-78 0 -123 44t-45 128
v393l-65 -20q-31 -10 -76 -10q-88 0 -104 104l-17 96l232 93q96 37 180 37t127 -40q43 -39 43 -110v-715zM621 0q-53 0 -90 34q-70 66 -7 206l574 1173h84q47 0 80 -28q32 -28 32 -83t-16 -88l-594 -1214h-63z" />
    <glyph glyph-name="threequarters" unicode="&#xbe;" horiz-adv-x="1843" 
d="M1364 399v146q-53 -57 -123 -146h123zM1706 150h-29v-156h-153q-92 0 -126 29t-34 106v21h-254q-66 0 -108 36t-42 98q0 63 52 138q82 117 201 252q120 135 196 190h96q80 0 126 -46t46 -134v-283h152v-135q0 -52 -34 -84t-89 -32zM672 823q0 -137 -100 -209t-254 -73
q-318 0 -318 207v131h6q84 -84 260 -84q109 0 109 47q0 31 -25 44t-100 15q-106 4 -107 105v61l121 12q104 10 105 60q0 53 -135 53t-224 -88h-6v139q0 87 83 145t231 58t248 -70t100 -194t-127 -185q51 -14 92 -64t41 -110zM1182 1413q48 1 80 -27t32 -83t-16 -89
l-594 -1214h-63q-53 0 -90 34q-70 66 -7 206l574 1173h84z" />
    <glyph glyph-name="questiondown" unicode="&#xbf;" horiz-adv-x="1024" 
d="M438 553v59h135q84 0 129 -44t46 -107q0 -113 -76 -180l-144 -131q-45 -40 -45 -94t44 -87t126 -32q207 0 297 122h11v-122q0 -133 -108 -217q-109 -84 -307 -85q-198 0 -324 112t-126 280t131 274l140 115q41 34 56 62t15 75zM563 686q-91 0 -155 64t-64 156
q0 90 65 154t155 64t154 -63t64 -155t-64 -156t-155 -64z" />
    <glyph glyph-name="Agrave" unicode="&#xc0;" horiz-adv-x="1372" 
d="M834 1536h-95q-199 0 -307 45q-51 19 -88 71t-37 108t35 90t96 34q133 0 240 -110t156 -228v-10zM827 639q-76 256 -159 422q-90 -172 -164 -422h323zM1186 0q-109 0 -165 38q-57 38 -75 129t-39 167h-487q-25 -84 -72 -334h-158q-180 0 -180 175t172 617t342 621h152
q184 0 274 -147q115 -190 241 -560t171 -706h-176z" />
    <glyph glyph-name="Aacute" unicode="&#xc1;" horiz-adv-x="1372" 
d="M1047 1760q0 -56 -37 -107t-88 -72q-109 -45 -308 -45h-94v10q50 117 156 228t239 110q61 0 97 -34t35 -90zM827 639q-76 256 -159 422q-90 -172 -164 -422h323zM1186 0q-109 0 -165 38q-57 38 -75 129t-39 167h-487q-25 -84 -72 -334h-158q-180 0 -180 175t172 617
t342 621h152q184 0 274 -147q115 -190 241 -560t171 -706h-176z" />
    <glyph glyph-name="Acircumflex" unicode="&#xc2;" horiz-adv-x="1372" 
d="M279 1524q0 111 39 164q40 53 149 108l182 94l178 -92q111 -57 152 -112t41 -173v-47l-373 146l-368 -146v58zM827 639q-76 256 -159 422q-90 -172 -164 -422h323zM1186 0q-109 0 -165 38q-57 38 -75 129t-39 167h-487q-25 -84 -72 -334h-158q-180 0 -180 175t172 617
t342 621h152q184 0 274 -147q115 -190 241 -560t171 -706h-176z" />
    <glyph glyph-name="Atilde" unicode="&#xc3;" horiz-adv-x="1372" 
d="M1034 1673q0 -80 -55 -134t-155 -54q-100 -1 -179 61q-80 62 -115 62q-34 0 -56 -22t-21 -58v-43h-45q-55 0 -101 49q-45 49 -45 124t56 131t152 56t179 -60q82 -60 117 -61q78 0 78 74v47h41q59 0 104 -46t45 -126zM827 639q-76 256 -159 422q-90 -172 -164 -422h323z
M1186 0q-109 0 -165 38q-57 38 -75 129t-39 167h-487q-25 -84 -72 -334h-158q-180 0 -180 175t172 617t342 621h152q184 0 274 -147q115 -190 241 -560t171 -706h-176z" />
    <glyph glyph-name="Adieresis" unicode="&#xc4;" horiz-adv-x="1372" 
d="M1100 1698q0 -74 -53 -128t-127 -54t-126 54t-53 128q1 74 53 123t126 49t127 -49t53 -123zM602 1698q0 -74 -53 -128t-127 -54t-126 54t-52 128t52 123t126 49t127 -49t53 -123zM827 639q-76 256 -159 422q-90 -172 -164 -422h323zM1186 0q-109 0 -165 38
q-57 38 -75 129t-39 167h-487q-25 -84 -72 -334h-158q-180 0 -180 175t172 617t342 621h152q184 0 274 -147q115 -190 241 -560t171 -706h-176z" />
    <glyph glyph-name="Aring" unicode="&#xc5;" horiz-adv-x="1372" 
d="M829 639q-72 246 -161 422q-90 -172 -164 -422h325zM774 1488q0 38 -24 66t-72 29q-47 0 -74 -27q-26 -28 -26 -66t26 -68t72 -30q47 0 73 29q25 29 25 67zM1186 0q-109 0 -167 40q-59 40 -73 132t-28 162h-502q-27 -104 -68 -334h-158q-180 0 -180 174q0 150 140 534
q139 384 294 607q-68 67 -68 181t88 182q87 68 218 67q131 0 210 -71t79 -178t-66 -177q25 -18 45 -53q115 -190 241 -560t171 -706h-176z" />
    <glyph glyph-name="AE" unicode="&#xc6;" horiz-adv-x="1947" 
d="M821 631q-16 203 -73 465q-37 -49 -109 -201t-115 -264h297zM156 0q-146 0 -146 156q0 80 76 292t228 515q153 303 300 450h1272v-108q0 -93 -63 -151t-168 -58h-535q4 -14 37 -234h582v-127q0 -166 -199 -166h-358l10 -88q12 -104 65 -142t179 -38h120q156 0 314 43
v-147q0 -213 -314 -213h-204q-231 0 -340 85t-150 267h-434q-57 -139 -96 -336h-176z" />
    <glyph glyph-name="Ccedilla" unicode="&#xc7;" horiz-adv-x="1333" 
d="M1085 -242q1 -212 -263 -214q-126 0 -189 34q-61 35 -62 90v72h13q57 -47 190 -47q100 0 100 58t-112 59q-23 0 -105 -9q20 72 43 174q-264 39 -441 233t-177 498t208 522t552 218q204 0 322 -92t118 -244v-145h-10q-51 69 -166 107t-238 38q-174 0 -286 -105t-111 -295
q0 -190 113 -298t293 -109q113 0 225 38t164 93h10v-145q0 -131 -113 -221t-299 -99l-4 -45q100 -4 162 -46t63 -120z" />
    <glyph glyph-name="Egrave" unicode="&#xc8;" horiz-adv-x="1241" 
d="M840 1536h-95q-199 0 -307 45q-51 19 -88 71t-37 108t35 90t96 34q133 0 240 -110t156 -228v-10zM1178 188q0 -102 -75 -154t-255 -52h-160q-281 0 -428 144t-147 435v238q0 217 24 381q35 233 273 233h770v-92q0 -105 -58 -165t-178 -60h-430q-14 -121 -14 -240h547
v-141q1 -78 -55 -119t-158 -41h-334v-51q0 -117 50 -161t195 -44h103q174 0 330 39v-150z" />
    <glyph glyph-name="Eacute" unicode="&#xc9;" horiz-adv-x="1241" 
d="M983 1760q0 -56 -37 -107t-88 -72q-109 -45 -307 -45h-94v10q49 117 155 228t240 110q61 0 96 -34t35 -90zM1178 188q0 -102 -75 -154t-255 -52h-160q-281 0 -428 144t-147 435v238q0 217 24 381q35 233 273 233h770v-92q0 -105 -58 -165t-178 -60h-430
q-14 -121 -14 -240h547v-141q1 -78 -55 -119t-158 -41h-334v-51q0 -117 50 -161t195 -44h103q174 0 330 39v-150z" />
    <glyph glyph-name="Ecircumflex" unicode="&#xca;" horiz-adv-x="1241" 
d="M291 1526q0 111 40 164t148 108l183 94l178 -92q112 -57 152 -112t40 -172v-48l-373 146l-368 -146v58zM1178 188q0 -102 -75 -154t-255 -52h-160q-281 0 -428 144t-147 435v238q0 217 24 381q35 233 273 233h770v-92q0 -105 -58 -165t-178 -60h-430q-14 -121 -14 -240
h547v-141q1 -78 -55 -119t-158 -41h-334v-51q0 -117 50 -161t195 -44h103q174 0 330 39v-150z" />
    <glyph glyph-name="Edieresis" unicode="&#xcb;" horiz-adv-x="1241" 
d="M1087 1698q0 -74 -53 -128t-127 -54t-126 54t-52 128t52 123t126 49t127 -49t53 -123zM590 1698q0 -74 -53 -128t-127 -54t-126 54t-53 128q1 74 53 123t126 49t127 -49t53 -123zM1178 188q0 -102 -75 -154t-255 -52h-160q-281 0 -428 144t-147 435v238q0 217 24 381
q35 233 273 233h770v-92q0 -105 -58 -165t-178 -60h-430q-14 -121 -14 -240h547v-141q1 -78 -55 -119t-158 -41h-334v-51q0 -117 50 -161t195 -44h103q174 0 330 39v-150z" />
    <glyph glyph-name="Igrave" unicode="&#xcc;" horiz-adv-x="675" 
d="M532 1536h-94q-199 0 -307 45q-51 19 -88 71t-37 108t35 90t96 34q133 0 240 -110q106 -111 155 -228v-10zM532 0h-208q-72 0 -126 58t-55 161v1194h217q64 0 118 -51t54 -131v-1231z" />
    <glyph glyph-name="Iacute" unicode="&#xcd;" horiz-adv-x="675" 
d="M647 1760q0 -56 -37 -107t-88 -72q-109 -45 -307 -45h-94v10q49 117 155 228t240 110q61 0 96 -34t35 -90zM532 0h-208q-72 0 -126 58t-55 161v1194h217q64 0 118 -51t54 -131v-1231z" />
    <glyph glyph-name="Icircumflex" unicode="&#xce;" horiz-adv-x="675" 
d="M-35 1522q0 111 40 164t149 108l182 94l178 -92q111 -56 152 -112t41 -173v-47l-373 146l-369 -146v58zM532 0h-208q-72 0 -126 58t-55 161v1194h217q64 0 118 -51t54 -131v-1231z" />
    <glyph glyph-name="Idieresis" unicode="&#xcf;" horiz-adv-x="675" 
d="M754 1698q0 -74 -54 -128t-127 -54q-74 0 -126 54t-52 128t52 123t126 49q73 0 127 -49t54 -123zM256 1698q0 -74 -53 -128t-127 -54t-126 54t-52 128t52 123t126 49t127 -49t53 -123zM532 0h-208q-72 0 -126 58t-55 161v1194h217q64 0 118 -51t54 -131v-1231z" />
    <glyph glyph-name="Eth" unicode="&#xd0;" horiz-adv-x="1474" 
d="M727 813v-108q0 -53 -29 -83t-82 -30h-104v-205q0 -39 23 -65t59 -27h63q166 -1 256 109q91 110 91 304t-98 303q-98 110 -251 109h-82q-20 0 -61 -8v-299h215zM123 813v553q77 29 197 48t206 20h148q276 0 488 -171q102 -83 166 -221t65 -313q1 -327 -191 -537
t-493 -210h-140q-203 0 -325 83t-121 259v268h-141v104q0 51 28 84q29 33 78 33h35z" />
    <glyph glyph-name="Ntilde" unicode="&#xd1;" horiz-adv-x="1484" 
d="M985 1845q59 0 105 -46t45 -126q1 -80 -55 -134t-155 -54q-99 -1 -179 61t-115 62t-57 -22t-21 -58v-43h-45q-55 0 -100 49q-46 49 -46 124t56 131t153 56q96 0 178 -60t117 -61q78 0 78 74v47h41zM1382 0h-153q-127 0 -227 68q-99 68 -191 231l-240 434q-59 78 -69 115
v-848h-160q-86 0 -153 58t-66 159v1196h188q293 0 441 -291l262 -512v803h172q76 0 136 -50t60 -132v-1231z" />
    <glyph glyph-name="Ograve" unicode="&#xd2;" horiz-adv-x="1564" 
d="M907 1536h-94q-199 0 -307 45q-51 19 -88 71t-37 108t35 90t96 34q133 0 240 -110q106 -111 155 -228v-10zM1094 710q0 420 -328 420q-141 0 -218 -110t-77 -293q0 -442 328 -442q135 0 215 107t80 318zM805 1446q276 0 477 -194t201 -537q1 -342 -189 -545t-532 -203
q-295 0 -488 198q-192 197 -192 533t192 542q193 206 531 206z" />
    <glyph glyph-name="Oacute" unicode="&#xd3;" horiz-adv-x="1564" 
d="M1112 1760q0 -56 -37 -107t-88 -72q-109 -45 -307 -45h-94v10q49 117 155 228t240 110q61 0 96 -34t35 -90zM1094 710q0 420 -328 420q-141 0 -218 -110t-77 -293q0 -442 328 -442q135 0 215 107t80 318zM805 1446q276 0 477 -194t201 -537q1 -342 -189 -545t-532 -203
q-295 0 -488 198q-192 197 -192 533t192 542q193 206 531 206z" />
    <glyph glyph-name="Ocircumflex" unicode="&#xd4;" horiz-adv-x="1564" 
d="M414 1524q0 111 40 164t148 108l182 94l179 -92q111 -57 151 -112t41 -173v-47l-373 146l-368 -146v58zM1094 710q0 420 -328 420q-141 0 -218 -110t-77 -293q0 -442 328 -442q135 0 215 107t80 318zM805 1446q276 0 477 -194t201 -537q1 -342 -189 -545t-532 -203
q-295 0 -488 198q-192 197 -192 533t192 542q193 206 531 206z" />
    <glyph glyph-name="Otilde" unicode="&#xd5;" horiz-adv-x="1564" 
d="M1024 1845q58 0 104 -46t46 -126t-56 -134t-154 -54q-99 -1 -179 61t-115 62t-57 -22t-21 -58v-43h-45q-55 0 -101 49q-45 49 -45 124q1 75 57 131t152 56t178 -60t117 -61q78 0 78 74v47h41zM1094 710q0 420 -328 420q-141 0 -218 -110t-77 -293q0 -442 328 -442
q135 0 215 107t80 318zM805 1446q276 0 477 -194t201 -537q1 -342 -189 -545t-532 -203q-295 0 -488 198q-192 197 -192 533t192 542q193 206 531 206z" />
    <glyph glyph-name="Odieresis" unicode="&#xd6;" horiz-adv-x="1564" 
d="M1208 1698q0 -74 -53 -128t-127 -54t-126 54t-52 128t52 123t126 49t127 -49t53 -123zM711 1698q1 -74 -53 -128t-128 -54t-126 54t-52 128t52 123t126 49t128 -49t53 -123zM1094 710q0 420 -328 420q-141 0 -218 -110t-77 -293q0 -442 328 -442q135 0 215 107t80 318z
M805 1446q276 0 477 -194t201 -537q1 -342 -189 -545t-532 -203q-295 0 -488 198q-192 197 -192 533t192 542q193 206 531 206z" />
    <glyph glyph-name="multiply" unicode="&#xd7;" horiz-adv-x="1206" 
d="M949 143q-52 0 -103 52l-246 245l-332 -329l-71 82q-35 39 -35 100t35 96l227 227l-330 330l84 84q39 39 89 39t102 -47l231 -229l315 315l84 -84q39 -39 39 -89t-47 -101l-215 -218l350 -350l-88 -86q-37 -37 -89 -37z" />
    <glyph glyph-name="Oslash" unicode="&#xd8;" horiz-adv-x="1564" 
d="M1094 692q0 111 -19 191l-442 -564q70 -41 166 -40q133 1 214 111t81 302zM766 1135q-141 0 -218 -113t-77 -295q0 -113 18 -192l443 561q-72 39 -166 39zM1294 1446q39 0 68 -28t29 -85t-37 -100l-27 -33q156 -197 156 -473q-1 -350 -191 -555t-530 -205q-186 0 -342 86
l-66 -86h-80q-38 0 -66 30q-28 31 -28 91t35 100l18 23q-152 195 -151 477q0 342 193 550q194 208 530 208q174 0 336 -90l76 90h77z" />
    <glyph glyph-name="Ugrave" unicode="&#xd9;" horiz-adv-x="1519" 
d="M881 1536h-95q-199 0 -307 45q-51 19 -88 71t-37 108t35 90t96 34q133 0 240 -110t156 -228v-10zM1397 604q0 -281 -170 -459t-486 -178q-274 0 -446 171t-172 454v821h166q100 0 162 -65q61 -66 61 -203v-541q0 -176 62 -247t204 -70q229 0 230 307v819h166
q114 0 168 -61t55 -199v-549z" />
    <glyph glyph-name="Uacute" unicode="&#xda;" horiz-adv-x="1519" 
d="M1051 1760q0 -56 -37 -107t-88 -72q-109 -45 -308 -45h-94v10q50 117 156 228t240 110q61 0 96 -34t35 -90zM1397 604q0 -281 -170 -459t-486 -178q-274 0 -446 171t-172 454v821h166q100 0 162 -65q61 -66 61 -203v-541q0 -176 62 -247t204 -70q229 0 230 307v819h166
q114 0 168 -61t55 -199v-549z" />
    <glyph glyph-name="Ucircumflex" unicode="&#xdb;" horiz-adv-x="1519" 
d="M373 1524q0 111 40 164t148 108l182 94l179 -92q112 -57 152 -112t40 -173v-47l-373 146l-368 -146v58zM1397 604q0 -281 -170 -459t-486 -178q-274 0 -446 171t-172 454v821h166q100 0 162 -65q61 -66 61 -203v-541q0 -176 62 -247t204 -70q229 0 230 307v819h166
q114 0 168 -61t55 -199v-549z" />
    <glyph glyph-name="Udieresis" unicode="&#xdc;" horiz-adv-x="1519" 
d="M1147 1698q0 -74 -53 -128t-127 -54t-126 54t-53 128q0 74 52 123t127 49q74 0 127 -49t53 -123zM649 1698q0 -74 -53 -128t-127 -54t-126 54t-52 128t52 123t126 49t127 -49t53 -123zM1397 604q0 -281 -170 -459t-486 -178q-274 0 -446 171t-172 454v821h166
q100 0 162 -65q61 -66 61 -203v-541q0 -176 62 -247t204 -70q229 0 230 307v819h166q114 0 168 -61t55 -199v-549z" />
    <glyph glyph-name="Yacute" unicode="&#xdd;" horiz-adv-x="1288" 
d="M1032 1758q0 -56 -37 -107t-88 -72q-109 -45 -307 -45h-94v10q50 117 156 228t239 110q61 0 96 -34t35 -90zM1268 1288q0 -82 -154 -322t-270 -374v-592h-170q-86 0 -153 58t-66 159v377q-131 164 -252 381t-193 438h197q88 0 149 -36t84 -85q92 -203 228 -397
q188 266 268 518h184q66 0 107 -38t41 -87z" />
    <glyph glyph-name="Thorn" unicode="&#xde;" horiz-adv-x="1286" 
d="M834 713q0 104 -42 144t-124 40h-78q-33 0 -78 -10v-316q55 -18 147 -18q175 0 175 160zM123 1413h229q66 0 110 -47t44 -125v-47q49 8 63 8h123q264 0 398 -127t135 -343q0 -216 -135 -353t-377 -137q-137 0 -207 34v-278h-178q-63 0 -134 51t-71 152v1212z" />
    <glyph glyph-name="germandbls" unicode="&#xdf;" horiz-adv-x="1380" 
d="M623 342q85 -68 201 -68t116 96q0 46 -28 74t-111 66q-166 76 -166 236t164 249q86 49 86 103t-35 77q-36 23 -142 23t-156 -62t-50 -210v-926h-113q-131 0 -199 65t-67 181v706q0 254 174 398q175 144 417 145q242 0 398 -101q156 -100 156 -272t-158 -250
q-88 -43 -114 -63t-26 -50t24 -48q22 -18 102 -54q223 -96 223 -280t-102 -289q-103 -104 -314 -104q-291 0 -291 200v158h11z" />
    <glyph glyph-name="agrave" unicode="&#xe0;" horiz-adv-x="1196" 
d="M758 1290h-94q-199 0 -308 45q-51 19 -88 71t-37 108t35 91q35 34 96 33q133 0 240 -110t156 -228v-10zM735 379v84h-78q-207 0 -206 -113q0 -109 153 -108q131 0 131 137zM1104 496q0 -305 -116 -416t-425 -111q-263 0 -404 154q-77 84 -77 205q0 190 143 283t447 94h55
v47q0 66 -52 90t-185 24t-210 -30t-147 -93h-10v138q0 115 120 197q119 82 353 81q234 0 371 -124t137 -365v-174z" />
    <glyph glyph-name="aacute" unicode="&#xe1;" horiz-adv-x="1196" 
d="M948 1517q0 -55 -37 -107t-88 -73q-109 -45 -307 -45h-94v11q50 117 156 227t239 110q61 0 96 -34t35 -89zM735 379v84h-78q-207 0 -206 -113q0 -109 153 -108q131 0 131 137zM1104 496q0 -305 -116 -416t-425 -111q-263 0 -404 154q-77 84 -77 205q0 190 143 283t447 94
h55v47q0 66 -52 90t-185 24t-210 -30t-147 -93h-10v138q0 115 120 197q119 82 353 81q234 0 371 -124t137 -365v-174z" />
    <glyph glyph-name="acircumflex" unicode="&#xe2;" horiz-adv-x="1196" 
d="M229 1270q0 111 40 164t149 108l182 94l178 -92q111 -57 152 -112t41 -172v-48l-373 146l-369 -146v58zM735 379v84h-78q-207 0 -206 -113q0 -109 153 -108q131 0 131 137zM1104 496q0 -305 -116 -416t-425 -111q-263 0 -404 154q-77 84 -77 205q0 190 143 283t447 94h55
v47q0 66 -52 90t-185 24t-210 -30t-147 -93h-10v138q0 115 120 197q119 82 353 81q234 0 371 -124t137 -365v-174z" />
    <glyph glyph-name="atilde" unicode="&#xe3;" horiz-adv-x="1196" 
d="M993 1442q0 -80 -55 -134q-54 -54 -154 -54t-180 61t-115 61t-57 -22t-20 -58v-43h-45q-55 -1 -101 49t-45 124t57 132q56 56 152 56t178 -60t117 -61q78 0 78 74v47h41q59 0 104 -46t45 -126zM735 379v84h-78q-207 0 -206 -113q0 -109 153 -108q131 0 131 137zM1104 496
q0 -305 -116 -416t-425 -111q-263 0 -404 154q-77 84 -77 205q0 190 143 283t447 94h55v47q0 66 -52 90t-185 24t-210 -30t-147 -93h-10v138q0 115 120 197q119 82 353 81q234 0 371 -124t137 -365v-174z" />
    <glyph glyph-name="adieresis" unicode="&#xe4;" horiz-adv-x="1196" 
d="M997 1452q0 -74 -53 -128t-127 -54t-126 54t-52 128t52 123t126 49t127 -49t53 -123zM500 1452q0 -74 -54 -128t-127 -54t-125 54t-53 128q1 74 53 123t126 49t126 -49q54 -49 54 -123zM735 379v84h-78q-207 0 -206 -113q0 -109 153 -108q131 0 131 137zM1104 496
q0 -305 -116 -416t-425 -111q-263 0 -404 154q-77 84 -77 205q0 190 143 283t447 94h55v47q0 66 -52 90t-185 24t-210 -30t-147 -93h-10v138q0 115 120 197q119 82 353 81q234 0 371 -124t137 -365v-174z" />
    <glyph glyph-name="aring" unicode="&#xe5;" horiz-adv-x="1196" 
d="M700 1488q0 38 -24 66t-72 29q-47 0 -73 -27q-25 -26 -25 -66t24 -69t72 -29q47 0 73 29q25 29 25 67zM303 1492q0 118 88 186t219 67t209 -71t78 -185t-82 -187t-213 -71q-131 0 -215 71q-84 72 -84 190zM735 379v84h-78q-207 0 -206 -113q0 -109 153 -108
q131 0 131 137zM1104 496q0 -305 -116 -416t-425 -111q-263 0 -404 154q-77 84 -77 205q0 190 143 283t447 94h55v47q0 66 -52 90t-185 24t-210 -30t-147 -93h-10v138q0 115 120 197q119 82 353 81q234 0 371 -124t137 -365v-174z" />
    <glyph glyph-name="ae" unicode="&#xe6;" horiz-adv-x="1863" 
d="M737 467h-88q-199 0 -198 -119q0 -106 147 -106q66 0 102 40t37 111v74zM1153 686q221 0 257 24q17 11 17 40q0 121 -165 120q-92 0 -142 -56t-53 -128h86zM727 698v31q0 76 -44 106t-159 29q-285 0 -383 -121h-10v123q0 121 111 207t323 86q260 0 365 -149
q115 150 368 149q204 0 348 -123t144 -319q0 -164 -122 -224t-394 -61h-39l-154 2q8 -82 77 -127t194 -45q242 0 356 78h12v-98q0 -272 -440 -273q-111 0 -211 44t-158 114q-102 -158 -317 -158h-55q-201 0 -328 93t-127 260q0 377 553 376h90z" />
    <glyph glyph-name="ccedilla" unicode="&#xe7;" horiz-adv-x="1079" 
d="M1028 758h-10q-28 30 -100 54t-150 24q-141 0 -219 -68t-78 -198t73 -200q72 -71 220 -71t258 63h4v-116q0 -113 -104 -192t-258 -79l-5 -51q90 -4 158 -43t68 -123q0 -123 -77 -169q-78 -46 -184 -46t-180 29t-73 96v72h12q57 -47 190 -47q100 0 101 57q0 59 -113 60
q-35 0 -104 -9q29 113 47 193q-194 48 -308 198t-114 384t167 408q167 173 453 173q134 0 230 -77t96 -185v-137z" />
    <glyph glyph-name="egrave" unicode="&#xe8;" 
d="M778 1290h-94q-199 0 -307 45q-51 19 -88 71t-37 108t35 91q35 34 96 33q133 0 240 -110q106 -111 155 -228v-10zM608 674q129 0 173 18t44 63q0 44 -42 80t-121 35q-186 0 -205 -196h151zM1186 709q0 -165 -127 -225t-424 -60h-168q33 -166 279 -166t354 72h14v-90
q0 -119 -106 -196t-332 -77q-282 0 -438 164t-156 418t162 433t404 179q242 1 390 -121t148 -331z" />
    <glyph glyph-name="eacute" unicode="&#xe9;" 
d="M991 1515q0 -55 -37 -107t-88 -73q-109 -45 -307 -45h-94v10q49 117 155 228t240 110q61 0 96 -34t35 -89zM608 674q129 0 173 18t44 63q0 44 -42 80t-121 35q-186 0 -205 -196h151zM1186 709q0 -165 -127 -225t-424 -60h-168q33 -166 279 -166t354 72h14v-90
q0 -119 -106 -196t-332 -77q-282 0 -438 164t-156 418t162 433t404 179q242 1 390 -121t148 -331z" />
    <glyph glyph-name="ecircumflex" unicode="&#xea;" 
d="M291 1268q0 111 40 164t148 108l183 94l178 -92q112 -57 152 -112t40 -173v-47l-373 146l-368 -146v58zM608 674q129 0 173 18t44 63q0 44 -42 80t-121 35q-186 0 -205 -196h151zM1186 709q0 -165 -127 -225t-424 -60h-168q33 -166 279 -166t354 72h14v-90
q0 -119 -106 -196t-332 -77q-282 0 -438 164t-156 418t162 433t404 179q242 1 390 -121t148 -331z" />
    <glyph glyph-name="edieresis" unicode="&#xeb;" 
d="M1059 1460q0 -74 -53 -128t-127 -54t-126 54t-53 128q0 74 52 123t127 49q74 0 127 -49t53 -123zM561 1460q0 -74 -53 -128t-127 -54t-126 54t-52 128t52 123t126 49t127 -49t53 -123zM608 674q129 0 173 18t44 63q0 44 -42 80t-121 35q-186 0 -205 -196h151zM1186 709
q0 -165 -127 -225t-424 -60h-168q33 -166 279 -166t354 72h14v-90q0 -119 -106 -196t-332 -77q-282 0 -438 164t-156 418t162 433t404 179q242 1 390 -121t148 -331z" />
    <glyph glyph-name="igrave" unicode="&#xec;" horiz-adv-x="749" 
d="M512 1290h-94q-199 0 -307 45q-51 19 -88 71t-37 108t34 91q35 34 97 33q133 0 239 -110t156 -228v-10zM725 164q0 -180 -223 -180q-166 0 -268 90q-101 90 -101 278v740h96q165 0 229 -58t64 -211v-413q0 -74 36 -103t120 -28h47v-115z" />
    <glyph glyph-name="iacute" unicode="&#xed;" horiz-adv-x="749" 
d="M227 1290h-94v10q49 117 155 228t240 110q61 0 97 -33q35 -34 35 -90t-37 -108q-37 -51 -88 -72q-109 -45 -308 -45zM725 164q0 -180 -223 -180q-166 0 -268 90q-101 90 -101 278v740h96q165 0 229 -58t64 -211v-413q0 -74 36 -103t120 -28h47v-115z" />
    <glyph glyph-name="icircumflex" unicode="&#xee;" horiz-adv-x="749" 
d="M-25 1270q0 111 40 164t149 108l182 94l178 -92q111 -57 152 -112t41 -172v-48l-373 146l-369 -146v58zM725 164q0 -180 -223 -180q-166 0 -268 90q-101 90 -101 278v740h96q165 0 229 -58t64 -211v-413q0 -74 36 -103t120 -28h47v-115z" />
    <glyph glyph-name="idieresis" unicode="&#xef;" horiz-adv-x="749" 
d="M752 1462q0 -74 -54 -128t-127 -54q-74 0 -126 54t-52 128t52 123t126 49q73 0 127 -49t54 -123zM254 1462q0 -74 -53 -128t-127 -54t-126 54t-52 128t52 123t126 49t127 -49t53 -123zM725 164q0 -180 -223 -180q-166 0 -268 90q-101 90 -101 278v740h96q165 0 229 -58
t64 -211v-413q0 -74 36 -103t120 -28h47v-115z" />
    <glyph glyph-name="eth" unicode="&#xf0;" horiz-adv-x="1359" 
d="M895 551q0 301 -223 301q-104 0 -152 -78t-49 -190q0 -307 223 -308q106 0 154 80q47 80 47 195zM1278 571q0 -274 -168 -435t-431 -161t-430 155q-167 156 -167 412t158 415t426 159q121 0 223 -84q-23 80 -80 148t-127 92l-215 -144q-11 6 -24 16q-13 11 -23 19
q-10 9 -14 15l-12 18t-9 44q0 32 19 54t77 60q-94 18 -131 46t-37 77v102q248 0 424 -57l197 133q2 -3 19 -15q65 -48 65 -86q0 -70 -94 -127q354 -236 354 -759v-97z" />
    <glyph glyph-name="ntilde" unicode="&#xf1;" horiz-adv-x="1347" 
d="M899 1620q59 0 105 -46t45 -126q1 -80 -55 -134t-155 -54t-179 62t-115 60q-35 0 -57 -22t-21 -57v-43h-45q-55 0 -100 49q-46 49 -46 123t56 132q56 56 153 56q96 0 178 -60t117 -61q78 0 78 74v47h41zM1241 0h-164q-129 0 -177 50t-48 179v396q0 115 -42 167t-133 52
q-181 0 -181 -213v-631h-131q-258 0 -259 229v396q0 244 154 389t420 145q561 0 561 -545v-614z" />
    <glyph glyph-name="ograve" unicode="&#xf2;" horiz-adv-x="1359" 
d="M840 1290h-95q-199 0 -307 45q-51 19 -88 71t-37 108t35 91q35 34 96 33q133 0 240 -110t156 -228v-10zM893 556q0 134 -59 214q-58 80 -152 80t-154 -77t-61 -189q0 -311 223 -312q92 0 148 75q55 75 55 209zM82 554q0 261 172 432t425 171t426 -164q173 -165 173 -431
t-162 -430t-450 -163q-244 0 -414 162t-170 423z" />
    <glyph glyph-name="oacute" unicode="&#xf3;" horiz-adv-x="1359" 
d="M1010 1515q0 -55 -37 -107t-88 -73q-109 -45 -307 -45h-95v10q49 117 155 228t241 110q61 0 96 -34t35 -89zM893 556q0 134 -59 214q-58 80 -152 80t-154 -77t-61 -189q0 -311 223 -312q92 0 148 75q55 75 55 209zM82 554q0 261 172 432t425 171t426 -164
q173 -165 173 -431t-162 -430t-450 -163q-244 0 -414 162t-170 423z" />
    <glyph glyph-name="ocircumflex" unicode="&#xf4;" horiz-adv-x="1359" 
d="M307 1270q0 111 40 164t149 108l182 94l178 -92q111 -57 152 -112t41 -172v-48l-373 146l-369 -146v58zM893 556q0 134 -59 214q-58 80 -152 80t-154 -77t-61 -189q0 -311 223 -312q92 0 148 75q55 75 55 209zM82 554q0 261 172 432t425 171t426 -164q173 -165 173 -431
t-162 -430t-450 -163q-244 0 -414 162t-170 423z" />
    <glyph glyph-name="otilde" unicode="&#xf5;" horiz-adv-x="1359" 
d="M905 1620q59 0 105 -46t45 -126q1 -80 -55 -134t-155 -54t-179 62t-115 60q-35 0 -57 -22t-21 -57v-43h-45q-55 0 -100 49t-45 123t56 132q56 56 152 56q97 0 179 -60t116 -61q78 0 78 74v47h41zM893 556q0 134 -59 214q-58 80 -152 80t-154 -77t-61 -189
q0 -311 223 -312q92 0 148 75q55 75 55 209zM82 554q0 261 172 432t425 171t426 -164q173 -165 173 -431t-162 -430t-450 -163q-244 0 -414 162t-170 423z" />
    <glyph glyph-name="odieresis" unicode="&#xf6;" horiz-adv-x="1359" 
d="M1096 1458q0 -74 -54 -128t-127 -54t-125 54t-53 128q1 74 53 123t126 49t126 -49q54 -49 54 -123zM598 1458q0 -74 -53 -128t-127 -54t-126 54t-52 128t52 123t126 49t127 -49t53 -123zM893 556q0 134 -59 214q-58 80 -152 80t-154 -77t-61 -189q0 -311 223 -312
q92 0 148 75q55 75 55 209zM82 554q0 261 172 432t425 171t426 -164q173 -165 173 -431t-162 -430t-450 -163q-244 0 -414 162t-170 423z" />
    <glyph glyph-name="divide" unicode="&#xf7;" 
d="M410 219q0 90 64 155q65 64 155 64q91 0 155 -64t64 -155t-65 -155t-155 -64t-154 64t-64 155zM410 1026q0 90 64 155q65 65 155 65q91 0 155 -66q64 -64 64 -154t-65 -155t-155 -65t-154 65t-64 155zM973 473h-871v121q0 78 56 127t147 49h850v-127q0 -70 -55 -120
t-127 -50z" />
    <glyph glyph-name="oslash" unicode="&#xf8;" horiz-adv-x="1359" 
d="M897 545q0 45 -6 86l-318 -326q53 -37 117 -37q96 0 152 74q55 74 55 203zM658 858q-74 0 -134 -80t-61 -194q0 -51 6 -90l319 327q-56 37 -130 37zM1182 1159q30 -1 54 -23t24 -74t-29 -79l-55 -57q102 -150 102 -348q0 -281 -162 -446t-450 -165q-184 0 -330 94
l-90 -94h-64q-32 0 -54 23t-22 76t29 81l53 56q-106 145 -106 338q0 264 174 441t438 177q195 0 334 -92l90 92h64z" />
    <glyph glyph-name="ugrave" unicode="&#xf9;" horiz-adv-x="1351" 
d="M807 1290h-94q-199 0 -307 45q-50 19 -88 71t-38 108t35 91q35 34 97 33q134 0 240 -110t155 -228v-10zM1245 496q0 -262 -153 -396q-154 -133 -426 -133t-416 135q-143 135 -144 404v620h152q131 0 187 -51t57 -178v-401q0 -217 184 -217q166 0 166 231v616h152
q242 0 241 -229v-401z" />
    <glyph glyph-name="uacute" unicode="&#xfa;" horiz-adv-x="1351" 
d="M1010 1515q0 -55 -37 -107t-88 -73q-109 -45 -307 -45h-95v10q49 117 155 228t241 110q61 0 96 -34t35 -89zM1245 496q0 -262 -153 -396q-154 -133 -426 -133t-416 135q-143 135 -144 404v620h152q131 0 187 -51t57 -178v-401q0 -217 184 -217q166 0 166 231v616h152
q242 0 241 -229v-401z" />
    <glyph glyph-name="ucircumflex" unicode="&#xfb;" horiz-adv-x="1351" 
d="M291 1270q0 111 40 164t148 108l183 94l178 -92q112 -57 152 -112t40 -172v-48l-373 146l-368 -146v58zM1245 496q0 -262 -153 -396q-154 -133 -426 -133t-416 135q-143 135 -144 404v620h152q131 0 187 -51t57 -178v-401q0 -217 184 -217q166 0 166 231v616h152
q242 0 241 -229v-401z" />
    <glyph glyph-name="udieresis" unicode="&#xfc;" horiz-adv-x="1351" 
d="M1079 1458q0 -74 -53 -128t-127 -54t-126 54t-52 128t52 123t126 49t127 -49t53 -123zM582 1458q0 -74 -54 -128t-127 -54q-74 0 -126 54t-52 128t52 123t126 49q73 0 127 -49t54 -123zM1245 496q0 -262 -153 -396q-154 -133 -426 -133t-416 135q-143 135 -144 404v620
h152q131 0 187 -51t57 -178v-401q0 -217 184 -217q166 0 166 231v616h152q242 0 241 -229v-401z" />
    <glyph glyph-name="yacute" unicode="&#xfd;" horiz-adv-x="1193" 
d="M969 1515q0 -55 -37 -107t-88 -73q-109 -45 -307 -45h-95v10q50 117 156 228t240 110q61 0 96 -34t35 -89zM1163 983q1 -90 -69 -300t-178 -416t-182 -332q-74 -127 -148 -199t-131 -89t-155 -17t-163 50q-66 52 -65 144v94l168 12q76 6 118 38t72 104q-123 184 -252 509
t-162 545h203q76 0 139 -44t80 -115q55 -254 176 -533q63 129 121 330q57 201 76 362h186q166 0 166 -143z" />
    <glyph glyph-name="thorn" unicode="&#xfe;" horiz-adv-x="1388" 
d="M106 1516h138q129 0 190 -64t62 -205v-121q100 33 233 33q252 0 415 -157t163 -428q-1 -271 -149 -439t-384 -168q-116 0 -184 29t-105 96v-440h-141q-238 0 -238 272v1592zM494 539q0 -139 66 -204t161 -65q96 0 146 75q51 75 51 227t-56 221q-56 70 -178 69
q-74 0 -127 -62t-63 -163v-98z" />
    <glyph glyph-name="ydieresis" unicode="&#xff;" horiz-adv-x="1193" 
d="M1018 1462q0 -74 -53 -128t-127 -54t-126 54t-53 128q1 74 53 123t126 49t127 -49t53 -123zM520 1462q0 -74 -53 -128t-127 -54t-126 54t-52 128t52 123t126 49t127 -49t53 -123zM1163 983q1 -90 -69 -300t-178 -416t-182 -332q-74 -127 -148 -199t-131 -89t-155 -17
t-163 50q-66 52 -65 144v94l168 12q76 6 118 38t72 104q-123 184 -252 509t-162 545h203q76 0 139 -44t80 -115q55 -254 176 -533q63 129 121 330q57 201 76 362h186q166 0 166 -143z" />
    <glyph glyph-name="dotlessi" unicode="&#x131;" horiz-adv-x="749" 
d="M725 164q0 -180 -223 -180q-166 0 -268 90q-101 90 -101 278v740h96q165 0 229 -58t64 -211v-413q0 -74 36 -103t120 -28h47v-115z" />
    <glyph glyph-name="IJ" unicode="&#x132;" horiz-adv-x="1490" 
d="M1348 444q0 -221 -115 -343t-344 -121q-141 0 -224 59t-83 156v163h12q78 -63 215 -63q150 0 149 154v964h138q112 0 182 -59t70 -164v-746zM532 0h-208q-72 0 -126 58t-55 161v1194h217q64 0 118 -51t54 -131v-1231z" />
    <glyph glyph-name="ij" unicode="&#x133;" horiz-adv-x="1320" 
d="M1180 109q0 -264 -115 -379t-352 -115q-84 0 -136 42t-53 112v106h70q121 0 162 50t41 179v988h114q139 0 204 -71t65 -190v-722zM137 1092h96q165 0 229 -58t64 -211v-823h-75q-166 0 -240 69t-74 222v801zM524 1382q0 -80 -59 -136t-143 -56t-145 56q-60 56 -60 136
t60 136q61 56 145 57q84 -1 143 -57t59 -136zM1186 1382q0 -80 -60 -136t-145 -56q-84 0 -144 56t-61 136q0 80 60 136t145 57q85 -1 145 -57t60 -136z" />
    <glyph glyph-name="Lslash" unicode="&#x141;" horiz-adv-x="1138" 
d="M532 547q0 -139 48 -189t178 -51h61q199 0 299 43h10v-133q0 -233 -309 -233h-164q-258 0 -381 125t-131 380l-161 -69v119q0 69 30 115t111 81l20 8v670h164q225 0 225 -239v-263l250 109v-117q0 -72 -32 -117q-33 -44 -115 -81l-103 -46v-112z" />
    <glyph glyph-name="lslash" unicode="&#x142;" horiz-adv-x="780" 
d="M756 164q0 -94 -74 -137t-180 -43q-166 0 -276 99t-109 290v131l-197 -84v119q0 69 30 115t111 81l56 25v756h137q129 0 190 -64t62 -205v-319l215 92v-117q0 -72 -33 -117t-115 -81l-67 -31v-244q0 -74 40 -102t124 -29h86v-135z" />
    <glyph glyph-name="OE" unicode="&#x152;" horiz-adv-x="2103" 
d="M754 1126q-127 0 -205 -114t-78 -285q0 -225 89 -335t228 -109q100 0 159 84t59 345t-67 342q-37 44 -77 58t-108 14zM2042 184q0 -102 -85 -152t-276 -50h-96q-174 0 -276 41t-154 137q-151 -193 -425 -193t-461 196q-187 195 -187 529t179 543t515 209q94 0 198 -40
t161 -110q20 47 63 83t92 36h744v-127q0 -82 -64 -134t-170 -52h-409q-23 -121 -23 -236h518v-131q0 -86 -58 -129t-159 -43h-303v-61q0 -115 53 -161t205 -46h57q186 0 361 41v-150z" />
    <glyph glyph-name="oe" unicode="&#x153;" horiz-adv-x="2052" 
d="M893 545q0 307 -223 307q-84 0 -144 -79t-59 -211q0 -132 60 -209q59 -77 159 -77t154 72q53 72 53 197zM1401 674q129 0 173 18t44 63q0 44 -42 79t-122 34q-186 0 -205 -194h152zM1978 709q0 -163 -127 -223t-424 -60h-167q16 -76 78 -120t165 -44q285 0 389 70h15v-88
q-1 -119 -107 -197t-350 -78t-399 156q-123 -156 -376 -156t-423 164t-170 417t175 431t437 178q117 0 227 -42t179 -122q62 76 162 120t213 44q213 1 358 -121t145 -329z" />
    <glyph glyph-name="Scaron" unicode="&#x160;" horiz-adv-x="1261" 
d="M1022 1888q0 -111 -40 -164t-148 -108l-183 -94l-178 92q-111 57 -151 112t-41 172v48l372 -146l369 146v-58zM1184 449q0 -221 -156 -351t-436 -131q-231 0 -355 84t-124 238v139h10q63 -66 186 -104t251 -39q128 1 181 33t53 98t-60 98q-62 31 -232 66
q-229 45 -328 136q-98 91 -98 253q0 197 164 337t415 140t371 -90t119 -213v-150h-10q-68 68 -181 102t-231 33q-258 0 -258 -131q0 -53 52 -84t255 -71q204 -40 308 -136q104 -95 104 -257z" />
    <glyph glyph-name="scaron" unicode="&#x161;" horiz-adv-x="1105" 
d="M954 1606q0 -111 -40 -164t-148 -109l-182 -94l-178 92q-111 57 -152 113t-41 172v47l373 -145l368 145v-57zM1024 362q0 -182 -133 -288t-365 -107q-418 0 -417 277v112h10q131 -98 331 -98t201 88q0 42 -46 62t-214 43q-309 43 -309 301q0 192 152 300t352 108
q198 0 304 -73q106 -72 107 -196v-117h-10q-129 94 -334 94t-204 -86q0 -33 44 -50q43 -17 203 -44q328 -55 328 -326z" />
    <glyph glyph-name="Ydieresis" unicode="&#x178;" horiz-adv-x="1288" 
d="M1059 1698q0 -74 -53 -128t-127 -54t-126 54t-53 128q0 74 52 123t127 49q74 0 127 -49t53 -123zM561 1698q0 -74 -53 -128t-127 -54t-126 54t-52 128t52 123t126 49t127 -49t53 -123zM1268 1288q0 -82 -154 -322t-270 -374v-592h-170q-86 0 -153 58t-66 159v377
q-131 164 -252 381t-193 438h197q88 0 149 -36t84 -85q92 -203 228 -397q188 266 268 518h184q66 0 107 -38t41 -87z" />
    <glyph glyph-name="Zcaron" unicode="&#x17d;" horiz-adv-x="1312" 
d="M1008 1886q0 -111 -40 -164t-149 -108l-182 -94l-178 92q-111 57 -152 112t-41 172v48l373 -146l369 146v-58zM1239 186q0 -78 -58 -132t-147 -54h-778q-59 0 -121 53q-61 53 -61 137t43 165t172 223l329 362q57 61 103 141h-643v117q0 102 64 159q65 56 190 56h645
q106 0 172 -53q65 -53 65 -141t-28 -161t-115 -169l-328 -375q-133 -150 -159 -188h655v-140z" />
    <glyph glyph-name="zcaron" unicode="&#x17e;" horiz-adv-x="1142" 
d="M913 1606q0 -111 -40 -164t-148 -109l-182 -94l-178 92q-111 57 -152 113t-41 172v47l373 -145l368 145v-57zM1081 158q0 -62 -55 -110t-133 -48h-602q-98 0 -163 46t-65 150t138 240l336 328q41 41 55 74h-531v108q-1 84 63 132t144 48h570q100 0 162 -56t62 -160
t-167 -267l-279 -270q-35 -35 -53 -76h518v-139z" />
    <glyph glyph-name="longs" unicode="&#x17f;" horiz-adv-x="774" 
d="M836 1233h-11q-59 31 -151 31t-134 -35q-44 -35 -44 -86v-1512h-119q-137 -1 -199 57t-61 185v1145q0 144 40 250t109 162q135 106 288 106q154 0 218 -59t64 -154v-90z" />
    <glyph glyph-name="florin" unicode="&#x192;" 
d="M1012 1157q-74 0 -112 -51t-52 -154l-12 -84h307v-102q-1 -64 -59 -106t-162 -42h-117l-62 -413q-35 -229 -131 -327t-295 -99q-123 0 -191 48t-69 118v147q68 -37 185 -37q66 0 100 41t47 146l49 376h-264v99q0 65 57 107t127 42h115l12 92q29 211 149 338t335 127
q107 0 169 -48t62 -120v-139q-73 41 -188 41z" />
    <glyph glyph-name="circumflex" unicode="&#x2c6;" horiz-adv-x="1241" 
d="M250 1270q0 111 40 164t148 108l183 94l178 -92q111 -57 151 -112t41 -172v-48l-373 146l-368 -146v58z" />
    <glyph glyph-name="caron" unicode="&#x2c7;" horiz-adv-x="1249" 
d="M995 1606q0 -111 -40 -164t-148 -109l-182 -94l-179 92q-112 57 -152 113t-40 172v47l373 -145l368 145v-57z" />
    <glyph glyph-name="breve" unicode="&#x2d8;" horiz-adv-x="1040" 
d="M494 1411q100 0 185 47t126 109v-74q0 -127 -92 -212t-222 -85t-222 86q-91 86 -91 221v60q133 -152 316 -152z" />
    <glyph glyph-name="dotaccent" unicode="&#x2d9;" horiz-adv-x="854" 
d="M217 1468q-1 88 61 148t150 61q88 0 148 -60q60 -61 61 -149q0 -88 -60 -149q-61 -61 -149 -61t-150 60q-62 62 -61 150z" />
    <glyph glyph-name="ring" unicode="&#x2da;" horiz-adv-x="819" 
d="M522 1488q0 38 -24 66t-72 29q-47 0 -73 -27q-25 -26 -25 -66t24 -69t72 -29q47 0 73 29q25 29 25 67zM125 1492q0 118 88 186t219 67t209 -71t78 -185t-82 -187t-213 -71q-131 0 -215 71q-84 72 -84 190z" />
    <glyph glyph-name="ogonek" unicode="&#x2db;" horiz-adv-x="983" 
d="M717 -313q0 -127 -209 -127q-94 0 -159 51t-64 139q0 154 194 250l41 20h156l-125 -112q-49 -45 -63 -69t-15 -66q1 -55 69 -55t175 67v-98z" />
    <glyph glyph-name="tilde" unicode="&#x2dc;" horiz-adv-x="1132" 
d="M952 1448q0 -80 -55 -134t-154 -54t-179 62t-116 60q-34 0 -56 -22t-21 -57v-43h-45q-55 0 -101 49q-45 49 -45 123t56 132q56 56 153 56q96 0 178 -60t117 -61q78 0 78 74v47h41q59 0 104 -46t45 -126z" />
    <glyph glyph-name="hungarumlaut" unicode="&#x2dd;" horiz-adv-x="761" 
d="M317 1591q100 0 101 -86q-1 -73 -105 -145q-41 -29 -117 -61t-114 -35l-59 -9v23q23 76 109 194t185 119zM672 1591q100 0 100 -86q0 -73 -104 -145q-41 -29 -117 -61t-115 -35l-59 -9v23q23 76 109 194t186 119z" />
    <glyph glyph-name="uni0394" unicode="&#x394;" horiz-adv-x="1361" 
d="M942 291q-43 153 -139 433t-135 357q-40 -77 -142 -367t-141 -423h557zM190 0q-180 0 -180 175t172 629t342 630h152q184 0 274 -148q113 -186 240 -567t172 -719h-1172z" />
    <glyph glyph-name="uni03A9" unicode="&#x3a9;" horiz-adv-x="1572" 
d="M1098 766q0 438 -316 438q-154 0 -230 -110q-77 -110 -77 -293q0 -342 197 -420v-381h-424q-88 0 -147 54q-58 54 -58 132v140h176q-133 174 -133 436q0 346 193 552t530 206q276 0 477 -195t201 -507t-135 -492h176v-140q0 -78 -58 -132t-147 -54h-414l-2 379
q90 37 141 136q50 99 50 251z" />
    <glyph glyph-name="uni03BC" unicode="&#x3bc;" 
d="M481 -369h-170q-80 -1 -141 59t-61 160v1276h145q127 0 183 -51t57 -178v-422q0 -113 32 -156t116 -43q83 0 119 54t36 180v616h147q238 0 238 -229v-401q0 -248 -129 -390t-375 -141q-109 0 -197 107v-441z" />
    <glyph glyph-name="pi" unicode="&#x3c0;" horiz-adv-x="1400" 
d="M1196 0h-164q-129 0 -177 50t-48 179v523h-213v-752h-131q-258 0 -258 229v523h-144v166q-1 94 53 151t134 57h1091v-170q0 -76 -42 -130t-101 -70v-756z" />
    <glyph glyph-name="uni2007" unicode="&#x2007;" 
 />
    <glyph glyph-name="uni2008" unicode="&#x2008;" horiz-adv-x="491" 
 />
    <glyph glyph-name="uni200B" unicode="&#x200b;" horiz-adv-x="0" 
 />
    <glyph glyph-name="endash" unicode="&#x2013;" 
d="M973 473h-871v121q0 78 56 127t147 49h850v-127q0 -70 -55 -120t-127 -50z" />
    <glyph glyph-name="emdash" unicode="&#x2014;" horiz-adv-x="1890" 
d="M1651 485h-1583v125q0 70 52 115t140 45h1563v-129q0 -63 -52 -109t-120 -47z" />
    <glyph glyph-name="quoteleft" unicode="&#x2018;" horiz-adv-x="567" 
d="M82 1126q0 178 107 304q108 125 264 124h63v-18q-49 -28 -90 -96t-41 -132t51 -106q74 -66 74 -150t-56 -138t-154 -54t-158 72t-60 194z" />
    <glyph glyph-name="quoteright" unicode="&#x2019;" horiz-adv-x="567" 
d="M485 1249q-1 -176 -109 -302t-261 -126h-64v19q49 28 90 96t41 129t-51 109q-74 66 -74 150q1 84 57 137q56 55 154 55t158 -72t59 -195z" />
    <glyph glyph-name="quotesinglbase" unicode="&#x201a;" horiz-adv-x="567" 
d="M489 162q-1 -176 -109 -302t-261 -126h-64v18q49 28 90 96t41 132t-51 106q-74 66 -74 150q1 84 57 138t154 54t158 -72t59 -194z" />
    <glyph glyph-name="quotedblleft" unicode="&#x201c;" horiz-adv-x="1114" 
d="M61 1126q0 178 108 304t263 124h64v-18q-49 -28 -90 -96t-41 -132t51 -106q74 -66 74 -150t-57 -138q-56 -54 -154 -54t-158 72t-60 194zM608 1126q0 176 109 302t262 126h63v-18q-49 -28 -90 -96t-41 -129t52 -109q73 -66 73 -150t-56 -138t-154 -54t-158 72t-60 194z
" />
    <glyph glyph-name="quotedblright" unicode="&#x201d;" horiz-adv-x="1114" 
d="M506 1251q0 -176 -109 -302t-262 -126h-63v19q49 28 90 96t41 130q-1 62 -63 118t-62 140t56 137q56 55 154 55t158 -72t60 -195zM1053 1251q0 -176 -109 -302t-262 -126h-64v19q48 28 90 96t42 132t-52 106q-74 66 -74 150t57 137q56 55 154 55t158 -72t60 -195z" />
    <glyph glyph-name="quotedblbase" unicode="&#x201e;" horiz-adv-x="1114" 
d="M504 162q0 -176 -109 -302t-262 -126h-63v18q49 28 90 96t41 132t-51 106q-74 66 -74 150t56 138t154 54t158 -72t60 -194zM1036 162q0 -176 -108 -302t-262 -126h-64v18q49 28 90 96t41 132t-51 106q-74 66 -74 150t56 138t155 54q97 0 157 -72t60 -194z" />
    <glyph glyph-name="dagger" unicode="&#x2020;" horiz-adv-x="1130" 
d="M1081 1014q0 -80 -61 -140t-164 -59h-135v-1128h-115q-78 0 -142 62t-65 177v889h-360v133q0 70 52 125t136 55h172v428h138q72 0 128 -51t56 -131v-246h360v-114z" />
    <glyph glyph-name="daggerdbl" unicode="&#x2021;" horiz-adv-x="1130" 
d="M858 180h-141v-528h-131q-84 0 -132 49t-48 121v358h-343v121q-1 63 49 117t132 53h162v363h-343v122q-1 64 49 116t132 52h162v392h151q74 0 117 -44t43 -108v-240h344v-118q0 -78 -56 -125t-147 -47h-141v-363h344v-121q-1 -78 -57 -124t-146 -46z" />
    <glyph glyph-name="bullet" unicode="&#x2022;" horiz-adv-x="778" 
d="M72 745q0 135 93 227t225 91q132 0 224 -90q92 -89 92 -227t-90 -228q-92 -90 -227 -90t-226 91t-91 226z" />
    <glyph glyph-name="ellipsis" unicode="&#x2026;" horiz-adv-x="1890" 
d="M115 219q0 90 64 155q65 64 155 64t154 -64t65 -155q0 -91 -65 -155q-64 -64 -154 -64t-154 64t-65 155zM729 219q0 90 65 155q64 64 154 64t155 -64t65 -155t-66 -155q-64 -64 -154 -64t-154 64t-65 155zM1343 219q0 90 65 155q65 64 155 64q91 0 155 -64t64 -155
t-65 -155t-155 -64t-154 64q-65 64 -65 155z" />
    <glyph glyph-name="perthousand" unicode="&#x2030;" horiz-adv-x="3110" 
d="M1825 418q0 244 -115 244q-45 0 -74 -54t-28 -159q0 -248 116 -248q45 -1 73 55t28 162zM2722 418q0 244 -115 244q-45 0 -74 -54t-28 -159q0 -248 116 -248q45 -1 73 55t28 162zM561 956q0 246 -115 246q-46 0 -74 -55t-28 -160q0 -246 117 -246q45 1 73 55t27 160z
M1716 897q186 1 292 -133t106 -330t-106 -331q-106 -136 -290 -136q-186 0 -292 133q-105 133 -105 329t105 332q104 136 290 136zM2614 897q186 1 291 -133q106 -134 106 -330q1 -196 -105 -331q-106 -136 -292 -136t-291 133t-105 329t105 332t291 136zM1509 1278
q0 -57 -30 -119l-598 -1159h-97q-63 0 -105 33t-42 93t31 122l604 1171h96q59 0 100 -42t41 -99zM850 974q0 -194 -106 -330t-290 -136q-186 0 -291 132t-105 328t104 332q106 138 292 138t290 -134q106 -136 106 -330z" />
    <glyph glyph-name="guilsinglleft" unicode="&#x2039;" horiz-adv-x="694" 
d="M502 154q-174 0 -254 112l-221 314l221 315q76 109 254 109h133l-277 -424l277 -426h-133z" />
    <glyph glyph-name="guilsinglright" unicode="&#x203a;" horiz-adv-x="694" 
d="M178 154h-133l277 426l-277 424h133q178 0 254 -109l221 -315l-221 -314q-80 -112 -254 -112z" />
    <glyph glyph-name="fraction" unicode="&#x2044;" horiz-adv-x="989" 
d="M815 1516q59 0 96 -46t37 -110t-30 -127l-633 -1233h-97q-59 0 -96 46t-37 110t31 127l633 1233h96z" />
    <glyph glyph-name="uni2070" unicode="&#x2070;" horiz-adv-x="894" 
d="M375 997q0 -193 74 -192q43 0 57 39t14 147q0 109 -16 149t-55 40t-57 -39q-17 -40 -17 -144zM840 1012q0 -471 -398 -471q-160 1 -274 115t-113 338q-1 224 105 338t288 114t288 -104q104 -104 104 -330z" />
    <glyph glyph-name="uni2074" unicode="&#x2074;" horiz-adv-x="929" 
d="M420 961v145q-53 -57 -123 -145h123zM762 711h-29v-156h-153q-92 0 -126 29t-34 106v21h-254q-66 -1 -108 35t-42 99t67 159t186 231q120 135 196 190h96q80 0 126 -46t46 -134v-282h152v-136q0 -51 -34 -83t-89 -33z" />
    <glyph glyph-name="uni2075" unicode="&#x2075;" horiz-adv-x="894" 
d="M500 1124q129 0 215 -72t86 -209q1 -138 -105 -220t-270 -82q-305 0 -305 202v125h6q76 -74 224 -74t149 52q0 59 -136 59t-229 -18v352q0 96 37 141t127 45h475v-143q0 -57 -38 -90t-107 -33h-209v-37q16 2 80 2z" />
    <glyph glyph-name="uni2076" unicode="&#x2076;" horiz-adv-x="890" 
d="M383 860q0 -74 78 -74q25 0 43 14t18 38q0 59 -69 59q-27 0 -49 -12q-21 -13 -21 -25zM819 857q0 -128 -97 -222q-96 -94 -270 -94q-174 -1 -273 109t-99 324t121 343t319 129q111 0 186 -51t74 -140v-116h-6q-74 61 -180 61t-157 -41q-50 -41 -52 -92q21 29 69 48t85 20
q131 0 205 -75t75 -203z" />
    <glyph glyph-name="uni2077" unicode="&#x2077;" horiz-adv-x="901" 
d="M684 1425q61 1 96 -29t35 -87t-80 -193l-153 -254q-61 -109 -62 -198v-103h-182q-131 0 -131 121q0 111 76 233l104 172q39 63 57 109h-378v102q0 127 131 127h487z" />
    <glyph glyph-name="uni2078" unicode="&#x2078;" horiz-adv-x="903" 
d="M512 840q0 18 -16 32t-47 14t-47 -14t-17 -32q-1 -57 63 -57t64 57zM449 1204q-59 0 -60 -45q-1 -47 59 -47t60 46t-59 46zM811 815q0 -119 -100 -197q-101 -78 -263 -78t-261 74q-99 72 -99 193q0 57 41 115t92 73q-53 19 -91 69t-38 116q0 122 110 194t249 72t247 -69
t107 -189q0 -66 -40 -117t-87 -67q45 -16 89 -74t44 -115z" />
    <glyph glyph-name="uni2079" unicode="&#x2079;" horiz-adv-x="890" 
d="M508 1120q0 72 -72 72q-31 0 -49 -20t-18 -46q0 -55 65 -55q34 -1 54 15t20 34zM809 1018q0 -230 -101 -354t-294 -123q-133 0 -215 53t-82 145v129h6q82 -82 244 -82q71 0 107 38t36 75q-41 -57 -129 -57q-127 0 -219 62t-92 208t104 240t266 94t266 -99
q103 -99 103 -329z" />
    <glyph glyph-name="uni2080" unicode="&#x2080;" horiz-adv-x="894" 
d="M375 14q0 -193 74 -192q43 0 57 39t14 147t-16 148t-55 41q-39 0 -57 -39q-17 -40 -17 -144zM840 29q0 -471 -398 -471q-160 0 -274 114t-113 338q-1 224 105 338t288 115q182 -1 288 -105q104 -104 104 -329z" />
    <glyph glyph-name="uni2081" unicode="&#x2081;" horiz-adv-x="755" 
d="M571 -422h-151q-78 0 -123 44t-45 128v393l-66 -20q-31 -10 -75 -10q-88 0 -105 104l-16 96l231 93q97 36 181 36t126 -39t43 -110v-715z" />
    <glyph glyph-name="uni2082" unicode="&#x2082;" horiz-adv-x="897" 
d="M639 -422h-436q-63 0 -101 34q-37 34 -36 89q0 100 145 207l192 141q49 37 50 84q0 70 -113 70q-172 0 -252 -105h-6v121q0 86 93 165t258 79t255 -86t90 -212t-135 -220l-84 -58q-39 -27 -59 -43h295v-137q0 -61 -41 -95t-115 -34z" />
    <glyph glyph-name="uni2083" unicode="&#x2083;" horiz-adv-x="901" 
d="M422 -442q-318 0 -318 206v132h7q84 -84 260 -84q109 0 108 47q0 31 -24 44q-25 13 -101 15q-106 4 -106 105v61l121 12q104 10 104 62t-135 51q-135 0 -223 -88h-6v139q0 86 82 144q83 58 231 58t248 -69t100 -193t-127 -186q51 -14 92 -64t41 -110q0 -137 -100 -210
q-102 -72 -254 -72z" />
    <glyph glyph-name="uni2084" unicode="&#x2084;" horiz-adv-x="929" 
d="M420 -23v146q-53 -57 -123 -146h123zM762 -272h-29v-156h-153q-92 0 -126 29t-34 106v21h-254q-66 0 -108 36t-42 98q0 63 67 159t186 231q120 135 196 190h96q80 0 126 -46t46 -134v-282h152v-136q0 -52 -34 -84t-89 -32z" />
    <glyph glyph-name="uni2085" unicode="&#x2085;" horiz-adv-x="894" 
d="M500 141q129 1 215 -71t86 -210q1 -138 -105 -220t-270 -82q-305 0 -305 202v125h6q76 -73 224 -73t149 51q0 59 -136 59t-229 -18v352q0 96 37 141t127 45h475v-143q0 -57 -38 -90t-107 -33h-209v-37q16 2 80 2z" />
    <glyph glyph-name="uni2086" unicode="&#x2086;" horiz-adv-x="890" 
d="M383 -123q0 -74 78 -74q25 1 43 15t18 37q0 59 -69 59q-27 0 -49 -12q-21 -13 -21 -25zM819 -126q0 -128 -97 -222q-96 -94 -270 -94t-273 110t-99 323q0 214 121 343t319 129q111 0 186 -51t74 -140v-116h-6q-74 61 -180 61t-157 -41q-50 -41 -52 -92q21 29 69 48t85 20
q131 0 205 -75t75 -203z" />
    <glyph glyph-name="uni2087" unicode="&#x2087;" horiz-adv-x="901" 
d="M684 442q61 0 96 -30t35 -86q0 -57 -80 -193l-153 -254q-61 -109 -62 -198v-103h-182q-131 0 -131 121q0 111 76 233l104 172q39 63 57 109h-378v102q0 127 131 127h487z" />
    <glyph glyph-name="uni2088" unicode="&#x2088;" horiz-adv-x="903" 
d="M512 -143q0 18 -16 32q-16 15 -47 15t-47 -14t-17 -33q-1 -57 63 -57t64 57zM449 221q-59 0 -60 -45q-1 -47 59 -47t60 46t-59 46zM811 -168q0 -119 -100 -197q-101 -77 -263 -77t-261 72t-99 194q0 56 41 114t92 74q-53 20 -91 70t-38 115q0 121 110 193t249 73
q139 0 247 -69t107 -189q0 -66 -40 -117t-87 -68q45 -16 89 -74t44 -114z" />
    <glyph glyph-name="uni2089" unicode="&#x2089;" horiz-adv-x="890" 
d="M508 137q0 72 -72 72q-31 1 -49 -19t-18 -47q0 -55 65 -55q34 0 54 16t20 33zM809 34q0 -230 -101 -352q-101 -124 -294 -124q-133 0 -215 53t-82 145v129h6q82 -82 244 -82q71 0 107 38t36 75q-41 -57 -129 -57q-127 0 -219 62q-92 61 -92 207t104 240t266 95
q162 0 266 -99q103 -100 103 -330z" />
    <glyph glyph-name="Euro" unicode="&#x20ac;" 
d="M1051 653v-59q0 -66 -42 -105t-122 -38h-269q31 -184 263 -185q104 0 186 35t127 88h8v-127q0 -135 -108 -213t-289 -78q-225 0 -383 133t-195 347h-180v81q0 121 129 121h31q-4 25 -4 51t4 39h-160v78q0 125 129 125h57q51 244 208 370t382 126q167 0 273 -77t106 -226
v-129h-8q-90 137 -305 137q-111 0 -183 -52t-90 -149h435v-59q0 -66 -42 -105t-122 -39h-297q-4 -20 -4 -47t4 -43h461z" />
    <glyph glyph-name="afii61289" unicode="&#x2113;" horiz-adv-x="1191" 
d="M563 1034v-260q211 231 211 412q0 143 -98 143q-113 0 -113 -295zM231 999q0 273 116 415t298 142t267 -108t85 -276q-1 -170 -109 -336t-323 -355v-73q2 -74 50 -119t120 -45q152 0 279 182l137 -143q-170 -309 -507 -309t-404 307l-2 16l-105 -72l-84 172l182 138v464z
" />
    <glyph glyph-name="trademark" unicode="&#x2122;" horiz-adv-x="1703" 
d="M532 1219h-92v-594h-98q-53 -1 -89 29t-36 94v471h-207v86q0 45 34 81t91 35h520v-86q0 -43 -37 -79t-86 -37zM1534 625q-57 1 -94 35t-37 98q0 147 -12 315q-9 -28 -58 -191t-100 -257h-64q-59 0 -101 51t-77 168q0 2 -26 91q-27 89 -43 144q-16 -219 -17 -454h-86
q-51 0 -90 37t-39 96q0 322 66 674h78q162 0 210 -136l50 -133q37 -98 67 -207q27 94 121 330q39 96 90 146h41q158 0 180 -185q39 -317 39 -622h-98z" />
    <glyph glyph-name="Omega" unicode="&#x2126;" horiz-adv-x="1572" 
d="M1098 766q0 438 -316 438q-154 0 -230 -110q-77 -110 -77 -293q0 -342 197 -420v-381h-424q-88 0 -147 54q-58 54 -58 132v140h176q-133 174 -133 436q0 346 193 552t530 206q276 0 477 -195t201 -507t-135 -492h176v-140q0 -78 -58 -132t-147 -54h-414l-2 379
q90 37 141 136q50 99 50 251z" />
    <glyph glyph-name="estimated" unicode="&#x212e;" horiz-adv-x="1781" 
d="M1409 739v404q0 29 -18 49q-213 209 -500 209t-500 -217q-20 -18 -20 -49v-396q0 -14 10 -14h1020q8 0 8 14zM1712 686h-1331q-10 0 -10 -8v-404q0 -27 18 -45q213 -219 502 -219q156 0 293 66t237 178h117q-111 -131 -283 -208t-366 -77q-340 0 -580 216
q-239 215 -239 521t239 523q240 217 585 217t582 -222q236 -223 236 -538z" />
    <glyph glyph-name="arrowleft" unicode="&#x2190;" horiz-adv-x="2048" 
d="M1929 741q1 -141 -67 -203t-217 -63h-893l569 -573h-295q-197 0 -367 170l-583 585l583 586q170 170 367 170h295l-569 -573h1177v-99z" />
    <glyph glyph-name="arrowup" unicode="&#x2191;" horiz-adv-x="1744" 
d="M956 -348q-141 0 -203 68t-63 217v892l-573 -569v295q0 197 170 367l585 583l586 -583q170 -170 170 -367v-295l-573 569v-1177h-99z" />
    <glyph glyph-name="arrowright" unicode="&#x2192;" horiz-adv-x="2048" 
d="M123 573q0 141 67 204q68 62 218 63h892l-569 573h295q197 0 367 -170l583 -586l-583 -585q-170 -170 -367 -170h-295l569 573h-1177v98z" />
    <glyph glyph-name="arrowdown" unicode="&#x2193;" horiz-adv-x="1744" 
d="M778 1475q142 0 204 -68t62 -217v-893l574 569v-295q0 -197 -170 -366l-586 -584l-586 584q-170 170 -170 366v295l574 -569v1178h98z" />
    <glyph glyph-name="uni2196" unicode="&#x2196;" horiz-adv-x="1773" 
d="M195 494v829h829q242 0 379 -139l209 -213h-807l831 -832l-69 -69q-99 -98 -189 -98t-198 108l-637 637v-811l-209 209q-139 139 -139 379z" />
    <glyph glyph-name="uni2197" unicode="&#x2197;" horiz-adv-x="1773" 
d="M236 127q0 90 108 199l637 637h-811l209 208q139 139 379 140h829v-830q0 -242 -139 -379l-213 -208v806l-832 -831l-69 70q-98 98 -98 188z" />
    <glyph glyph-name="uni2198" unicode="&#x2198;" horiz-adv-x="1773" 
d="M399 1188q90 0 199 -109l637 -637v811l209 -209q139 -139 139 -378v-830h-829q-242 0 -379 139l-209 213h807l-832 832l70 70q98 98 188 98z" />
    <glyph glyph-name="uni2199" unicode="&#x2199;" horiz-adv-x="1773" 
d="M1538 1020q0 -90 -108 -199l-637 -637h811l-209 -209q-139 -139 -379 -139h-830v830q0 242 140 378l213 209v-807l831 832l70 -70q98 -98 98 -188z" />
    <glyph glyph-name="partialdiff" unicode="&#x2202;" horiz-adv-x="1224" 
d="M754 551q0 33 -37 80t-113 69q-25 6 -45 7q-59 0 -107 -41q-75 -64 -75 -189t133 -166q37 -10 63 -10q63 0 107 50q43 50 72 161q2 6 2 39zM600 -35q-76 0 -145 19q-215 61 -328 206t-113 328q0 70 21 156q90 350 424 350q204 0 311 -90q51 -43 68 -92q14 57 14 116
q0 186 -182 234q-102 29 -214 29t-206 -54l-10 2l39 150q25 96 105 149q80 54 188 54t202 -29q424 -123 424 -588q0 -170 -55 -385q-76 -291 -220 -423t-323 -132z" />
    <glyph glyph-name="Delta" unicode="&#x2206;" horiz-adv-x="1361" 
d="M942 291q-43 153 -139 433t-135 357q-40 -77 -142 -367t-141 -423h557zM190 0q-180 0 -180 175t172 629t342 630h152q184 0 274 -148q113 -186 240 -567t172 -719h-1172z" />
    <glyph glyph-name="product" unicode="&#x220f;" horiz-adv-x="1400" 
d="M1196 -340h-164q-129 0 -177 50t-48 179v1211h-213v-1440h-131q-258 0 -258 229v1211h-144v166q-1 94 53 151t134 58h1091v-170q0 -76 -42 -130t-101 -71v-1444z" />
    <glyph glyph-name="summation" unicode="&#x2211;" horiz-adv-x="1460" 
d="M1300 -10v-140q0 -78 -58 -132t-146 -54h-779q-59 0 -120 53t-61 137t42 166q43 80 172 222l295 325l-295 328q-129 145 -172 225t-43 163q-1 83 61 136t121 54h779q88 -1 146 -55t58 -132v-139h-655q27 -39 160 -189l317 -364q20 -25 0 -51l-317 -365
q-133 -150 -160 -188h655z" />
    <glyph glyph-name="minus" unicode="&#x2212;" horiz-adv-x="1206" 
d="M1040 750v-132q0 -63 -38 -99t-107 -36h-776v125q0 62 38 102t103 40h780z" />
    <glyph glyph-name="uni2219" unicode="&#x2219;" horiz-adv-x="1212" 
d="M289 745q0 135 93 227t225 91q132 0 224 -90q93 -89 93 -227t-91 -228t-227 -90t-226 91q-91 91 -91 226z" />
    <glyph glyph-name="radical" unicode="&#x221a;" horiz-adv-x="1212" 
d="M660 -90q-68 0 -122 36t-108 109q-123 174 -230 428q-108 254 -149 488h170q78 0 131 -41t70 -92q4 -14 180 -478q45 218 117 600t98 510q14 72 83 105t159 33h153l-389 -1596q-10 -46 -53 -74q-42 -28 -110 -28z" />
    <glyph glyph-name="infinity" unicode="&#x221e;" horiz-adv-x="1460" 
d="M398 903q-66 0 -100 -50t-34 -120t32 -120t102 -50t111 42q42 42 85 132q-45 84 -88 125q-42 41 -108 41zM1200 734q0 75 -36 120t-100 45t-106 -38t-81 -130q61 -125 119 -153q30 -14 65 -15q71 0 105 48t34 123zM1425 734q0 -176 -91 -290t-275 -114t-318 200
q-141 -203 -352 -202q-180 0 -267 114t-87 288q0 173 93 292t261 119q195 0 334 -201q75 98 151 150t187 51q176 0 270 -115t94 -292z" />
    <glyph glyph-name="integral" unicode="&#x222b;" horiz-adv-x="561" 
d="M644 1280q-96 0 -140 -53q-43 -53 -43 -152v-1081q0 -426 -426 -426q-123 0 -192 48t-68 118v147q68 -37 184 -37q67 0 99 41t40 146v1050q0 203 131 334t353 131q106 0 168 -48t63 -120v-139q-73 41 -169 41z" />
    <glyph glyph-name="approxequal" unicode="&#x2248;" horiz-adv-x="1208" 
d="M1069 469q0 -109 -79 -181t-212 -71q-79 0 -180 49l-35 19q-66 33 -127 32q-66 0 -65 -114h-99q-55 0 -95 46t-40 126t50 140q88 106 239 106q88 -1 192 -51t148 -50q43 0 57 25t15 86h112q51 0 85 -45t34 -117zM1069 934q0 -108 -79 -180t-212 -72q-86 0 -180 51l-35 17
q-66 33 -127 32q-66 0 -65 -114h-99q-55 0 -95 46t-40 126t50 140q89 108 239 105q88 0 192 -50t148 -50q43 0 57 25t15 86h112q51 0 85 -45t34 -117z" />
    <glyph glyph-name="notequal" unicode="&#x2260;" 
d="M1102 985v-111q0 -57 -53 -97t-121 -40h-154l-92 -176h420v-110q0 -61 -52 -97t-122 -37h-373l-184 -352h-76q-43 0 -72 35t-29 87t27 103l66 127h-201v105q0 61 49 100t127 39h152l92 176h-420v109q0 61 49 100t127 39h375l178 344h76q43 0 73 -35t30 -87t-27 -103
l-62 -119h197z" />
    <glyph glyph-name="lessequal" unicode="&#x2264;" 
d="M1137 143q0 -59 -43 -101t-101 -42h-884v98q0 62 41 106t102 44h885v-105zM1067 512q0 -66 -41 -106t-111 -41q-31 -1 -143 39t-330 150q-219 110 -356 210v63q0 72 127 147q127 76 405 192t431 149q45 -51 45 -121q-4 -135 -185 -193q-55 -16 -225 -94l-170 -78
q68 -41 253 -127t300 -122v-68z" />
    <glyph glyph-name="greaterequal" unicode="&#x2265;" 
d="M1137 143q0 -59 -43 -101t-101 -42h-884v98q0 62 41 106t102 44h885v-105zM154 1167q0 66 41 107t110 41q31 0 143 -40t330 -150t357 -210v-63q0 -72 -127 -146t-406 -192q-279 -117 -430 -149q-45 51 -45 120q4 135 184 193q55 16 226 94l170 78q-68 41 -253 127
t-300 123v67z" />
    <glyph glyph-name="dotmath" unicode="&#x22c5;" horiz-adv-x="1212" 
d="M395 616q-1 88 61 148t150 61q88 0 148 -60q60 -61 61 -149q0 -88 -60 -149q-61 -61 -149 -61t-150 61t-61 149z" />
    <glyph glyph-name="H18543" unicode="&#x25aa;" horiz-adv-x="1429" 
d="M143 0v1126h1127v-1126h-1127z" />
    <glyph glyph-name="triagup" unicode="&#x25b2;" horiz-adv-x="1656" 
d="M823 1298l791 -1364h-1579z" />
    <glyph glyph-name="uni25B6" unicode="&#x25b6;" horiz-adv-x="1536" 
d="M143 1413l1364 -790l-1364 -789v1579z" />
    <glyph glyph-name="triagdn" unicode="&#x25bc;" horiz-adv-x="1656" 
d="M827 -66l-790 1364h1579z" />
    <glyph glyph-name="uni25C0" unicode="&#x25c0;" horiz-adv-x="1536" 
d="M143 623l1364 790v-1579z" />
    <glyph glyph-name="lozenge" unicode="&#x25ca;" horiz-adv-x="1329" 
d="M520 709q74 -242 144 -375q74 139 135 375q-74 242 -144 374q-74 -138 -135 -374zM668 -104q-90 0 -146 39q-55 40 -110 124q-168 260 -283 650q4 14 23 65q61 176 181 410t214 338h104q89 0 145 -40t111 -124q168 -260 283 -649q-50 -177 -187 -443t-231 -370h-104z" />
    <glyph glyph-name="H18533" unicode="&#x25cf;" horiz-adv-x="1449" 
d="M133 563q0 246 173 419t419 173t419 -173t173 -419t-173 -419t-419 -173t-419 173t-173 419z" />
    <glyph glyph-name="zero.numr" horiz-adv-x="894" 
d="M375 997q0 -193 74 -192q43 0 57 39t14 147q0 109 -16 149t-55 40t-57 -39q-17 -40 -17 -144zM840 1012q0 -471 -398 -471q-160 1 -274 115t-113 338q-1 224 105 338t288 114t288 -104q104 -104 104 -330z" />
    <glyph glyph-name="one.numr" horiz-adv-x="755" 
d="M571 561h-151q-78 0 -123 44t-45 128v393l-66 -20q-31 -10 -75 -10q-88 0 -105 104l-16 96l231 93q97 37 181 37t126 -40q42 -39 43 -110v-715z" />
    <glyph glyph-name="two.numr" horiz-adv-x="897" 
d="M639 561h-436q-63 0 -101 34q-37 34 -36 89q0 100 145 207l192 141q49 37 50 84q0 70 -113 70q-172 0 -252 -105h-6v121q0 86 93 165t258 79t255 -86t90 -212t-135 -220l-84 -58q-39 -27 -59 -43h295v-137q0 -61 -41 -95t-115 -34z" />
    <glyph glyph-name="three.numr" horiz-adv-x="901" 
d="M422 541q-318 0 -318 207v131h7q84 -84 260 -84q109 0 108 47q0 31 -24 44q-25 13 -101 15q-106 4 -106 105v61l121 12q104 9 104 61t-135 52t-223 -88h-6v139q0 86 82 145q83 58 231 58t248 -70t100 -194t-127 -185q51 -14 92 -64t41 -110q0 -137 -100 -210
q-102 -72 -254 -72z" />
    <glyph glyph-name="four.numr" horiz-adv-x="929" 
d="M420 961v145q-53 -57 -123 -145h123zM762 711h-29v-156h-153q-92 0 -126 29t-34 106v21h-254q-66 -1 -108 35t-42 99t67 159t186 231q120 135 196 190h96q80 0 126 -46t46 -134v-282h152v-136q0 -51 -34 -83t-89 -33z" />
    <glyph glyph-name="five.numr" horiz-adv-x="894" 
d="M500 1124q129 0 215 -72t86 -209q1 -138 -105 -220t-270 -82q-305 0 -305 202v125h6q76 -74 224 -74t149 52q0 59 -136 59t-229 -18v352q0 96 37 141t127 45h475v-143q0 -57 -38 -90t-107 -33h-209v-37q16 2 80 2z" />
    <glyph glyph-name="six.numr" horiz-adv-x="890" 
d="M383 860q0 -74 78 -74q25 0 43 14t18 38q0 59 -69 59q-27 0 -49 -12q-21 -13 -21 -25zM819 857q0 -128 -97 -222q-96 -94 -270 -94q-174 -1 -273 109t-99 324t121 343t319 129q111 0 186 -51t74 -140v-116h-6q-74 61 -180 61t-157 -41q-50 -41 -52 -92q21 29 69 48t85 20
q131 0 205 -75t75 -203z" />
    <glyph glyph-name="seven.numr" horiz-adv-x="901" 
d="M684 1425q61 1 96 -29t35 -87t-80 -193l-153 -254q-61 -109 -62 -198v-103h-182q-131 0 -131 121q0 111 76 233l104 172q39 63 57 109h-378v102q0 127 131 127h487z" />
    <glyph glyph-name="eight.numr" horiz-adv-x="903" 
d="M512 840q0 18 -16 32t-47 14t-47 -14t-17 -32q-1 -57 63 -57t64 57zM449 1204q-59 0 -60 -45q-1 -47 59 -47t60 46t-59 46zM811 815q0 -119 -100 -197q-101 -78 -263 -78t-261 74q-99 72 -99 193q0 57 41 115t92 73q-53 19 -91 69t-38 116q0 122 110 194t249 72t247 -69
t107 -189q0 -66 -40 -117t-87 -67q45 -16 89 -74t44 -115z" />
    <glyph glyph-name="nine.numr" horiz-adv-x="890" 
d="M508 1120q0 72 -72 72q-31 0 -49 -20t-18 -46q0 -55 65 -55q34 -1 54 15t20 34zM809 1018q0 -230 -101 -354t-294 -123q-133 0 -215 53t-82 145v129h6q82 -82 244 -82q71 0 107 38t36 75q-41 -57 -129 -57q-127 0 -219 62t-92 208t104 240t266 94t266 -99
q103 -99 103 -329z" />
    <glyph glyph-name="zero.dnom" horiz-adv-x="894" 
d="M375 436q0 -193 74 -192q43 0 57 39t14 147t-16 148t-55 40t-57 -38q-17 -40 -17 -144zM840 451q0 -471 -398 -471q-160 0 -274 114t-113 338q-1 224 105 338t288 115q182 -1 288 -105q104 -104 104 -329z" />
    <glyph glyph-name="one.dnom" horiz-adv-x="755" 
d="M571 0h-151q-78 0 -123 44t-45 128v393l-66 -20q-31 -10 -75 -10q-88 0 -105 104l-16 96l231 92q97 37 181 37t126 -39t43 -110v-715z" />
    <glyph glyph-name="two.dnom" horiz-adv-x="897" 
d="M639 0h-436q-63 0 -101 34q-37 34 -36 89q0 100 145 207l192 141q49 37 50 84q0 70 -113 70q-172 0 -252 -105h-6v121q0 86 93 165t258 79t255 -86t90 -212t-135 -220l-84 -58q-39 -27 -59 -43h295v-137q0 -61 -41 -95t-115 -34z" />
    <glyph glyph-name="three.dnom" horiz-adv-x="901" 
d="M422 -20q-318 0 -318 206v131h7q84 -84 260 -84q109 0 108 48q0 31 -24 44q-25 13 -101 15q-106 4 -106 104v62l121 12q104 10 104 62t-135 51q-135 0 -223 -88h-6v139q0 86 82 144q83 58 231 58t248 -69t100 -193t-127 -186q51 -14 92 -64t41 -110q0 -137 -100 -210
q-102 -72 -254 -72z" />
    <glyph glyph-name="four.dnom" horiz-adv-x="929" 
d="M420 399v146q-53 -57 -123 -146h123zM762 150h-29v-156h-153q-92 0 -126 29t-34 106v21h-254q-66 0 -108 36t-42 98q0 63 67 159t186 231q120 135 196 190h96q80 0 126 -46t46 -134v-283h152v-135q0 -52 -34 -84t-89 -32z" />
    <glyph glyph-name="five.dnom" horiz-adv-x="894" 
d="M500 563q129 1 215 -71t86 -210q1 -138 -105 -220t-270 -82q-305 0 -305 202v125h6q76 -74 224 -74t149 52q0 59 -136 59t-229 -18v352q0 96 37 141t127 45h475v-143q0 -57 -38 -90t-107 -33h-209v-37q16 2 80 2z" />
    <glyph glyph-name="six.dnom" horiz-adv-x="890" 
d="M383 299q0 -74 78 -74q25 1 43 15t18 36q0 59 -69 60q-27 0 -49 -12q-21 -13 -21 -25zM539 573q131 -1 205 -75t75 -202q0 -128 -97 -222q-96 -94 -270 -94t-273 110t-99 323q0 214 121 343t319 129q111 0 186 -51t74 -140v-116h-6q-74 61 -180 61t-157 -41
q-50 -41 -52 -92q21 29 69 48t85 19z" />
    <glyph glyph-name="seven.dnom" horiz-adv-x="901" 
d="M684 864q61 0 96 -30t35 -86q0 -57 -80 -193l-153 -254q-61 -109 -62 -199v-102h-182q-131 0 -131 121q0 111 76 233l104 172q39 63 57 109h-378v102q0 127 131 127h487z" />
    <glyph glyph-name="eight.dnom" horiz-adv-x="903" 
d="M512 279q0 18 -16 32q-16 15 -47 15t-47 -14t-17 -33q-1 -57 63 -57t64 57zM449 643q-59 0 -60 -45q-1 -47 59 -47t60 46t-59 46zM811 254q0 -119 -100 -197q-101 -77 -263 -77t-261 72t-99 194q0 57 41 114t92 74q-53 20 -91 70t-38 114q0 121 110 194t249 73t247 -69
t107 -189q0 -66 -40 -117t-87 -68q45 -16 89 -74t44 -114z" />
    <glyph glyph-name="nine.dnom" horiz-adv-x="890" 
d="M508 559q0 72 -72 72q-31 1 -49 -19t-18 -47q0 -55 65 -55q34 0 54 16t20 33zM70 550q0 146 104 240t266 95t266 -99t103 -330q0 -230 -101 -353q-101 -124 -294 -123q-133 0 -215 53t-82 145v129h6q82 -82 244 -82q71 0 107 38t36 75q-41 -57 -129 -57q-127 0 -219 62
q-92 61 -92 207z" />
    <glyph glyph-name="zero.osf" 
d="M434 571q0 -165 55 -245t149 -80t140 74q47 74 47 251q0 307 -194 308q-197 -1 -197 -308zM76 556q0 280 154 442t402 161q248 1 400 -145t152 -426t-142 -451q-142 -170 -405 -170q-264 0 -413 155q-148 154 -148 434z" />
    <glyph glyph-name="one.osf" horiz-adv-x="1024" 
d="M889 -8h-178q-90 0 -149 58q-58 58 -58 157v565l-162 -86q-49 -27 -111 -27q-119 0 -145 80l-45 129l385 199q178 92 264 92t142 -48t57 -128v-991z" />
    <glyph glyph-name="two.osf" 
d="M1137 180q0 -180 -215 -180h-658q-70 0 -124 49t-54 117q0 133 168 223l315 172q143 80 144 150q0 129 -224 129q-264 0 -387 -170h-10v125q0 158 121 261t363 103q242 -1 377 -113q134 -112 134 -274q0 -106 -59 -183t-192 -151l-183 -98q-49 -27 -65 -33h549v-127z" />
    <glyph glyph-name="three.osf" 
d="M1114 92q0 -227 -150 -350t-419 -123q-188 0 -315 74q-126 74 -126 229v150h11q63 -66 178 -103t240 -37t179 46t54 123t-52 116t-213 49t-161 148v86l195 16q102 8 152 32t61 50q10 27 10 84q0 164 -262 164q-231 0 -375 -144h-10v158q0 121 127 210t351 89t370 -119
t147 -309q0 -123 -56 -200t-153 -130q84 -27 151 -115q66 -90 66 -194z" />
    <glyph glyph-name="four.osf" horiz-adv-x="1472" 
d="M750 307v393q-88 -86 -188 -206t-128 -187h316zM1391 162q0 -70 -44 -116t-118 -46h-94v-324h-187q-100 0 -149 44t-49 145v135h-463q-84 0 -150 47t-65 115q0 111 53 207q105 190 325 429t343 314h122q95 0 157 -60t63 -167v-574h256v-149z" />
    <glyph glyph-name="five.osf" 
d="M1186 109q0 -225 -159 -357t-421 -133q-444 0 -444 295v135h10q119 -119 379 -119t260 172q0 92 -58 142t-229 51q-171 0 -340 -31v547q0 153 62 227t207 74h688v-115q1 -92 -61 -144t-175 -52h-356v-226q74 4 131 5q214 0 360 -123t146 -348z" />
    <glyph glyph-name="six.osf" 
d="M457 506q0 -233 194 -234q78 0 123 47t45 141t-46 134q-46 41 -134 41t-135 -45t-47 -84zM621 -33q-250 0 -396 177q-145 177 -145 532q0 354 176 562t492 208q170 0 273 -76t103 -203v-127h-10q-123 100 -346 101q-135 0 -217 -82t-88 -234q33 47 111 79t139 32
q225 0 350 -122t125 -326t-128 -355q-64 -76 -178 -121t-261 -45z" />
    <glyph glyph-name="seven.osf" horiz-adv-x="1183" 
d="M971 1114q103 0 159 -49t56 -144t-131 -313l-264 -440q-43 -72 -72 -164t-29 -162v-166h-182q-213 0 -213 197q0 180 123 381l217 356q61 102 92 178h-670v117q-1 97 55 153t160 56h699z" />
    <glyph glyph-name="eight.osf" 
d="M799 438q0 56 -44 98t-125 42t-128 -42t-47 -98q0 -170 172 -170t172 170zM627 1145q-96 0 -130 -40q-34 -41 -34 -105t39 -103t125 -39t125 39t39 103t-34 105q-34 40 -130 40zM1167 416q0 -201 -140 -325q-139 -124 -399 -124t-400 118t-140 318q0 93 67 185t150 123
q-86 33 -147 113t-62 188q0 202 156 318t378 116t376 -111t153 -311q1 -106 -65 -190t-144 -111q74 -27 146 -120t71 -187z" />
    <glyph glyph-name="nine.osf" 
d="M803 594q0 135 -44 192q-45 58 -133 58t-137 -50t-49 -140t49 -142q49 -53 131 -53t133 44q50 44 50 91zM1178 485q0 -420 -165 -643t-472 -223q-182 0 -289 80q-106 80 -107 211v147h11q121 -133 358 -133q285 0 291 342q-29 -42 -97 -68t-148 -26q-179 0 -319 86
q-79 47 -125 142t-46 231q0 225 152 377q153 152 425 151q211 0 365 -146q78 -75 122 -211t44 -317z" />
    <glyph glyph-name="zero.lf" 
d="M438 715q0 -233 49 -329t145 -95q96 0 136 86q41 87 41 327t-44 328t-138 88q-93 0 -141 -86t-48 -319zM1198 731q0 -373 -136 -569t-448 -195q-224 0 -390 176q-81 85 -128 225t-47 314q0 389 154 576q154 188 423 188q268 0 420 -171t152 -544z" />
    <glyph glyph-name="one.lf" horiz-adv-x="958" 
d="M774 0h-182q-90 0 -149 58q-58 58 -58 157v846l-129 -41q-43 -12 -95 -12t-95 28t-52 78l-24 135l370 156q98 43 228 43q74 0 130 -48t56 -128v-1272z" />
    <glyph glyph-name="two.lf" 
d="M1157 180q0 -180 -215 -180h-688q-78 0 -133 46t-55 120q0 170 249 366l326 254q92 72 92 172q0 168 -203 168q-297 0 -428 -170h-10v125q0 158 126 261q126 104 376 104t392 -132t142 -298t-63 -254t-254 -221l-217 -152q-57 -41 -88 -76h651v-133z" />
    <glyph glyph-name="three.lf" 
d="M1135 430q0 -223 -155 -343t-435 -120q-188 0 -315 74q-126 74 -126 229v150h11q63 -66 178 -103t246 -36q227 0 227 129q0 86 -51 122t-213 46t-162 147v86l195 16q145 13 184 49t39 103q0 154 -262 154q-231 0 -375 -144h-10v158q0 121 127 210t356 89t381 -114
t151 -304q0 -215 -208 -315q84 -25 150 -106t67 -177z" />
    <glyph glyph-name="four.lf" horiz-adv-x="1325" 
d="M700 610v375q-70 -87 -138 -195t-97 -180h235zM1300 463q0 -72 -44 -118t-117 -46h-54v-299h-186q-100 0 -149 44t-50 144v111h-383q-83 0 -149 47t-66 117q0 109 54 209q111 207 294 438t293 303h123q96 0 158 -61t61 -168v-570h215v-151z" />
    <glyph glyph-name="five.lf" 
d="M1165 465q0 -233 -158 -366q-159 -132 -421 -132q-465 0 -465 297v137h10q127 -121 393 -121t267 171q-1 71 -63 109t-239 38t-346 -31v543q-1 156 61 230t208 73h708v-117q0 -92 -61 -144t-174 -52h-377v-217q98 4 131 4q223 1 375 -111t151 -311z" />
    <glyph glyph-name="six.lf" 
d="M457 506q0 -233 194 -234q78 0 123 47t45 141t-46 134q-46 41 -134 41t-135 -45t-47 -84zM621 -33q-250 0 -396 177q-145 177 -145 532q0 354 176 562t492 208q170 0 273 -76t103 -203v-127h-10q-123 100 -346 101q-135 0 -217 -82t-88 -234q33 47 111 79t139 32
q225 0 350 -122t125 -326t-128 -355q-64 -76 -178 -121t-261 -45z" />
    <glyph glyph-name="seven.lf" horiz-adv-x="1120" 
d="M926 1413q102 0 158 -49t57 -142q0 -93 -131 -315l-250 -415q-43 -72 -72 -165t-29 -161v-166h-182q-213 0 -213 197q0 182 123 381l203 331q59 94 92 178h-649v117q0 98 55 154t160 55h678z" />
    <glyph glyph-name="eight.lf" 
d="M819 438q0 56 -44 98t-125 42t-128 -42t-47 -98q0 -170 172 -170t172 170zM647 1145q-96 0 -130 -40q-34 -41 -34 -105t39 -103t125 -39t125 39t39 103t-34 105q-34 40 -130 40zM1188 416q0 -201 -140 -325t-400 -124t-399 118q-140 118 -140 318q0 92 66 185
q67 92 151 123q-86 33 -148 113q-61 81 -61 188q-1 202 155 318t378 116t376 -111t154 -311q0 -106 -66 -190t-143 -111q73 -27 145 -120t72 -187z" />
    <glyph glyph-name="nine.lf" 
d="M823 881q0 135 -44 192t-132 57t-137 -50t-49 -139t49 -142t131 -53t132 44t50 91zM1198 772q0 -805 -596 -805q-200 0 -318 80t-118 211v148h10q133 -133 399 -134q244 0 250 281q-29 -43 -88 -69t-137 -26q-181 1 -329 87q-83 47 -132 142t-49 231q0 224 153 376
t425 152q211 0 364 -147q78 -75 122 -210t44 -317z" />
    <glyph glyph-name="zero.tosf" horiz-adv-x="1228" 
d="M420 571q0 -165 55 -245t148 -80t141 73q47 74 47 252q0 307 -195 308q-196 -1 -196 -308zM618 1159q249 1 400 -145t151 -426t-141 -451q-142 -170 -406 -170t-412 155q-148 154 -148 434t153 442q154 162 403 161z" />
    <glyph glyph-name="one.tosf" horiz-adv-x="1228" 
d="M954 -8h-178q-90 0 -148 58t-59 157v565l-161 -86q-49 -27 -111 -27q-119 0 -145 80l-46 129l386 199q178 92 264 92t142 -48t56 -128v-991z" />
    <glyph glyph-name="two.tosf" horiz-adv-x="1228" 
d="M1141 180q0 -180 -215 -180h-658q-70 0 -124 49t-54 117q0 133 168 223l315 172q143 80 144 150q0 129 -223 129q-264 0 -388 -170h-10v125q0 158 121 261t363 103q242 -1 377 -113q134 -112 135 -274q0 -106 -60 -183t-192 -151l-183 -98q-49 -27 -65 -33h549v-127z" />
    <glyph glyph-name="three.tosf" horiz-adv-x="1228" 
d="M1120 92q0 -227 -150 -350t-419 -123q-188 0 -314 74t-126 229v150h10q63 -66 178 -103t240 -37t179 46t54 123t-52 116t-213 49t-161 148v86l195 16q102 8 152 32t61 50q10 27 10 84q0 164 -262 164q-231 0 -375 -144h-10v158q0 121 127 210t351 89q225 0 371 -119
t146 -309q0 -123 -56 -200t-153 -130q84 -27 151 -115q66 -90 66 -194z" />
    <glyph glyph-name="four.tosf" horiz-adv-x="1228" 
d="M635 307v393q-125 -145 -236 -393h236zM1194 162q0 -78 -26 -120t-95 -42h-53v-324h-186q-100 0 -150 44q-49 44 -49 145v135h-383q-84 0 -150 47t-65 115q0 111 53 207q121 215 299 445t289 298h123q96 0 157 -60t62 -167v-574h174v-149z" />
    <glyph glyph-name="five.tosf" horiz-adv-x="1228" 
d="M1126 109q0 -225 -158 -358q-159 -132 -421 -132q-444 0 -445 295v135h11q119 -119 379 -119t260 172q0 92 -58 142t-230 51q-171 0 -339 -31v547q0 153 61 227t207 74h688v-115q0 -92 -61 -144t-174 -52h-357v-226q94 4 132 5q213 0 359 -123t146 -348z" />
    <glyph glyph-name="six.tosf" horiz-adv-x="1228" 
d="M438 506q0 -233 195 -234q78 0 123 47t45 141t-46 134q-47 41 -135 41t-135 -45t-47 -84zM602 -33q-250 0 -395 177t-145 532q0 354 176 562t491 208q170 0 273 -76t104 -203v-127h-10q-123 100 -346 101q-136 0 -218 -82t-88 -234q33 47 111 79t139 32q225 0 350 -122
t125 -327t-128 -354q-65 -76 -179 -121t-260 -45z" />
    <glyph glyph-name="seven.tosf" horiz-adv-x="1228" 
d="M967 1112q103 0 159 -49t56 -142t-131 -311l-275 -446q-44 -72 -72 -163t-28 -161v-164h-184q-213 0 -213 195q0 180 122 377l230 364q61 102 92 179h-672v114q0 95 55 151t160 56h701z" />
    <glyph glyph-name="eight.tosf" horiz-adv-x="1228" 
d="M786 438q0 56 -44 98t-125 42t-128 -42t-47 -98q0 -170 172 -170t172 170zM614 1145q-96 0 -130 -40q-34 -41 -34 -105t40 -103q38 -39 124 -39t125 39t39 103t-34 105q-34 40 -130 40zM1155 416q0 -201 -140 -325q-139 -124 -399 -124t-400 118t-140 318q0 92 66 185
q67 92 151 123q-86 33 -148 113q-61 81 -61 188q0 202 156 318t378 116t375 -111q154 -111 154 -311q0 -106 -66 -190t-143 -111q74 -27 146 -120t71 -187z" />
    <glyph glyph-name="nine.tosf" horiz-adv-x="1228" 
d="M795 594q0 135 -44 192q-45 58 -133 58t-137 -50t-49 -140t49 -142q49 -53 131 -53t132 44t51 91zM1169 485q-1 -420 -165 -643t-472 -223q-182 0 -288 80t-107 211v147h10q121 -133 359 -133q285 0 291 342q-29 -42 -98 -68t-147 -26q-178 0 -320 86q-79 47 -124 142
q-46 95 -47 231q0 225 153 377t425 151q211 0 365 -146q78 -75 122 -211t43 -317z" />
    <glyph glyph-name="uni2007.tosf" horiz-adv-x="1228" 
 />
    <glyph glyph-name="parenleft.case" horiz-adv-x="815" 
d="M846 -225h-123q-229 0 -365 153q-102 115 -179 309t-77 447q0 520 279 825q119 129 342 129h121v-10q-135 -116 -243 -358q-107 -242 -107 -560t108 -572q108 -253 244 -353v-10z" />
    <glyph glyph-name="parenright.case" horiz-adv-x="815" 
d="M-33 1638h123q227 0 365 -153q102 -115 179 -309t77 -447q0 -520 -279 -825q-115 -129 -342 -129h-121v10q135 115 243 357t108 562q0 318 -108 571t-245 353v10z" />
    <glyph glyph-name="hyphen.case" horiz-adv-x="784" 
d="M707 836v-111q0 -59 -41 -103t-103 -44h-491v104q0 154 164 154h471z" />
    <glyph glyph-name="bracketleft.case" horiz-adv-x="655" 
d="M651 -225h-508v1863h377q49 0 90 -36t41 -107v-76h-262v-1425h131q59 0 95 -38t36 -108v-73z" />
    <glyph glyph-name="bracketright.case" horiz-adv-x="655" 
d="M27 1638h508v-1863h-377q-49 0 -90 36t-41 107v76h262v1425h-131q-59 0 -96 38q-36 38 -35 108v73z" />
    <glyph glyph-name="braceleft.case" horiz-adv-x="940" 
d="M639 457l-16 -260q0 -164 104 -164h33q51 0 95 -44t44 -91v-123h-274q-156 0 -252 102t-97 268q0 105 10 191t11 130q0 44 -26 80t-68 44q-121 23 -121 125v96l121 20q88 16 88 130q1 73 -7 139t-8 164q0 174 96 274t251 100h114q63 0 113 -44t49 -111v-105h-172
q-104 0 -104 -166q0 -70 8 -131t8 -114q0 -197 -186 -248v-6q186 -53 186 -256z" />
    <glyph glyph-name="braceright.case" horiz-adv-x="940" 
d="M301 954l16 260q0 164 -104 164h-33q-51 0 -95 44t-44 91v123h274q156 0 252 -102t97 -268q0 -104 -10 -190t-11 -131q0 -44 26 -80t68 -44q121 -23 121 -125v-96l-121 -20q-88 -16 -88 -129q-1 -74 7 -140t8 -164q0 -174 -96 -274t-251 -100h-114q-63 0 -113 44
q-49 44 -49 111v105h172q104 0 104 166q0 70 -8 133t-8 112q0 197 186 248v6q-186 53 -186 256z" />
    <glyph glyph-name="guillemotleft.case" horiz-adv-x="1316" 
d="M551 281q-174 0 -254 112l-221 314l221 315q76 109 254 108h133l-276 -423l276 -426h-133zM1100 281q-182 0 -254 112l-199 314l199 315q66 109 254 108h131l-256 -423l256 -426h-131z" />
    <glyph glyph-name="uni00AD.case" horiz-adv-x="784" 
d="M707 836v-111q0 -59 -41 -103t-103 -44h-491v104q0 154 164 154h471z" />
    <glyph glyph-name="guillemotright.case" horiz-adv-x="1316" 
d="M205 281h-131l256 426l-256 423h131q182 0 254 -108l198 -315l-198 -314q-72 -112 -254 -112zM754 281h-133l276 426l-276 423h133q178 0 254 -108l221 -315l-221 -314q-80 -112 -254 -112z" />
    <glyph glyph-name="endash.case" 
d="M973 557h-871v121q0 78 56 127t147 49h850v-127q0 -70 -55 -120t-127 -50z" />
    <glyph glyph-name="emdash.case" horiz-adv-x="1890" 
d="M1651 563h-1583v125q0 70 52 115t140 45h1563v-129q0 -63 -52 -109t-120 -47z" />
    <glyph glyph-name="guilsinglleft.case" horiz-adv-x="694" 
d="M502 281q-174 0 -254 112l-221 314l221 315q76 109 254 108h133l-277 -423l277 -426h-133z" />
    <glyph glyph-name="guilsinglright.case" horiz-adv-x="694" 
d="M178 281h-133l277 426l-277 423h133q178 0 254 -108l221 -315l-221 -314q-80 -112 -254 -112z" />
    <glyph glyph-name="copyright.ss01" horiz-adv-x="1650" 
d="M1106 571q-65 -69 -225 -69q-78 0 -138 55q-59 55 -59 153t58 151q58 54 136 54t141 -21q62 -21 91 -56h23v90q0 88 -70 140t-186 52q-203 0 -318 -119t-115 -301t124 -294t296 -111q117 0 191 52t73 134v90h-22zM1556 707q0 -307 -217 -525t-524 -217q-307 0 -524 217
q-217 216 -217 524t217 525t524 217t524 -217t217 -524z" />
    <glyph glyph-name="commaaccent" horiz-adv-x="704" 
d="M137 -307q0 35 23 67l137 193l96 -45q88 -39 88 -111q0 -37 -28 -78l-127 -176l-121 56q-68 31 -68 94z" />
    <glyph glyph-name="commaturn" horiz-adv-x="704" 
d="M451 1305h-140q-61 0 -100 45t-39 106v242h111q75 0 121 -47t47 -129v-217z" />
    <glyph glyph-name="undercommaaccent" horiz-adv-x="704" 
d="M137 -307q0 35 23 67l137 193l96 -45q88 -39 88 -111q0 -37 -28 -78l-127 -176l-121 56q-68 31 -68 94z" />
    </font>
</defs>
</svg>
